<?xml version="1.0" encoding="UTF-8" standalone="no"?>
<!-- Created with Inkscape (http://www.inkscape.org/) -->

<svg
   xmlns:dc="http://purl.org/dc/elements/1.1/"
   xmlns:cc="http://creativecommons.org/ns#"
   xmlns:rdf="http://www.w3.org/1999/02/22-rdf-syntax-ns#"
   xmlns:svg="http://www.w3.org/2000/svg"
   xmlns="http://www.w3.org/2000/svg"
   xmlns:sodipodi="http://sodipodi.sourceforge.net/DTD/sodipodi-0.dtd"
   xmlns:inkscape="http://www.inkscape.org/namespaces/inkscape"
   width="100"
   height="100"
   viewBox="0 0 26.458333 26.458334"
   version="1.1"
   id="svg8"
   inkscape:version="0.92.4 (5da689c313, 2019-01-14)"
   sodipodi:docname="spiceUp-2.svg">
  <defs
     id="defs2" />
  <sodipodi:namedview
     id="base"
     pagecolor="#ffffff"
     bordercolor="#666666"
     borderopacity="1.0"
     inkscape:pageopacity="0.0"
     inkscape:pageshadow="2"
     inkscape:zoom="1.465625"
     inkscape:cx="-8.6234654"
     inkscape:cy="22.598931"
     inkscape:document-units="px"
     inkscape:current-layer="layer1"
     showgrid="false"
     units="px"
     inkscape:window-width="1366"
     inkscape:window-height="745"
     inkscape:window-x="-8"
     inkscape:window-y="-8"
     inkscape:window-maximized="1" />
  <metadata
     id="metadata5">
    <rdf:RDF>
      <cc:Work
         rdf:about="">
        <dc:format>image/svg+xml</dc:format>
        <dc:type
           rdf:resource="http://purl.org/dc/dcmitype/StillImage" />
        <dc:title></dc:title>
      </cc:Work>
    </rdf:RDF>
  </metadata>
  <g
     inkscape:label="Layer 1"
     inkscape:groupmode="layer"
     id="layer1"
     transform="translate(0,-270.54165)">
    <g
       id="g848"
       transform="matrix(1.3083006,0,0,1.3083006,-152.09827,36.053197)"
       style="stroke-width:0.76435035">
      <path
         sodipodi:nodetypes="ccccccccccccccc"
         inkscape:connector-curvature="0"
         id="rect1229"
         d="m 129.37234,186.14969 -1.59108,4.37381 1.68099,-0.12128 c 0.006,-0.0324 0.0164,-0.0641 0.0297,-0.0944 l 1.24748,-2.86944 c 0.12241,-0.28514 0.0747,-0.39443 -0.0577,-0.55971 -0.1325,-0.16525 -0.40549,-0.33408 -0.67863,-0.43849 -0.12562,-0.0481 -0.50232,-0.26699 -0.63075,-0.29055 z m -5.35482,5.14669 c -0.58683,3.19244 6.20319,2.9109 -0.78671,4.47538 h 5.7552 c -0.008,-0.10852 0.0227,-0.21595 0.0881,-0.303 0.78164,-1.03738 1.18061,-1.89606 1.18173,-3.33539 -7e-5,-0.28048 -0.0416,-0.55899 -0.076,-0.83699 z"
         style="opacity:1;vector-effect:none;fill:#ececec;fill-opacity:1;stroke:none;stroke-width:0.22930509;stroke-linecap:round;stroke-linejoin:round;stroke-miterlimit:4;stroke-dasharray:none;stroke-dashoffset:0;stroke-opacity:1;paint-order:stroke fill markers" />
      <path
         inkscape:connector-curvature="0"
         id="path1080"
         d="m 127.18775,179.41661 -0.0179,0.11087 -0.37943,2.33154 1.58406,0.25761 0.0926,-0.5676 -0.98851,-0.16023 0.0607,-0.38291 0.80731,0.13185 0.0908,-0.56237 -0.80731,-0.13056 0.0594,-0.36282 0.96231,0.15499 0.0926,-0.56759 z m -2.01457,0.0821 v 4.4e-4 c -0.0596,-0.002 -0.12861,8.4e-4 -0.20958,0.007 -0.085,0.006 -0.18067,0.0207 -0.28729,0.0428 -0.0688,0.0142 -0.13855,0.0362 -0.20784,0.0659 -0.0729,0.0301 -0.1404,0.0714 -0.20477,0.12225 -0.0666,0.0527 -0.12626,0.11672 -0.17814,0.19123 -0.0548,0.0775 -0.0967,0.1687 -0.12531,0.27071 -0.0292,0.10392 -0.0426,0.22017 -0.0445,0.34842 -0.002,0.13029 0.0129,0.27371 0.0459,0.43225 0.034,0.16379 0.0763,0.307 0.12705,0.42921 0.05,0.12033 0.10708,0.22265 0.17203,0.30999 v 0.002 c 0.0639,0.0851 0.1344,0.15441 0.21264,0.20783 v 0.002 c 0.0748,0.0501 0.15446,0.0872 0.23621,0.11054 0.0808,0.0224 0.16415,0.0326 0.24756,0.0314 0.0806,-0.002 0.15959,-0.0101 0.23752,-0.0262 l 0.0891,-0.0184 v -0.007 c 0.0673,-0.0164 0.13745,-0.0316 0.19299,-0.0511 0.078,-0.0261 0.14382,-0.0521 0.19953,-0.0778 v 0.002 c 0.0636,-0.0284 0.11841,-0.0582 0.16679,-0.0908 l 0.0629,-0.0427 -0.0956,-0.45714 -0.1157,0.0349 c -0.0357,0.0112 -0.077,0.0219 -0.12226,0.0345 l 0.002,-0.002 c -0.038,0.0101 -0.0836,0.0226 -0.1384,0.0363 -0.0536,0.0131 -0.11476,0.0258 -0.18164,0.0397 -0.0496,0.0101 -0.0997,0.0198 -0.1502,0.0262 l 0.003,-0.002 c -0.0436,0.006 -0.0871,0.004 -0.1288,-0.002 -0.0395,-0.007 -0.0777,-0.0189 -0.1157,-0.0397 -0.0325,-0.0177 -0.0693,-0.0471 -0.10567,-0.0926 -0.0348,-0.0435 -0.0688,-0.10639 -0.10217,-0.18643 -0.0326,-0.078 -0.0636,-0.17772 -0.0891,-0.3004 -0.024,-0.11592 -0.035,-0.21499 -0.0362,-0.29384 v -0.002 c -8e-5,-0.0805 0.007,-0.14595 0.0214,-0.19474 0.0156,-0.0528 0.0366,-0.0917 0.0594,-0.11919 0.0268,-0.0324 0.0546,-0.0559 0.0873,-0.0756 l 0.002,-0.002 c 0.0364,-0.0223 0.0745,-0.039 0.1157,-0.0511 0.0489,-0.0141 0.0988,-0.0263 0.14845,-0.0368 0.0557,-0.0117 0.10899,-0.0223 0.15981,-0.0297 h 0.002 c 0.053,-0.009 0.0999,-0.0167 0.14059,-0.0231 0.0488,-0.007 0.0942,-0.0122 0.13666,-0.0179 l 0.11876,-0.0166 -0.0939,-0.45364 -0.0725,-0.0148 c -0.0542,-0.0113 -0.11425,-0.0195 -0.18163,-0.0217 z m -2.93758,0.91647 -0.52962,0.28554 0.0528,0.0991 1.12211,2.0792 0.52962,-0.2873 z m 9.92787,0.94397 -0.0777,0.0807 -1.06928,1.09897 c -0.097,0.0998 -0.17238,0.20039 -0.22443,0.30388 -0.0521,0.10448 -0.0785,0.2155 -0.0742,0.32659 0.005,0.11221 0.041,0.22427 0.10218,0.33184 0.0605,0.1083 0.14829,0.21559 0.26066,0.32484 0.11272,0.10953 0.22202,0.19255 0.33183,0.24931 0.10979,0.0569 0.22157,0.0893 0.33314,0.0908 h 0.002 c 0.11202,2.1e-4 0.22231,-0.0305 0.32528,-0.0873 0.10143,-0.0548 0.19984,-0.13287 0.29691,-0.23271 l 1.14219,-1.17495 -0.42919,-0.41784 -1.12692,1.15879 c -0.0568,0.0584 -0.10657,0.0967 -0.1454,0.117 l -0.002,0.002 c -0.0384,0.0208 -0.0684,0.0272 -0.0956,0.0262 -0.0295,-0.002 -0.0621,-0.0112 -0.0991,-0.0327 h -0.002 c -0.0393,-0.0241 -0.0841,-0.0611 -0.1336,-0.10919 -0.0556,-0.054 -0.0958,-0.10224 -0.12225,-0.14189 l -0.001,-0.002 c -0.0227,-0.0362 -0.0327,-0.0669 -0.0349,-0.0939 -4e-5,-4.4e-4 3e-5,-8.4e-4 0,-0.002 -6.7e-4,-0.0247 0.006,-0.0518 0.0266,-0.089 0.0219,-0.0397 0.061,-0.0926 0.11876,-0.15196 l 1.12692,-1.15834 z m -11.79748,0.46499 v 4.4e-4 c -0.0629,0.003 -0.12417,0.016 -0.18163,0.0381 -0.0564,0.0204 -0.10832,0.0483 -0.15675,0.0839 -0.0446,0.0326 -0.0869,0.0676 -0.12531,0.10561 l -0.713,0.70644 0.0777,0.079 1.66178,1.68012 0.42876,-0.42265 -0.55756,-0.56279 0.2755,-0.27378 c 0.0372,-0.0368 0.0728,-0.0765 0.10567,-0.11876 l 0.002,-0.002 c 0.0353,-0.047 0.0643,-0.0978 0.0873,-0.15195 v -0.002 c 0.0229,-0.0567 0.0381,-0.11735 0.0445,-0.17988 0.007,-0.0682 0.001,-0.13891 -0.0179,-0.20959 -0.0195,-0.0723 -0.0525,-0.14393 -0.0974,-0.21744 h -0.002 c -0.0471,-0.0766 -0.10941,-0.15353 -0.18644,-0.2314 -0.0764,-0.0772 -0.15002,-0.13939 -0.22442,-0.18774 h -0.002 c -0.0715,-0.0474 -0.1418,-0.0844 -0.21307,-0.1056 h -0.002 c -0.0692,-0.0212 -0.13747,-0.0321 -0.20434,-0.0285 z m -0.0314,0.63223 h 0.002 c 0.0207,-0.006 0.037,-0.006 0.0576,0 l 0.002,0.002 h 0.002 c 0.0237,0.006 0.0497,0.0175 0.0777,0.0381 0.0326,0.024 0.0648,0.0531 0.0974,0.086 0.0333,0.0336 0.0613,0.0656 0.0838,0.0973 0.0193,0.0272 0.0299,0.0518 0.0349,0.0742 v 0.002 h 0.002 c 0.005,0.0186 0.003,0.0334 -0.003,0.0543 v 0.002 c -0.004,0.0133 -0.0178,0.0382 -0.0493,0.0695 l -0.24451,0.24276 -0.37462,-0.37985 0.24451,-0.24101 c 0.0306,-0.0302 0.0545,-0.0414 0.0677,-0.0445 z m 3.48423,1.77836 c -0.2285,0.0145 -0.44775,0.13704 -0.56979,0.34581 l -0.22573,0.38596 c -0.19526,0.334 -0.0786,0.78063 0.25411,0.97803 l 0.37593,0.22312 c 0.33275,0.19737 0.7771,0.0838 0.97236,-0.25019 l 0.22573,-0.38641 c 0.19525,-0.334 0.0782,-0.78019 -0.25455,-0.97759 l -0.37593,-0.22312 c -0.12478,-0.074 -0.26503,-0.10437 -0.40213,-0.0956 z m -5.59703,0.017 -0.0568,0.0581 c -0.0408,0.0417 -0.0825,0.0888 -0.12487,0.14192 v 4.3e-4 c -0.0367,0.0462 -0.0759,0.10068 -0.11833,0.16461 l -4.4e-4,4.3e-4 c -2e-4,2.3e-4 -2.1e-4,6.5e-4 -4.3e-4,8.4e-4 -0.0453,0.0663 -0.0883,0.14085 -0.12968,0.22442 -0.0515,0.10403 -0.0874,0.20722 -0.10566,0.3087 -0.0185,0.1028 -0.0167,0.20364 0.007,0.29908 v 4.4e-4 4.3e-4 c 0.0246,0.0957 0.0733,0.18434 0.1419,0.26241 0.0699,0.0801 0.16146,0.14524 0.27114,0.19954 0.0895,0.0444 0.17258,0.078 0.25106,0.0996 h 8.4e-4 l 8.5e-4,4.4e-4 c 0.0788,0.0204 0.15528,0.0286 0.22879,0.0213 h 4.3e-4 8.5e-4 c 0.0744,-0.009 0.14528,-0.0327 0.20958,-0.0712 l 8.4e-4,-4.4e-4 4.4e-4,-4.4e-4 c 0.0626,-0.0386 0.12058,-0.0904 0.17552,-0.15369 l 0.31131,-0.35802 c 0.0237,-0.0274 0.043,-0.0414 0.0528,-0.0464 l 10e-4,-8.5e-4 0.001,-8.4e-4 c 0.0131,-0.007 0.0242,-0.0101 0.0354,-0.0101 0.0127,-4.4e-4 0.0263,6.6e-4 0.045,0.009 l 0.002,8.4e-4 0.002,4.4e-4 c 0.0251,0.009 0.0535,0.0206 0.0843,0.0359 v -4.5e-4 c 0.0379,0.0188 0.0667,0.0381 0.0878,0.0558 l 10e-4,8.6e-4 8.4e-4,8.4e-4 c 0.0112,0.009 0.0165,0.017 0.021,0.0349 0.003,0.0152 0.003,0.0482 -0.008,0.0965 -10e-5,4.3e-4 1.1e-4,4.2e-4 0,8.4e-4 -0.0122,0.047 -0.0392,0.11601 -0.0821,0.20259 -0.0333,0.0673 -0.0667,0.13051 -0.0995,0.18992 -0.0326,0.0589 -0.0621,0.11043 -0.0891,0.15369 l -4.4e-4,4.4e-4 -4.3e-4,8.4e-4 c -0.0312,0.0516 -0.0619,0.0986 -0.0913,0.1419 l -0.0716,0.10606 0.42046,0.20871 0.0533,-0.0345 c 0.0453,-0.0295 0.0876,-0.0689 0.13186,-0.11877 h 4.4e-4 c 0.0396,-0.0448 0.0812,-0.10134 0.12749,-0.17028 0.0507,-0.0738 0.10279,-0.16602 0.1585,-0.27855 0.0725,-0.14647 0.12121,-0.27418 0.14452,-0.38859 0.0246,-0.11422 0.026,-0.22195 -0.004,-0.31963 l -4.4e-4,-4.3e-4 v -4.4e-4 c -0.0305,-0.0962 -0.0903,-0.18138 -0.17203,-0.24888 -0.077,-0.0646 -0.17171,-0.12353 -0.28467,-0.17942 -0.0715,-0.0354 -0.13711,-0.0642 -0.19736,-0.0864 h -4.5e-4 c -0.0606,-0.0223 -0.11726,-0.0383 -0.17115,-0.0466 h -8.5e-4 c -0.0551,-0.009 -0.10937,-0.0101 -0.16155,-4.3e-4 h -8.3e-4 c -0.0493,0.008 -0.0967,0.0238 -0.14103,0.0467 -0.0446,0.0221 -0.087,0.0516 -0.12662,0.0873 -4.3e-4,4.6e-4 -8e-4,8.5e-4 -0.001,0.002 -4e-4,4.5e-4 -9.3e-4,4.3e-4 -10e-4,8.4e-4 -0.0383,0.0331 -0.0767,0.0712 -0.11658,0.11484 l -0.29996,0.32835 c -0.0254,0.027 -0.0471,0.0454 -0.0603,0.054 l -4.4e-4,4.4e-4 c -0.0102,0.006 -0.0177,0.009 -0.0231,0.0101 -0.006,4.4e-4 -0.0144,-2e-4 -0.0271,-0.004 h -4.6e-4 c -0.0194,-0.007 -0.0409,-0.0159 -0.0659,-0.0285 -0.0472,-0.0234 -0.0776,-0.0464 -0.0908,-0.0603 -0.0104,-0.0112 -0.0134,-0.017 -0.0144,-0.0332 -0.001,-0.0167 0.004,-0.0512 0.0214,-0.0987 0.019,-0.0512 0.0483,-0.11859 0.0886,-0.19997 0.0253,-0.0511 0.0519,-0.1 0.079,-0.14583 l 8.5e-4,-8.4e-4 4.3e-4,-8.4e-4 c 0.0272,-0.048 0.0523,-0.09 0.0755,-0.12575 l 4.3e-4,-4.4e-4 4.4e-4,-8.5e-4 c 0.0274,-0.0438 0.054,-0.0851 0.0799,-0.12358 l 0.0716,-0.10605 z m 16.36234,0.0314 -0.10217,0.0446 -2.1652,0.94747 0.24102,0.55099 0.7261,-0.31697 0.155,0.35497 c 0.021,0.0479 0.0466,0.0962 0.0742,0.14189 v 0.002 c 0.0313,0.0499 0.0687,0.0944 0.11089,0.13536 l 10e-4,0.002 c 0.0447,0.0417 0.096,0.0771 0.15195,0.1056 0.0611,0.0312 0.13022,0.0499 0.20302,0.0576 0.0745,0.008 0.15282,0.002 0.23752,-0.0131 0.0883,-0.0165 0.18217,-0.047 0.2825,-0.0908 0.0992,-0.0434 0.18545,-0.09 0.25717,-0.14189 l 0.002,-0.002 c 0.0697,-0.0494 0.12795,-0.1028 0.17334,-0.16154 0.0449,-0.0573 0.0795,-0.11768 0.10042,-0.18164 0.0192,-0.0587 0.0296,-0.11944 0.0301,-0.1799 v -0.002 c 10e-4,-0.0599 -0.006,-0.12027 -0.0218,-0.17814 -0.0145,-0.0534 -0.0325,-0.10426 -0.0541,-0.15369 z m -10.88232,0.2218 c 0.027,0.003 0.0538,0.0117 0.079,0.0258 0.10101,0.0565 0.1369,0.18323 0.0803,0.28424 l -0.20434,0.36458 c -0.0566,0.10101 -0.18323,0.1369 -0.28424,0.0803 -0.10101,-0.0565 -0.1369,-0.18323 -0.0803,-0.28424 l 0.20434,-0.36458 c 0.0424,-0.0758 0.12427,-0.11516 0.20521,-0.10606 z m 10.59677,0.56062 0.13884,0.31524 c 0.0173,0.0391 0.0184,0.0643 0.0166,0.0773 v 0.003 0.002 c -0.002,0.0213 -0.008,0.0358 -0.0214,0.0528 v 0.002 l -0.002,0.002 c -0.014,0.02 -0.0337,0.0388 -0.0629,0.0576 -0.034,0.0217 -0.0734,0.0426 -0.1157,0.0612 -0.0434,0.0191 -0.0823,0.0331 -0.12007,0.0427 h -0.002 c -0.0322,0.009 -0.058,0.0101 -0.0808,0.007 h -0.002 c -0.0189,-0.002 -0.0346,-0.008 -0.0515,-0.0217 v -0.002 c -0.011,-0.009 -0.0298,-0.0305 -0.0476,-0.0712 l -0.1371,-0.31524 z m -4.89932,0.34493 c -0.27744,-0.006 -0.57573,0.047 -0.84311,0.21438 -0.26739,0.16733 -0.48113,0.45165 -0.58944,0.80512 0,6.8e-4 0,8.5e-4 0,0.002 l -1.18324,3.92609 c -0.004,0.0147 -0.008,0.0295 -0.0105,0.0445 h -4.59496 c -0.21703,-1e-4 -0.4028,0.15566 -0.44055,0.36938 -0.0783,0.44672 -0.11907,0.9035 -0.12051,1.36139 0,6.7e-4 0,8.4e-4 0,0.002 0,1.50514 0.45231,2.59118 1.19416,3.63706 h -2.04553 c -0.59642,0 -0.59642,0.89463 0,0.89463 h 9.78728 c 0.59642,0 0.59642,-0.89463 0,-0.89463 h -0.59687 c 0.74164,-1.04586 1.19135,-2.13212 1.19242,-3.63706 0,-0.4605 -0.042,-0.91779 -0.12051,-1.36313 -0.0377,-0.21373 -0.22352,-0.36947 -0.44055,-0.36938 h -0.16155 l 1.13521,-2.60923 c 1e-5,-8.5e-4 1e-5,-0.002 0,-0.003 0.23325,-0.54335 0.10848,-1.10866 -0.18163,-1.47053 -0.29012,-0.36188 -0.68998,-0.57425 -1.0575,-0.71476 -0.27561,-0.10527 -0.58961,-0.18841 -0.92257,-0.19429 z m -0.0166,0.8942 c 0.18592,0.003 0.41553,0.057 0.62044,0.13535 0.27313,0.10448 0.54601,0.27353 0.67851,0.4388 0.13248,0.16527 0.18004,0.27461 0.0576,0.55975 l -1.24743,2.86947 c -0.0134,0.0302 -0.0233,0.0619 -0.0297,0.0943 h -1.75783 l 1.11906,-3.71301 c 0.0568,-0.18355 0.12504,-0.25622 0.20608,-0.30695 0.0815,-0.051 0.19826,-0.0805 0.35323,-0.0778 z m -5.26869,0.0336 c -0.33232,0.0181 -0.64096,0.23304 -0.76103,0.56151 -0.1601,0.43791 0.0654,0.93932 0.50517,1.10245 0.43976,0.16313 0.93582,-0.0707 1.09591,-0.50865 0.16011,-0.43794 -0.0663,-0.94154 -0.50604,-1.10466 -0.10993,-0.0408 -0.22324,-0.0566 -0.33401,-0.0506 z m -1.95999,0.16244 c -0.18974,0.0101 -0.36695,0.13035 -0.43575,0.31829 l -0.15369,0.42003 c -0.0917,0.25056 0.0401,0.5356 0.29035,0.62829 l 0.40999,0.15194 c 0.25021,0.0927 0.53439,-0.0385 0.62611,-0.28903 l 0.15369,-0.42003 c 0.0917,-0.25057 -0.0401,-0.53562 -0.29035,-0.62831 l -0.40999,-0.15194 c -0.0625,-0.0231 -0.12711,-0.0324 -0.19036,-0.0293 z m -0.10522,0.12923 c 0.017,-0.002 0.0341,9e-5 0.0511,0.006 l 0.0258,0.008 c 0.0677,0.0205 0.10135,0.0899 0.0755,0.15586 l -0.093,0.23797 c -0.0258,0.0659 -0.10125,0.10269 -0.16897,0.082 l -0.0258,-0.008 c -0.0677,-0.0205 -0.10135,-0.0904 -0.0755,-0.15631 l 0.093,-0.23752 c 0.0194,-0.0494 0.0669,-0.0826 0.11789,-0.0873 z m 1.81896,0.0493 a 0.22421685,0.2335592 0 0 1 0.22398,0.23359 0.22421685,0.2335592 0 0 1 -0.22398,0.2336 0.22421685,0.2335592 0 0 1 -0.22443,-0.2336 0.22421685,0.2335592 0 0 1 0.22443,-0.23359 z m 2.14205,0.28817 c -0.0569,0.002 -0.11388,0.0148 -0.1681,0.0401 l -0.31829,0.1493 c -0.21686,0.10157 -0.31493,0.36762 -0.21569,0.58551 l 0.14714,0.32268 c 0.0992,0.21789 0.36298,0.3163 0.57983,0.21481 l 0.31873,-0.14889 c 0.21685,-0.10146 0.31537,-0.36979 0.21613,-0.58768 l -0.14714,-0.32311 c -0.0744,-0.16343 -0.24197,-0.25833 -0.41261,-0.2528 z m -1.91588,1.38409 c -0.0563,0.002 -0.11304,0.0145 -0.16679,0.0397 l -0.3135,0.14716 c -0.21503,0.10067 -0.31191,0.36288 -0.2135,0.57896 l 0.14583,0.3196 c 0.0984,0.21607 0.35781,0.31198 0.57284,0.21133 l 0.31393,-0.14714 c 0.21503,-0.10068 0.31322,-0.36376 0.21482,-0.57984 l -0.14583,-0.31959 c -0.0738,-0.16207 -0.23907,-0.25585 -0.4078,-0.2502 z m 1.75652,0.34624 c -0.20871,0.0112 -0.40243,0.1452 -0.4781,0.35236 -0.1009,0.27616 0.0415,0.59076 0.31786,0.69334 0.27638,0.10258 0.58547,-0.0443 0.68636,-0.32047 0.1009,-0.27619 -0.0397,-0.59034 -0.31611,-0.69293 -0.0691,-0.0256 -0.14044,-0.0359 -0.21001,-0.0323 z m -0.076,0.17639 a 0.16701866,0.17397777 0 0 1 0.16679,0.17422 0.16701866,0.17397777 0 0 1 -0.16679,0.17377 0.16701866,0.17397777 0 0 1 -0.16723,-0.17377 0.16701866,0.17397777 0 0 1 0.16723,-0.17422 z m -3.18908,2.42239 h 7.59458 c 0.0344,0.27799 0.0759,0.55607 0.076,0.83654 -0.001,1.43933 -0.40028,2.29798 -1.18193,3.33535 -0.0653,0.0871 -0.0967,0.19494 -0.0882,0.30345 h -5.20451 c 0.008,-0.10852 -0.0231,-0.21647 -0.0886,-0.30345 -0.78126,-1.03716 -1.18114,-1.89404 -1.1815,-3.33185 v -0.002 c 9.3e-4,-0.28237 0.0404,-0.56025 0.0742,-0.83831 z"
         style="color:#000000;font-style:normal;font-variant:normal;font-weight:normal;font-stretch:normal;font-size:medium;line-height:normal;font-family:sans-serif;font-variant-ligatures:normal;font-variant-position:normal;font-variant-caps:normal;font-variant-numeric:normal;font-variant-alternates:normal;font-feature-settings:normal;text-indent:0;text-align:start;text-decoration:none;text-decoration-line:none;text-decoration-style:solid;text-decoration-color:#000000;letter-spacing:normal;word-spacing:normal;text-transform:none;writing-mode:lr-tb;direction:ltr;text-orientation:mixed;dominant-baseline:auto;baseline-shift:baseline;text-anchor:start;white-space:normal;shape-padding:0;clip-rule:nonzero;display:inline;overflow:visible;visibility:visible;opacity:1;isolation:auto;mix-blend-mode:normal;color-interpolation:sRGB;color-interpolation-filters:linearRGB;solid-color:#000000;solid-opacity:1;vector-effect:none;fill:#4d4d4d;fill-opacity:1;fill-rule:nonzero;stroke:none;stroke-width:0.80893743;stroke-linecap:round;stroke-linejoin:round;stroke-miterlimit:4;stroke-dasharray:none;stroke-dashoffset:0;stroke-opacity:1;paint-order:stroke fill markers;color-rendering:auto;image-rendering:auto;shape-rendering:auto;text-rendering:auto;enable-background:accumulate" />
      <ellipse
         transform="matrix(0.88260856,0.47010864,-0.41112364,0.91157959,0,0)"
         ry="1.2349471"
         rx="0.8020128"
         cy="110.16553"
         cx="196.74472"
         id="path865"
         style="opacity:1;vector-effect:none;fill:#ffffff;fill-opacity:1;stroke:none;stroke-width:0.22955309;stroke-linecap:round;stroke-linejoin:round;stroke-miterlimit:4;stroke-dasharray:none;stroke-dashoffset:0;stroke-opacity:1;paint-order:stroke fill markers" />
      <path
         id="path932"
         d="m 125.28243,197.39159 c -0.10434,0 -0.2051,0.0251 -0.29558,0.0744 -0.18002,0.098 -0.30666,0.26869 -0.37621,0.49145 -0.0359,0.11538 -0.0537,0.23718 -0.0537,0.3638 v 0.0274 c 0,0.11238 0.0154,0.22595 0.045,0.34054 0.0578,0.22362 0.18068,0.39882 0.36276,0.5023 0.0902,0.0512 0.19014,0.078 0.29301,0.078 h 0.0491 c 0.1,0 0.19968,-0.0255 0.29456,-0.0729 0.1802,-0.0891 0.30731,-0.26108 0.38189,-0.49196 v -5.3e-4 c 0.037,-0.11415 0.0558,-0.23666 0.0558,-0.36587 v -0.0274 c 0,-0.11036 -0.0161,-0.22309 -0.0455,-0.33796 -0.0302,-0.11805 -0.0766,-0.22187 -0.14211,-0.30851 -0.13185,-0.1745 -0.31407,-0.27285 -0.51883,-0.27285 z m 3.95222,0 -0.002,0.0232 c -0.0684,0.0109 -0.13788,0.0179 -0.19895,0.0512 -0.18,0.098 -0.30768,0.26917 -0.37724,0.49196 -0.0359,0.11535 -0.0527,0.23662 -0.0527,0.36329 v 0.0274 c 0,0.11244 0.0133,0.22495 0.0429,0.33951 0.0578,0.22366 0.18127,0.40092 0.36329,0.50436 0.0901,0.0512 0.19005,0.076 0.293,0.076 h 0.0491 c 0.10019,0 0.19966,-0.0249 0.29455,-0.0724 0.18032,-0.0891 0.30836,-0.26082 0.38292,-0.49196 0.0372,-0.11435 0.0548,-0.23605 0.0548,-0.36535 v -0.0274 c 0,-0.11008 -0.0155,-0.22283 -0.045,-0.33796 -0.0303,-0.11829 -0.0773,-0.22201 -0.14262,-0.30851 -0.13179,-0.17442 -0.31256,-0.27337 -0.51728,-0.27337 h -0.0512 z m -5.93349,0.0176 c -0.16858,0 -0.32015,0.0379 -0.44338,0.11937 -0.12057,0.0797 -0.20102,0.19124 -0.20102,0.31833 0,0.052 0.004,0.0969 0.0274,0.14263 0.0231,0.0457 0.0835,0.0879 0.1385,0.0879 0.0521,0 0.11071,-0.0129 0.15244,-0.0568 0.0378,-0.0397 0.0558,-0.0818 0.0801,-0.14263 0.0425,-0.10278 0.0852,-0.1328 0.18345,-0.1328 0.0529,0 0.0848,0.0151 0.12092,0.0548 h 0.002 v 0.002 c 0.0374,0.0399 0.0527,0.0784 0.0527,0.13642 0,0.0968 -0.0349,0.1982 -0.11317,0.30903 -0.039,0.0554 -0.12832,0.15461 -0.26355,0.28474 -0.13763,0.13158 -0.21517,0.20689 -0.25012,0.24649 l -0.002,0.002 c -0.0784,0.0914 -0.13281,0.15287 -0.13281,0.25373 v 0.0274 c 0,0.042 0.0202,0.0894 0.0506,0.1173 0.0304,0.0278 0.0643,0.0416 0.0997,0.0506 h 0.002 c 0.0268,0.006 0.0439,0.007 0.0724,0.008 0.0284,0.001 0.0643,0 0.10904,0 h 0.1235 c 0.0277,0 0.0549,0.001 0.0816,0.002 h 0.0429 0.002 c 0.0369,0 0.10549,0.003 0.20515,0.006 h 0.002 0.0429 0.0703 v 0.002 h 0.0977 c 0.095,0 0.19247,-0.035 0.24029,-0.11524 0.0432,-0.0725 0.0527,-0.15818 0.0527,-0.26562 0,-0.037 -0.003,-0.075 -0.0253,-0.11369 -0.0227,-0.0387 -0.0766,-0.0682 -0.12092,-0.0682 -3.7e-4,0 -0.031,0.004 -0.0315,0.004 -5.3e-4,1.7e-4 -0.0117,0.004 -0.0155,0.006 -0.008,0.004 -0.0111,0.007 -0.0155,0.0103 -0.009,0.006 -0.0157,0.0113 -0.0238,0.0176 -0.0161,0.0127 -0.0364,0.0272 -0.0605,0.0486 -0.0402,0.0357 -0.0739,0.0581 -0.0977,0.0667 v -0.002 c 5.3e-4,-1.9e-4 -0.0323,0.009 -0.0801,0.0119 -0.0478,0.003 -0.11181,0.004 -0.19327,0.004 -0.0377,0 -0.0525,-0.002 -0.0801,-0.004 0.0373,-0.0374 0.0794,-0.0786 0.14676,-0.13487 h 0.002 c 0.1709,-0.14374 0.29156,-0.26034 0.36742,-0.3576 0.10272,-0.13152 0.16019,-0.27541 0.16019,-0.42375 0,-0.14648 -0.0541,-0.2806 -0.15606,-0.37724 -0.10451,-0.1001 -0.25156,-0.14417 -0.4222,-0.14417 z m 4.04316,0 c -0.16858,0 -0.3186,0.0379 -0.44183,0.11937 -0.12056,0.0797 -0.20309,0.19124 -0.20309,0.31833 0,0.052 0.004,0.0969 0.0274,0.14263 0.0231,0.0457 0.084,0.0879 0.13901,0.0879 0.0521,0 0.1102,-0.0129 0.15193,-0.0568 0.0378,-0.0397 0.0558,-0.0818 0.0801,-0.14263 0.0425,-0.10278 0.0857,-0.1328 0.18397,-0.1328 0.0528,0 0.0848,0.0151 0.12092,0.0548 h 0.002 v 0.002 c 0.0374,0.0399 0.0527,0.0784 0.0527,0.13642 0,0.0968 -0.0333,0.1982 -0.11162,0.30903 -0.0391,0.0554 -0.13038,0.15461 -0.26562,0.28474 -0.13762,0.13158 -0.21464,0.20688 -0.24959,0.24649 l -0.002,0.002 c -0.0784,0.0914 -0.1328,0.15287 -0.1328,0.25373 v 0.0274 c 0,0.042 0.0202,0.0894 0.0506,0.1173 0.0304,0.0278 0.0642,0.0416 0.0997,0.0506 h 0.002 0.002 c 0.0268,0.006 0.0424,0.007 0.0708,0.008 0.0284,0.001 0.0643,0 0.10903,0 h 0.12506 c 0.0277,0 0.0533,0.001 0.0801,0.002 h 0.0429 0.002 c 0.0369,0 0.1055,0.003 0.20516,0.006 h 0.002 0.0429 0.0703 v 0.002 h 0.0997 c 0.095,0 0.19041,-0.035 0.23823,-0.11524 0.0432,-0.0725 0.0548,-0.15818 0.0548,-0.26562 0,-0.037 -0.005,-0.075 -0.0274,-0.11369 -0.0227,-0.0387 -0.0771,-0.0682 -0.12144,-0.0682 -3.7e-4,0 -0.0305,0.004 -0.031,0.004 -5.3e-4,1.7e-4 -0.0101,0.004 -0.0139,0.006 -0.008,0.004 -0.0132,0.007 -0.0176,0.0103 -0.009,0.006 -0.0152,0.0113 -0.0233,0.0176 -0.0161,0.0127 -0.0364,0.0272 -0.0605,0.0486 -0.0393,0.0349 -0.0719,0.0556 -0.0956,0.0646 5.3e-4,-1.9e-4 -0.0344,0.009 -0.0822,0.0119 -0.0478,0.003 -0.11182,0.004 -0.19327,0.004 -0.0377,0 -0.0525,-0.002 -0.0801,-0.004 0.0373,-0.0374 0.0809,-0.0785 0.14831,-0.13488 0.1709,-0.14374 0.29156,-0.26034 0.36742,-0.3576 0.10272,-0.13152 0.1602,-0.2754 0.1602,-0.42374 0,-0.14648 -0.0546,-0.28008 -0.15658,-0.37672 -0.10451,-0.1001 -0.25104,-0.14469 -0.42169,-0.14469 z m 1.99575,0.30282 c 0.0773,0 0.12492,0.0311 0.17777,0.14263 0.0553,0.11669 0.0858,0.26028 0.0858,0.43357 v 0.10335 c 0,0.18642 -0.0345,0.33214 -0.0956,0.44132 -0.0497,0.0876 -0.0953,0.11523 -0.17157,0.11523 -0.0732,0 -0.12396,-0.0313 -0.1819,-0.13487 -0.0583,-0.10415 -0.0899,-0.2442 -0.0899,-0.42375 v -0.14263 c 0,-0.17052 0.0305,-0.30521 0.0879,-0.40617 0.0563,-0.099 0.10766,-0.12868 0.18759,-0.12868 z m -4.04472,5.3e-4 c 0.0775,0 0.12439,0.0301 0.17725,0.1416 0.0553,0.1167 0.0847,0.26029 0.0847,0.43356 v 0.10387 c 0,0.18728 -0.034,0.33301 -0.0956,0.44235 -0.0495,0.0871 -0.0944,0.11317 -0.17053,0.11317 -0.0733,0 -0.12397,-0.0298 -0.1819,-0.13332 -0.0582,-0.10411 -0.0904,-0.24413 -0.0904,-0.42375 v -0.14366 c 0,-0.1705 0.0315,-0.30363 0.0889,-0.40463 0.0562,-0.099 0.1076,-0.12919 0.18758,-0.12919 z"
         style="color:#000000;font-style:normal;font-variant:normal;font-weight:300;font-stretch:normal;font-size:2.65089297px;line-height:167.69000292%;font-family:'Averia Serif Libre';-inkscape-font-specification:'Averia Serif Libre, Light';font-variant-ligatures:normal;font-variant-position:normal;font-variant-caps:normal;font-variant-numeric:normal;font-variant-alternates:normal;font-feature-settings:normal;text-indent:0;text-align:start;text-decoration:none;text-decoration-line:none;text-decoration-style:solid;text-decoration-color:#000000;letter-spacing:0.5291667px;word-spacing:0px;text-transform:none;writing-mode:lr-tb;direction:ltr;text-orientation:mixed;dominant-baseline:auto;baseline-shift:baseline;text-anchor:start;white-space:normal;shape-padding:0;clip-rule:nonzero;display:inline;overflow:visible;visibility:visible;opacity:1;isolation:auto;mix-blend-mode:normal;color-interpolation:sRGB;color-interpolation-filters:linearRGB;solid-color:#000000;solid-opacity:1;vector-effect:none;fill:#4d4d4d;fill-opacity:1;fill-rule:nonzero;stroke:none;stroke-width:0.15287007;stroke-linecap:butt;stroke-linejoin:miter;stroke-miterlimit:4;stroke-dasharray:none;stroke-dashoffset:0;stroke-opacity:1;color-rendering:auto;image-rendering:auto;shape-rendering:auto;text-rendering:auto;enable-background:accumulate"
         inkscape:connector-curvature="0" />
      <path
         inkscape:connector-curvature="0"
         id="path860"
         d="m 134.51008,186.92089 a 0.15001504,0.15001504 0 0 0 -0.12695,0.19336 c 0.22997,0.77267 0.34766,1.57475 0.34766,2.38086 0,2.02965 -0.74077,3.99104 -2.08203,5.51562 a 0.15001504,0.15001504 0 1 0 0.2246,0.19727 c 1.38937,-1.57926 2.15625,-3.61035 2.15625,-5.71289 0,-0.83509 -0.12114,-1.66636 -0.35937,-2.4668 a 0.15001504,0.15001504 0 0 0 -0.16016,-0.10742 z"
         style="color:#000000;font-style:normal;font-variant:normal;font-weight:normal;font-stretch:normal;font-size:medium;line-height:normal;font-family:sans-serif;font-variant-ligatures:normal;font-variant-position:normal;font-variant-caps:normal;font-variant-numeric:normal;font-variant-alternates:normal;font-feature-settings:normal;text-indent:0;text-align:start;text-decoration:none;text-decoration-line:none;text-decoration-style:solid;text-decoration-color:#000000;letter-spacing:normal;word-spacing:normal;text-transform:none;writing-mode:lr-tb;direction:ltr;text-orientation:mixed;dominant-baseline:auto;baseline-shift:baseline;text-anchor:start;white-space:normal;shape-padding:0;clip-rule:nonzero;display:inline;overflow:visible;visibility:visible;opacity:1;isolation:auto;mix-blend-mode:normal;color-interpolation:sRGB;color-interpolation-filters:linearRGB;solid-color:#000000;solid-opacity:1;vector-effect:none;fill:#4d4d4d;fill-opacity:1;fill-rule:nonzero;stroke:none;stroke-width:0.22930516;stroke-linecap:round;stroke-linejoin:round;stroke-miterlimit:4;stroke-dasharray:none;stroke-dashoffset:0;stroke-opacity:1;paint-order:stroke fill markers;color-rendering:auto;image-rendering:auto;shape-rendering:auto;text-rendering:auto;enable-background:accumulate" />
      <path
         inkscape:connector-curvature="0"
         id="path856"
         d="m 118.2054,186.92089 a 0.15001504,0.15001504 0 0 0 -0.14063,0.10937 c -0.23804,0.80014 -0.35937,1.63011 -0.35937,2.46485 0,2.10364 0.76752,4.13526 2.1582,5.71484 a 0.15020488,0.15020488 0 1 0 0.22656,-0.19727 c -1.34252,-1.52488 -2.08398,-3.48685 -2.08398,-5.51757 0,-0.80577 0.11592,-1.60653 0.3457,-2.37891 a 0.15001504,0.15001504 0 0 0 -0.14648,-0.19531 z"
         style="color:#000000;font-style:normal;font-variant:normal;font-weight:normal;font-stretch:normal;font-size:medium;line-height:normal;font-family:sans-serif;font-variant-ligatures:normal;font-variant-position:normal;font-variant-caps:normal;font-variant-numeric:normal;font-variant-alternates:normal;font-feature-settings:normal;text-indent:0;text-align:start;text-decoration:none;text-decoration-line:none;text-decoration-style:solid;text-decoration-color:#000000;letter-spacing:normal;word-spacing:normal;text-transform:none;writing-mode:lr-tb;direction:ltr;text-orientation:mixed;dominant-baseline:auto;baseline-shift:baseline;text-anchor:start;white-space:normal;shape-padding:0;clip-rule:nonzero;display:inline;overflow:visible;visibility:visible;opacity:1;isolation:auto;mix-blend-mode:normal;color-interpolation:sRGB;color-interpolation-filters:linearRGB;solid-color:#000000;solid-opacity:1;vector-effect:none;fill:#4d4d4d;fill-opacity:1;fill-rule:nonzero;stroke:none;stroke-width:0.22930516;stroke-linecap:round;stroke-linejoin:round;stroke-miterlimit:4;stroke-dasharray:none;stroke-dashoffset:0;stroke-opacity:1;paint-order:stroke fill markers;color-rendering:auto;image-rendering:auto;shape-rendering:auto;text-rendering:auto;enable-background:accumulate" />
    </g>
  </g>
</svg>
