<?xml version="1.0" encoding="UTF-8" standalone="no"?>
<!-- Created with Inkscape (http://www.inkscape.org/) -->

<svg
   xmlns:dc="http://purl.org/dc/elements/1.1/"
   xmlns:cc="http://creativecommons.org/ns#"
   xmlns:rdf="http://www.w3.org/1999/02/22-rdf-syntax-ns#"
   xmlns:svg="http://www.w3.org/2000/svg"
   xmlns="http://www.w3.org/2000/svg"
   xmlns:sodipodi="http://sodipodi.sourceforge.net/DTD/sodipodi-0.dtd"
   xmlns:inkscape="http://www.inkscape.org/namespaces/inkscape"
   width="100"
   height="100"
   viewBox="0 0 26.458333 26.458334"
   version="1.1"
   id="svg8"
   inkscape:version="0.92.4 (5da689c313, 2019-01-14)"
   sodipodi:docname="spices_logo.svg">
  <defs
     id="defs2" />
  <sodipodi:namedview
     id="base"
     pagecolor="#ffffff"
     bordercolor="#666666"
     borderopacity="1.0"
     inkscape:pageopacity="0.0"
     inkscape:pageshadow="2"
     inkscape:zoom="2.56"
     inkscape:cx="35.529829"
     inkscape:cy="28.953256"
     inkscape:document-units="px"
     inkscape:current-layer="layer1"
     showgrid="false"
     inkscape:window-width="1366"
     inkscape:window-height="745"
     inkscape:window-x="-8"
     inkscape:window-y="-8"
     inkscape:window-maximized="1"
     inkscape:snap-global="false"
     showguides="false"
     units="px" />
  <metadata
     id="metadata5">
    <rdf:RDF>
      <cc:Work
         rdf:about="">
        <dc:format>image/svg+xml</dc:format>
        <dc:type
           rdf:resource="http://purl.org/dc/dcmitype/StillImage" />
        <dc:title />
      </cc:Work>
    </rdf:RDF>
  </metadata>
  <g
     inkscape:label="Layer 1"
     inkscape:groupmode="layer"
     id="layer1"
     transform="translate(0,-270.54165)">
    <path
       style="opacity:1;vector-effect:none;fill:#ececec;fill-opacity:1;stroke:none;stroke-width:0.29999998;stroke-linecap:round;stroke-linejoin:round;stroke-miterlimit:4;stroke-dasharray:none;stroke-dashoffset:0;stroke-opacity:1;paint-order:stroke fill markers"
       d="m 16.233347,280.95245 -1.591082,4.37381 1.680993,-0.12128 c 0.0064,-0.0324 0.01638,-0.0641 0.02973,-0.0944 l 1.247481,-2.86944 c 0.122409,-0.28514 0.07474,-0.39443 -0.05775,-0.55971 -0.132499,-0.16525 -0.405493,-0.33408 -0.678624,-0.43849 -0.125628,-0.0481 -0.502321,-0.26699 -0.630754,-0.29055 z m -5.354819,5.14669 c -0.586832,3.19244 6.203196,2.9109 -0.786712,4.47538 h 5.755203 c -0.0085,-0.10852 0.02269,-0.21595 0.08805,-0.303 0.781645,-1.03738 1.180615,-1.89606 1.181734,-3.33539 -6.8e-5,-0.28048 -0.04158,-0.55899 -0.07604,-0.83699 z"
       id="rect1229"
       inkscape:connector-curvature="0"
       sodipodi:nodetypes="ccccccccccccccc" />
    <path
       style="color:#000000;font-style:normal;font-variant:normal;font-weight:normal;font-stretch:normal;font-size:medium;line-height:normal;font-family:sans-serif;font-variant-ligatures:normal;font-variant-position:normal;font-variant-caps:normal;font-variant-numeric:normal;font-variant-alternates:normal;font-feature-settings:normal;text-indent:0;text-align:start;text-decoration:none;text-decoration-line:none;text-decoration-style:solid;text-decoration-color:#000000;letter-spacing:normal;word-spacing:normal;text-transform:none;writing-mode:lr-tb;direction:ltr;text-orientation:mixed;dominant-baseline:auto;baseline-shift:baseline;text-anchor:start;white-space:normal;shape-padding:0;clip-rule:nonzero;display:inline;overflow:visible;visibility:visible;opacity:1;isolation:auto;mix-blend-mode:normal;color-interpolation:sRGB;color-interpolation-filters:linearRGB;solid-color:#000000;solid-opacity:1;vector-effect:none;fill:#4d4d4d;fill-opacity:1;fill-rule:nonzero;stroke:none;stroke-width:1.05833328;stroke-linecap:round;stroke-linejoin:round;stroke-miterlimit:4;stroke-dasharray:none;stroke-dashoffset:0;stroke-opacity:1;paint-order:stroke fill markers;color-rendering:auto;image-rendering:auto;shape-rendering:auto;text-rendering:auto;enable-background:accumulate"
       d="m 14.048755,274.21937 -0.0179,0.11087 -0.379423,2.33154 1.584058,0.25761 0.09257,-0.5676 -0.988508,-0.16023 0.0607,-0.38291 0.807311,0.13185 0.09082,-0.56237 -0.807311,-0.13056 0.05938,-0.36282 0.962311,0.15499 0.09257,-0.56759 z m -2.014566,0.0821 v 4.4e-4 c -0.05962,-0.002 -0.12861,8.4e-4 -0.209578,0.007 -0.08502,0.006 -0.180671,0.0207 -0.287295,0.0428 -0.0688,0.0142 -0.138546,0.0362 -0.207832,0.0659 -0.07293,0.0301 -0.1404,0.0714 -0.204776,0.12225 -0.06665,0.0527 -0.12626,0.11672 -0.17814,0.19123 -0.05482,0.0775 -0.09668,0.1687 -0.12531,0.27071 -0.02915,0.10392 -0.04262,0.22017 -0.04454,0.34842 -0.0022,0.13029 0.01293,0.27371 0.04585,0.43225 0.034,0.16379 0.07628,0.307 0.127056,0.42921 0.05,0.12033 0.107074,0.22265 0.172028,0.30999 v 0.002 c 0.0639,0.0851 0.1344,0.15441 0.212634,0.20783 v 0.002 c 0.07478,0.0501 0.154468,0.0872 0.236212,0.11054 0.08076,0.0224 0.164147,0.0326 0.247563,0.0314 0.08062,-0.002 0.15959,-0.0101 0.237521,-0.0262 l 0.08907,-0.0184 v -0.007 c 0.06728,-0.0164 0.137446,-0.0316 0.192986,-0.0511 0.078,-0.0261 0.143827,-0.0521 0.199535,-0.0778 v 0.002 c 0.06358,-0.0284 0.118405,-0.0582 0.166789,-0.0908 l 0.06287,-0.0427 -0.09562,-0.45714 -0.115705,0.0349 c -0.03573,0.0112 -0.07701,0.0219 -0.122253,0.0345 l 0.0018,-0.002 c -0.03798,0.0101 -0.08359,0.0226 -0.138408,0.0363 -0.05358,0.0131 -0.114753,0.0258 -0.181635,0.0397 -0.04962,0.0101 -0.09973,0.0198 -0.150197,0.0262 l 0.0035,-0.002 c -0.04357,0.006 -0.08712,0.004 -0.128804,-0.002 -0.03945,-0.007 -0.07768,-0.0189 -0.115704,-0.0397 -0.03252,-0.0177 -0.06928,-0.0471 -0.105662,-0.0926 -0.03482,-0.0435 -0.06878,-0.10639 -0.102175,-0.18643 -0.03256,-0.078 -0.06359,-0.17772 -0.08907,-0.3004 -0.02404,-0.11592 -0.03497,-0.21499 -0.03623,-0.29384 v -0.002 c -7.7e-5,-0.0805 0.0073,-0.14595 0.0214,-0.19474 0.01557,-0.0528 0.03661,-0.0917 0.05937,-0.11919 0.0268,-0.0324 0.05461,-0.0559 0.08732,-0.0756 l 0.0018,-0.002 c 0.03637,-0.0223 0.07448,-0.039 0.115704,-0.0511 0.04891,-0.0141 0.09876,-0.0263 0.14845,-0.0368 0.05574,-0.0117 0.108991,-0.0223 0.159804,-0.0297 h 0.0018 c 0.05303,-0.009 0.09988,-0.0167 0.140591,-0.0231 0.04877,-0.007 0.09416,-0.0122 0.136663,-0.0179 l 0.11876,-0.0166 -0.09387,-0.45364 -0.07248,-0.0148 c -0.0542,-0.0113 -0.114254,-0.0195 -0.181634,-0.0217 z m -2.9375811,0.91647 -0.5296197,0.28554 0.052828,0.0991 1.1221144,2.0792 0.5296214,-0.2873 z m 9.9278701,0.94397 -0.07771,0.0807 -1.069282,1.09897 c -0.09698,0.0998 -0.17238,0.20039 -0.224422,0.30388 -0.05215,0.10448 -0.07854,0.2155 -0.07423,0.32659 0.0052,0.11221 0.04097,0.22427 0.102175,0.33184 0.06048,0.1083 0.148289,0.21559 0.260661,0.32484 0.112717,0.10953 0.222018,0.19255 0.331832,0.24931 0.109787,0.0569 0.221567,0.0893 0.33314,0.0908 h 0.0018 c 0.112018,2.1e-4 0.222311,-0.0305 0.325283,-0.0873 0.101424,-0.0548 0.199834,-0.13287 0.296903,-0.23271 l 1.142196,-1.17495 -0.429197,-0.41784 -1.126917,1.15879 c -0.05681,0.0584 -0.10657,0.0967 -0.145395,0.117 l -0.0018,0.002 c -0.03835,0.0208 -0.06838,0.0272 -0.09562,0.0262 -0.02952,-0.002 -0.06213,-0.0112 -0.09912,-0.0327 h -0.0018 c -0.03926,-0.0241 -0.08414,-0.0611 -0.133604,-0.10919 -0.05562,-0.054 -0.09577,-0.10224 -0.122255,-0.14189 l -0.0013,-0.002 c -0.02268,-0.0362 -0.03269,-0.0669 -0.03492,-0.0939 -3.2e-5,-4.4e-4 3.1e-5,-8.4e-4 0,-0.002 -6.69e-4,-0.0247 0.0061,-0.0518 0.02663,-0.089 0.02193,-0.0397 0.06104,-0.0926 0.118761,-0.15196 l 1.126919,-1.15834 z M 7.2270004,276.6269 v 4.4e-4 c -0.062887,0.003 -0.1241716,0.016 -0.1816341,0.0381 -0.056381,0.0204 -0.1083186,0.0483 -0.1567462,0.0839 -0.044603,0.0326 -0.086888,0.0676 -0.1253107,0.10561 l -0.7130005,0.70644 0.077714,0.079 1.6617764,1.68012 0.428762,-0.42265 -0.5575645,-0.56279 0.275507,-0.27378 c 0.037193,-0.0368 0.072831,-0.0765 0.1056616,-0.11876 l 0.00177,-0.002 c 0.035292,-0.047 0.064267,-0.0978 0.087323,-0.15195 v -0.002 c 0.022934,-0.0567 0.038058,-0.11735 0.044542,-0.17988 0.00709,-0.0682 0.0011,-0.13891 -0.0179,-0.20959 -0.019472,-0.0723 -0.052496,-0.14393 -0.097369,-0.21744 h -0.00177 c -0.047074,-0.0766 -0.1094095,-0.15353 -0.1864386,-0.2314 -0.076423,-0.0772 -0.1500199,-0.13939 -0.2244228,-0.18774 H 7.64613 c -0.071454,-0.0474 -0.1417964,-0.0844 -0.2130705,-0.1056 h -0.00177 c -0.069165,-0.0212 -0.1374688,-0.0321 -0.2043386,-0.0285 z m -0.031438,0.63223 h 0.00177 c 0.02065,-0.006 0.037049,-0.006 0.057631,0 l 0.00177,0.002 h 0.00177 c 0.023658,0.006 0.049749,0.0175 0.077714,0.0381 0.032613,0.024 0.064856,0.0531 0.097367,0.086 0.033298,0.0336 0.061257,0.0656 0.083832,0.0973 0.01934,0.0272 0.029868,0.0518 0.034928,0.0742 v 0.002 h 0.00177 c 0.00464,0.0186 0.00304,0.0334 -0.00346,0.0543 v 0.002 c -0.00397,0.0133 -0.017794,0.0382 -0.049335,0.0695 l -0.2445074,0.24276 -0.3746202,-0.37985 0.2445073,-0.24101 c 0.030569,-0.0302 0.05448,-0.0414 0.067678,-0.0445 z m 3.4842276,1.77836 c -0.228496,0.0145 -0.447754,0.13704 -0.569789,0.34581 l -0.2257327,0.38596 c -0.1952583,0.334 -0.078621,0.78063 0.2541137,0.97803 l 0.37593,0.22312 c 0.332745,0.19737 0.777094,0.0838 0.972353,-0.25019 l 0.225733,-0.38641 c 0.195255,-0.334 0.0782,-0.78019 -0.254551,-0.97759 l -0.375929,-0.22312 c -0.12478,-0.074 -0.265029,-0.10437 -0.402128,-0.0956 z m -5.5970322,0.017 -0.05676,0.0581 c -0.040842,0.0417 -0.082455,0.0888 -0.1248728,0.14192 v 4.3e-4 c -0.036712,0.0462 -0.075864,0.10068 -0.118324,0.16461 l -4.368e-4,4.3e-4 c -2.02e-4,2.3e-4 -2.13e-4,6.5e-4 -4.369e-4,8.4e-4 -0.045346,0.0663 -0.088309,0.14085 -0.1296762,0.22442 -0.05148,0.10403 -0.087386,0.20722 -0.1056616,0.3087 -0.01852,0.1028 -0.016738,0.20364 0.00702,0.29908 v 4.4e-4 4.3e-4 c 0.02462,0.0957 0.073296,0.18434 0.1419021,0.26241 0.069875,0.0801 0.1614568,0.14524 0.2711407,0.19954 0.089506,0.0444 0.1725758,0.078 0.251057,0.0996 h 8.45e-4 l 8.448e-4,4.4e-4 c 0.078804,0.0204 0.1552839,0.0286 0.2287886,0.0213 h 4.368e-4 8.448e-4 c 0.074436,-0.009 0.1452758,-0.0327 0.2095779,-0.0712 l 8.449e-4,-4.4e-4 4.368e-4,-4.4e-4 c 0.062632,-0.0386 0.1205799,-0.0904 0.1755211,-0.15369 l 0.3113102,-0.35802 c 0.023751,-0.0274 0.043039,-0.0414 0.052832,-0.0464 l 0.00127,-8.5e-4 0.00135,-8.4e-4 c 0.01313,-0.007 0.024156,-0.0101 0.035368,-0.0101 0.0127,-4.4e-4 0.02626,6.6e-4 0.044974,0.009 l 0.00177,8.4e-4 0.0022,4.4e-4 c 0.025103,0.009 0.053482,0.0206 0.084271,0.0359 v -4.5e-4 c 0.037886,0.0188 0.066705,0.0381 0.087761,0.0558 l 0.00127,8.6e-4 8.45e-4,8.4e-4 c 0.011212,0.009 0.016535,0.017 0.020962,0.0349 0.00313,0.0152 0.00313,0.0482 -0.00827,0.0965 -1.023e-4,4.3e-4 1.047e-4,4.2e-4 0,8.4e-4 -0.012243,0.047 -0.03923,0.11601 -0.082083,0.20259 -0.033265,0.0673 -0.066697,0.13051 -0.09955,0.18992 -0.032604,0.0589 -0.062118,0.11043 -0.08907,0.15369 l -4.369e-4,4.4e-4 -4.368e-4,8.4e-4 c -0.031177,0.0516 -0.061898,0.0986 -0.091252,0.1419 l -0.071607,0.10606 0.4204652,0.20871 0.053271,-0.0345 c 0.045279,-0.0295 0.087587,-0.0689 0.1318595,-0.11877 h 4.367e-4 c 0.039653,-0.0448 0.081222,-0.10134 0.127493,-0.17028 0.050686,-0.0738 0.1027861,-0.16602 0.1584937,-0.27855 0.072501,-0.14647 0.1212168,-0.27418 0.1445211,-0.38859 0.024595,-0.11422 0.026024,-0.22195 -0.00397,-0.31963 l -4.368e-4,-4.3e-4 v -4.4e-4 c -0.030509,-0.0962 -0.090278,-0.18138 -0.1720281,-0.24888 -0.077021,-0.0646 -0.1717115,-0.12353 -0.2846769,-0.17942 -0.071488,-0.0354 -0.1371098,-0.0642 -0.197352,-0.0864 h -4.523e-4 c -0.060563,-0.0223 -0.1172654,-0.0383 -0.1711546,-0.0466 h -8.45e-4 c -0.055148,-0.009 -0.1093769,-0.0101 -0.1615495,-4.3e-4 h -8.369e-4 c -0.049326,0.008 -0.096728,0.0238 -0.1410284,0.0467 -0.044636,0.0221 -0.087017,0.0516 -0.1266193,0.0873 -4.25e-4,4.6e-4 -7.96e-4,8.5e-4 -0.00135,0.002 -4.021e-4,4.5e-4 -9.294e-4,4.3e-4 -0.00135,8.4e-4 -0.038342,0.0331 -0.076692,0.0712 -0.1165776,0.11484 l -0.2999579,0.32835 c -0.025357,0.027 -0.047112,0.0454 -0.060251,0.054 l -4.368e-4,4.4e-4 c -0.010247,0.006 -0.017717,0.009 -0.023142,0.0101 -0.00626,4.4e-4 -0.014423,-2e-4 -0.027071,-0.004 h -4.633e-4 c -0.019357,-0.007 -0.040903,-0.0159 -0.065928,-0.0285 -0.047222,-0.0234 -0.077639,-0.0464 -0.090816,-0.0603 -0.010426,-0.0112 -0.013392,-0.017 -0.014406,-0.0332 -0.00101,-0.0167 0.0038,-0.0512 0.021394,-0.0987 0.018968,-0.0512 0.048345,-0.11859 0.088634,-0.19997 0.025296,-0.0511 0.051903,-0.1 0.079025,-0.14583 l 8.449e-4,-8.4e-4 4.36e-4,-8.4e-4 c 0.027189,-0.048 0.052351,-0.09 0.075535,-0.12575 l 4.361e-4,-4.4e-4 4.368e-4,-8.5e-4 c 0.027417,-0.0438 0.05399,-0.0851 0.079903,-0.12358 l 0.071607,-0.10605 z m 16.3623402,0.0314 -0.102164,0.0446 -2.165201,0.94747 0.241013,0.55099 0.7261,-0.31697 0.155,0.35497 c 0.02096,0.0479 0.04665,0.0962 0.07423,0.14189 v 0.002 c 0.03128,0.0499 0.06867,0.0944 0.110897,0.13536 l 0.0013,0.002 c 0.04475,0.0417 0.09601,0.0771 0.151944,0.1056 0.06112,0.0312 0.130219,0.0499 0.203028,0.0576 0.07449,0.008 0.152817,0.002 0.23752,-0.0131 0.08834,-0.0165 0.18216,-0.047 0.282496,-0.0908 0.09924,-0.0434 0.185447,-0.09 0.257169,-0.14189 l 0.0018,-0.002 c 0.06974,-0.0494 0.127947,-0.1028 0.173338,-0.16154 0.04489,-0.0573 0.07951,-0.11768 0.100426,-0.18164 0.01925,-0.0587 0.02955,-0.11944 0.03012,-0.1799 v -0.002 c 0.0011,-0.0599 -0.0062,-0.12027 -0.02183,-0.17814 -0.01447,-0.0534 -0.0325,-0.10426 -0.05415,-0.15369 z m -10.882321,0.2218 c 0.02698,0.003 0.05378,0.0117 0.07902,0.0258 0.10101,0.0565 0.136903,0.18323 0.08033,0.28424 l -0.204338,0.36458 c -0.05657,0.10101 -0.183232,0.1369 -0.28424,0.0803 -0.101009,-0.0565 -0.136902,-0.18323 -0.08033,-0.28424 l 0.204338,-0.36458 c 0.04242,-0.0758 0.124269,-0.11516 0.205212,-0.10606 z m 10.596769,0.56062 0.138848,0.31524 c 0.01734,0.0391 0.0184,0.0643 0.01659,0.0773 v 0.003 0.002 c -0.002,0.0213 -0.0085,0.0358 -0.0214,0.0528 v 0.002 l -0.0018,0.002 c -0.01404,0.02 -0.03369,0.0388 -0.06287,0.0576 -0.03405,0.0217 -0.07335,0.0426 -0.115703,0.0612 -0.0434,0.0191 -0.08233,0.0331 -0.120071,0.0427 h -0.0018 c -0.03225,0.009 -0.05805,0.0101 -0.08077,0.007 h -0.0018 c -0.0189,-0.002 -0.0346,-0.008 -0.05153,-0.0217 v -0.002 c -0.01099,-0.009 -0.02982,-0.0305 -0.0476,-0.0712 l -0.137097,-0.31524 z m -4.899313,0.34493 c -0.277447,-0.006 -0.575729,0.047 -0.843114,0.21438 -0.267386,0.16733 -0.481125,0.45165 -0.589438,0.80512 -2e-6,6.8e-4 -2e-6,8.5e-4 0,0.002 l -1.183239,3.92609 c -0.0041,0.0147 -0.0077,0.0295 -0.01054,0.0445 H 9.0389411 c -0.2170332,-1e-4 -0.4028048,0.15566 -0.4405496,0.36938 -0.078306,0.44672 -0.1190694,0.9035 -0.1205077,1.36139 0,6.7e-4 0,8.4e-4 0,0.002 0,1.50514 0.452309,2.59118 1.194156,3.63706 H 7.6265076 c -0.5964222,0 -0.5964222,0.89463 0,0.89463 h 9.7872784 c 0.596423,0 0.596423,-0.89463 0,-0.89463 h -0.596861 c 0.741631,-1.04586 1.19135,-2.13212 1.192412,-3.63706 0,-0.4605 -0.04204,-0.91779 -0.12051,-1.36313 -0.03774,-0.21373 -0.223515,-0.36947 -0.440548,-0.36938 h -0.16155 l 1.135214,-2.60923 c 3e-6,-8.5e-4 3e-6,-0.002 0,-0.003 0.233247,-0.54335 0.108475,-1.10866 -0.181634,-1.47053 -0.290117,-0.36188 -0.68998,-0.57425 -1.057496,-0.71476 -0.275609,-0.10527 -0.589615,-0.18841 -0.922577,-0.19429 z m -0.01659,0.8942 c 0.185914,0.003 0.415524,0.057 0.620436,0.13535 0.273132,0.10448 0.546009,0.27353 0.678509,0.4388 0.132484,0.16527 0.18004,0.27461 0.05762,0.55975 l -1.247425,2.86947 c -0.01335,0.0302 -0.02331,0.0619 -0.0297,0.0943 H 14.56525 l 1.119058,-3.71301 c 0.05682,-0.18355 0.125043,-0.25622 0.206084,-0.30695 0.08155,-0.051 0.198257,-0.0805 0.353227,-0.0778 z m -5.268697,0.0336 c -0.332319,0.0181 -0.640955,0.23304 -0.761028,0.56151 -0.1601,0.43791 0.06539,0.93932 0.505169,1.10245 0.439765,0.16313 0.935822,-0.0707 1.095917,-0.50865 0.160103,-0.43794 -0.06628,-0.94154 -0.506043,-1.10466 -0.109933,-0.0408 -0.223241,-0.0566 -0.334015,-0.0506 z m -1.9599874,0.16244 c -0.1897389,0.0101 -0.3669507,0.13035 -0.4357471,0.31829 l -0.1536901,0.42003 c -0.091727,0.25056 0.040138,0.5356 0.2903525,0.62829 l 0.4099861,0.15194 c 0.2502133,0.0927 0.5343851,-0.0385 0.6261129,-0.28903 l 0.1536898,-0.42003 c 0.091727,-0.25057 -0.040135,-0.53562 -0.2903515,-0.62831 l -0.4099865,-0.15194 c -0.062552,-0.0231 -0.1271191,-0.0324 -0.1903661,-0.0293 z m -0.1052233,0.12923 c 0.016993,-0.002 0.034152,9e-5 0.05108,0.006 l 0.025767,0.008 c 0.067719,0.0205 0.1013511,0.0899 0.075529,0.15586 l -0.092999,0.23797 c -0.025822,0.0659 -0.1012525,0.10269 -0.1689718,0.082 l -0.025767,-0.008 c -0.067719,-0.0205 -0.1013511,-0.0904 -0.075529,-0.15631 l 0.092999,-0.23752 c 0.019361,-0.0494 0.066922,-0.0826 0.1178868,-0.0873 z m 1.8189597,0.0493 a 0.22421685,0.2335592 0 0 1 0.223986,0.23359 0.22421685,0.2335592 0 0 1 -0.223986,0.2336 0.22421685,0.2335592 0 0 1 -0.224423,-0.2336 0.22421685,0.2335592 0 0 1 0.224423,-0.23359 z m 2.142058,0.28817 c -0.05687,0.002 -0.113883,0.0148 -0.1681,0.0401 l -0.318293,0.1493 c -0.216864,0.10157 -0.314934,0.36762 -0.215692,0.58551 l 0.14714,0.32268 c 0.09925,0.21789 0.362982,0.3163 0.579833,0.21481 l 0.318733,-0.14889 c 0.216847,-0.10146 0.315368,-0.36979 0.216126,-0.58768 l -0.14714,-0.32311 c -0.07444,-0.16343 -0.241966,-0.25833 -0.412607,-0.2528 z m -1.915888,1.38409 c -0.05625,0.002 -0.113032,0.0145 -0.166789,0.0397 l -0.313494,0.14716 c -0.215029,0.10067 -0.311908,0.36288 -0.213507,0.57896 l 0.145831,0.3196 c 0.0984,0.21607 0.357815,0.31198 0.572845,0.21133 l 0.31393,-0.14714 c 0.21503,-0.10068 0.313221,-0.36376 0.214817,-0.57984 l -0.14583,-0.31959 c -0.0738,-0.16207 -0.239067,-0.25585 -0.407803,-0.2502 z m 1.756522,0.34624 c -0.208707,0.0112 -0.402423,0.1452 -0.478099,0.35236 -0.100897,0.27616 0.04148,0.59076 0.317859,0.69334 0.276382,0.10258 0.585477,-0.0443 0.686367,-0.32047 0.100897,-0.27619 -0.03973,-0.59034 -0.316113,-0.69293 -0.0691,-0.0256 -0.140445,-0.0359 -0.210014,-0.0323 z m -0.07598,0.17639 a 0.16701866,0.17397777 0 0 1 0.166792,0.17422 0.16701866,0.17397777 0 0 1 -0.166792,0.17377 0.16701866,0.17397777 0 0 1 -0.167223,-0.17377 0.16701866,0.17397777 0 0 1 0.167223,-0.17422 z m -3.1890727,2.42239 h 7.5945707 c 0.03446,0.27799 0.07591,0.55607 0.07598,0.83654 -0.0011,1.43933 -0.400286,2.29798 -1.181931,3.33535 -0.06535,0.0871 -0.0967,0.19494 -0.08819,0.30345 h -5.204518 c 0.0084,-0.10852 -0.02314,-0.21647 -0.08863,-0.30345 -0.781256,-1.03716 -1.1811405,-1.89404 -1.1814934,-3.33185 v -0.002 c 9.293e-4,-0.28237 0.040426,-0.56025 0.074224,-0.83831 z"
       id="path1080"
       inkscape:connector-curvature="0" />
    <path
       style="color:#000000;font-style:normal;font-variant:normal;font-weight:normal;font-stretch:normal;font-size:medium;line-height:normal;font-family:sans-serif;font-variant-ligatures:normal;font-variant-position:normal;font-variant-caps:normal;font-variant-numeric:normal;font-variant-alternates:normal;font-feature-settings:normal;text-indent:0;text-align:start;text-decoration:none;text-decoration-line:none;text-decoration-style:solid;text-decoration-color:#000000;letter-spacing:normal;word-spacing:normal;text-transform:none;writing-mode:lr-tb;direction:ltr;text-orientation:mixed;dominant-baseline:auto;baseline-shift:baseline;text-anchor:start;white-space:normal;shape-padding:0;clip-rule:nonzero;display:inline;overflow:visible;visibility:visible;opacity:0.922;isolation:auto;mix-blend-mode:normal;color-interpolation:sRGB;color-interpolation-filters:linearRGB;solid-color:#000000;solid-opacity:1;vector-effect:none;fill:#000000;fill-opacity:1;fill-rule:nonzero;stroke:none;stroke-width:1.05833328;stroke-linecap:round;stroke-linejoin:round;stroke-miterlimit:4;stroke-dasharray:none;stroke-dashoffset:0;stroke-opacity:1;paint-order:stroke fill markers;color-rendering:auto;image-rendering:auto;shape-rendering:auto;text-rendering:auto;enable-background:accumulate"
       d="m 13.228331,270.8204 c -6.8755121,0 -12.43955961,5.81266 -12.43955614,12.94958 7.9e-7,7.13692 5.56404754,12.95125 12.43955614,12.95125 6.875508,0 12.441227,-5.81433 12.441228,-12.95125 3e-6,-7.13692 -5.565716,-12.94958 -12.441228,-12.94958 z m 0,0.90633 c 6.364965,0 11.534894,5.37604 11.534891,12.04325 -10e-7,6.66721 -5.16993,12.04491 -11.534891,12.04491 -6.3649622,0 -11.5332184,-5.3777 -11.5332192,-12.04491 -3.5e-6,-6.66721 5.1682544,-12.04325 11.5332192,-12.04325 z"
       id="ellipse1098"
       inkscape:connector-curvature="0" />
    <g
       transform="translate(-51.157058,1.175e-5)"
       id="g851">
      <g
         id="g847">
        <g
           id="g841">
          <path
             style="opacity:1;vector-effect:none;fill:#ececec;fill-opacity:1;stroke:none;stroke-width:0.29999998;stroke-linecap:round;stroke-linejoin:round;stroke-miterlimit:4;stroke-dasharray:none;stroke-dashoffset:0;stroke-opacity:1;paint-order:stroke fill markers"
             d="m 16.233346,280.95244 -1.591082,4.37381 1.680993,-0.12128 c 0.0064,-0.0324 0.01638,-0.0641 0.02973,-0.0944 l 1.247481,-2.86944 c 0.122409,-0.28514 0.07474,-0.39443 -0.05775,-0.55971 -0.132499,-0.16525 -0.405493,-0.33408 -0.678624,-0.43849 -0.125628,-0.0481 -0.502321,-0.26699 -0.630754,-0.29055 z m -5.354819,5.14669 c -0.586832,3.19244 6.203196,2.9109 -0.786712,4.47538 h 5.755203 c -0.0085,-0.10852 0.02269,-0.21595 0.08805,-0.303 0.781645,-1.03738 1.180615,-1.89606 1.181734,-3.33539 -6.8e-5,-0.28048 -0.04158,-0.55899 -0.07604,-0.83699 z"
             id="path839"
             inkscape:connector-curvature="0"
             sodipodi:nodetypes="ccccccccccccccc" />
        </g>
        <g
           id="g845">
          <path
             style="color:#000000;font-style:normal;font-variant:normal;font-weight:normal;font-stretch:normal;font-size:medium;line-height:normal;font-family:sans-serif;font-variant-ligatures:normal;font-variant-position:normal;font-variant-caps:normal;font-variant-numeric:normal;font-variant-alternates:normal;font-feature-settings:normal;text-indent:0;text-align:start;text-decoration:none;text-decoration-line:none;text-decoration-style:solid;text-decoration-color:#000000;letter-spacing:normal;word-spacing:normal;text-transform:none;writing-mode:lr-tb;direction:ltr;text-orientation:mixed;dominant-baseline:auto;baseline-shift:baseline;text-anchor:start;white-space:normal;shape-padding:0;clip-rule:nonzero;display:inline;overflow:visible;visibility:visible;opacity:1;isolation:auto;mix-blend-mode:normal;color-interpolation:sRGB;color-interpolation-filters:linearRGB;solid-color:#000000;solid-opacity:1;vector-effect:none;fill:#4d4d4d;fill-opacity:1;fill-rule:nonzero;stroke:none;stroke-width:1.05833328;stroke-linecap:round;stroke-linejoin:round;stroke-miterlimit:4;stroke-dasharray:none;stroke-dashoffset:0;stroke-opacity:1;paint-order:stroke fill markers;color-rendering:auto;image-rendering:auto;shape-rendering:auto;text-rendering:auto;enable-background:accumulate"
             d="m 14.048754,274.21936 -0.0179,0.11087 -0.379423,2.33154 1.584058,0.25761 0.09257,-0.5676 -0.988508,-0.16023 0.0607,-0.38291 0.807311,0.13185 0.09082,-0.56237 -0.807311,-0.13056 0.05938,-0.36282 0.962311,0.15499 0.09257,-0.56759 z m -2.014566,0.0821 v 4.4e-4 c -0.05962,-0.002 -0.12861,8.4e-4 -0.209578,0.007 -0.08502,0.006 -0.180671,0.0207 -0.287295,0.0428 -0.0688,0.0142 -0.138546,0.0362 -0.207832,0.0659 -0.07293,0.0301 -0.1404,0.0714 -0.204776,0.12225 -0.06665,0.0527 -0.12626,0.11672 -0.17814,0.19123 -0.05482,0.0775 -0.09668,0.1687 -0.12531,0.27071 -0.02915,0.10392 -0.04262,0.22017 -0.04454,0.34842 -0.0022,0.13029 0.01293,0.27371 0.04585,0.43225 0.034,0.16379 0.07628,0.307 0.127056,0.42921 0.05,0.12033 0.107074,0.22265 0.172028,0.30999 v 0.002 c 0.0639,0.0851 0.1344,0.15441 0.212634,0.20783 v 0.002 c 0.07478,0.0501 0.154468,0.0872 0.236212,0.11054 0.08076,0.0224 0.164147,0.0326 0.247563,0.0314 0.08062,-0.002 0.15959,-0.0101 0.237521,-0.0262 l 0.08907,-0.0184 v -0.007 c 0.06728,-0.0164 0.137446,-0.0316 0.192986,-0.0511 0.078,-0.0261 0.143827,-0.0521 0.199535,-0.0778 v 0.002 c 0.06358,-0.0284 0.118405,-0.0582 0.166789,-0.0908 l 0.06287,-0.0427 -0.09562,-0.45714 -0.115705,0.0349 c -0.03573,0.0112 -0.07701,0.0219 -0.122253,0.0345 l 0.0018,-0.002 c -0.03798,0.0101 -0.08359,0.0226 -0.138408,0.0363 -0.05358,0.0131 -0.114753,0.0258 -0.181635,0.0397 -0.04962,0.0101 -0.09973,0.0198 -0.150197,0.0262 l 0.0035,-0.002 c -0.04357,0.006 -0.08712,0.004 -0.128804,-0.002 -0.03945,-0.007 -0.07768,-0.0189 -0.115704,-0.0397 -0.03252,-0.0177 -0.06928,-0.0471 -0.105662,-0.0926 -0.03482,-0.0435 -0.06878,-0.10639 -0.102175,-0.18643 -0.03256,-0.078 -0.06359,-0.17772 -0.08907,-0.3004 -0.02404,-0.11592 -0.03497,-0.21499 -0.03623,-0.29384 v -0.002 c -7.7e-5,-0.0805 0.0073,-0.14595 0.0214,-0.19474 0.01557,-0.0528 0.03661,-0.0917 0.05937,-0.11919 0.0268,-0.0324 0.05461,-0.0559 0.08732,-0.0756 l 0.0018,-0.002 c 0.03637,-0.0223 0.07448,-0.039 0.115704,-0.0511 0.04891,-0.0141 0.09876,-0.0263 0.14845,-0.0368 0.05574,-0.0117 0.108991,-0.0223 0.159804,-0.0297 h 0.0018 c 0.05303,-0.009 0.09988,-0.0167 0.140591,-0.0231 0.04877,-0.007 0.09416,-0.0122 0.136663,-0.0179 l 0.11876,-0.0166 -0.09387,-0.45364 -0.07248,-0.0148 c -0.0542,-0.0113 -0.114254,-0.0195 -0.181634,-0.0217 z m -2.9375807,0.91647 -0.5296197,0.28554 0.052828,0.0991 1.1221144,2.0792 0.529621,-0.2873 z m 9.9278697,0.94397 -0.07771,0.0807 -1.069282,1.09897 c -0.09698,0.0998 -0.17238,0.20039 -0.224422,0.30388 -0.05215,0.10448 -0.07854,0.2155 -0.07423,0.32659 0.0052,0.11221 0.04097,0.22427 0.102175,0.33184 0.06048,0.1083 0.148289,0.21559 0.260661,0.32484 0.112717,0.10953 0.222018,0.19255 0.331832,0.24931 0.109787,0.0569 0.221567,0.0893 0.33314,0.0908 h 0.0018 c 0.112018,2.1e-4 0.222311,-0.0305 0.325283,-0.0873 0.101424,-0.0548 0.199834,-0.13287 0.296903,-0.23271 l 1.142196,-1.17495 -0.429197,-0.41784 -1.126917,1.15879 c -0.05681,0.0584 -0.10657,0.0967 -0.145395,0.117 l -0.0018,0.002 c -0.03835,0.0208 -0.06838,0.0272 -0.09562,0.0262 -0.02952,-0.002 -0.06213,-0.0112 -0.09912,-0.0327 h -0.0018 c -0.03926,-0.0241 -0.08414,-0.0611 -0.133604,-0.10919 -0.05562,-0.054 -0.09577,-0.10224 -0.122255,-0.14189 l -0.0013,-0.002 c -0.02268,-0.0362 -0.03269,-0.0669 -0.03492,-0.0939 -3.2e-5,-4.4e-4 3.1e-5,-8.4e-4 0,-0.002 -6.69e-4,-0.0247 0.0061,-0.0518 0.02663,-0.089 0.02193,-0.0397 0.06104,-0.0926 0.118761,-0.15196 l 1.126919,-1.15834 z m -11.7974772,0.46499 v 4.4e-4 c -0.062887,0.003 -0.1241716,0.016 -0.1816341,0.0381 -0.056381,0.0204 -0.1083186,0.0483 -0.1567462,0.0839 -0.044603,0.0326 -0.086888,0.0676 -0.1253107,0.10561 l -0.7130005,0.70644 0.077714,0.079 1.6617764,1.68012 0.428762,-0.42265 -0.5575645,-0.56279 0.275507,-0.27378 c 0.037193,-0.0368 0.072831,-0.0765 0.1056616,-0.11876 l 0.00177,-0.002 c 0.035292,-0.047 0.064267,-0.0978 0.087323,-0.15195 v -0.002 c 0.022934,-0.0567 0.038058,-0.11735 0.044542,-0.17988 0.00709,-0.0682 0.0011,-0.13891 -0.0179,-0.20959 -0.019472,-0.0723 -0.052496,-0.14393 -0.097369,-0.21744 h -0.00177 c -0.047074,-0.0766 -0.1094095,-0.15353 -0.1864386,-0.2314 -0.076423,-0.0772 -0.1500199,-0.13939 -0.2244228,-0.18774 h -0.00177 c -0.071454,-0.0474 -0.1417964,-0.0844 -0.2130705,-0.1056 h -0.00177 c -0.069165,-0.0212 -0.1374688,-0.0321 -0.2043386,-0.0285 z m -0.031438,0.63223 h 0.00177 c 0.02065,-0.006 0.037049,-0.006 0.057631,0 l 0.00177,0.002 h 0.00177 c 0.023658,0.006 0.049749,0.0175 0.077714,0.0381 0.032613,0.024 0.064856,0.0531 0.097367,0.086 0.033298,0.0336 0.061257,0.0656 0.083832,0.0973 0.01934,0.0272 0.029868,0.0518 0.034928,0.0742 v 0.002 h 0.00177 c 0.00464,0.0186 0.00304,0.0334 -0.00346,0.0543 v 0.002 c -0.00397,0.0133 -0.017794,0.0382 -0.049335,0.0695 l -0.2445074,0.24276 -0.3746202,-0.37985 0.2445073,-0.24101 c 0.030569,-0.0302 0.05448,-0.0414 0.067678,-0.0445 z m 3.4842272,1.77836 c -0.228496,0.0145 -0.447754,0.13704 -0.569789,0.34581 l -0.2257323,0.38596 c -0.1952583,0.334 -0.078621,0.78063 0.2541133,0.97803 l 0.37593,0.22312 c 0.332745,0.19737 0.777094,0.0838 0.972353,-0.25019 l 0.225733,-0.38641 c 0.195255,-0.334 0.0782,-0.78019 -0.254551,-0.97759 l -0.375929,-0.22312 c -0.12478,-0.074 -0.265029,-0.10437 -0.402128,-0.0956 z m -5.5970318,0.017 -0.05676,0.0581 c -0.040842,0.0417 -0.082455,0.0888 -0.1248728,0.14192 v 4.3e-4 c -0.036712,0.0462 -0.075864,0.10068 -0.118324,0.16461 l -4.368e-4,4.3e-4 c -2.02e-4,2.3e-4 -2.13e-4,6.5e-4 -4.369e-4,8.4e-4 -0.045346,0.0663 -0.088309,0.14085 -0.1296762,0.22442 -0.05148,0.10403 -0.087386,0.20722 -0.1056616,0.3087 -0.01852,0.1028 -0.016738,0.20364 0.00702,0.29908 v 4.4e-4 4.3e-4 c 0.02462,0.0957 0.073296,0.18434 0.1419021,0.26241 0.069875,0.0801 0.1614568,0.14524 0.2711407,0.19954 0.089506,0.0444 0.1725758,0.078 0.251057,0.0996 h 8.45e-4 l 8.448e-4,4.4e-4 c 0.078804,0.0204 0.1552839,0.0286 0.2287886,0.0213 h 4.368e-4 8.448e-4 c 0.074436,-0.009 0.1452758,-0.0327 0.2095779,-0.0712 l 8.449e-4,-4.4e-4 4.368e-4,-4.4e-4 c 0.062632,-0.0386 0.1205799,-0.0904 0.1755211,-0.15369 l 0.3113102,-0.35802 c 0.023751,-0.0274 0.043039,-0.0414 0.052832,-0.0464 l 0.00127,-8.5e-4 0.00135,-8.4e-4 c 0.01313,-0.007 0.024156,-0.0101 0.035368,-0.0101 0.0127,-4.4e-4 0.02626,6.6e-4 0.044974,0.009 l 0.00177,8.4e-4 0.0022,4.4e-4 c 0.025103,0.009 0.053482,0.0206 0.084271,0.0359 v -4.5e-4 c 0.037886,0.0188 0.066705,0.0381 0.087761,0.0558 l 0.00127,8.6e-4 8.45e-4,8.4e-4 c 0.011212,0.009 0.016535,0.017 0.020962,0.0349 0.00313,0.0152 0.00313,0.0482 -0.00827,0.0965 -1.023e-4,4.3e-4 1.047e-4,4.2e-4 0,8.4e-4 -0.012243,0.047 -0.03923,0.11601 -0.082083,0.20259 -0.033265,0.0673 -0.066697,0.13051 -0.09955,0.18992 -0.032604,0.0589 -0.062118,0.11043 -0.08907,0.15369 l -4.369e-4,4.4e-4 -4.368e-4,8.4e-4 c -0.031177,0.0516 -0.061898,0.0986 -0.091252,0.1419 l -0.071607,0.10606 0.4204652,0.20871 0.053271,-0.0345 c 0.045279,-0.0295 0.087587,-0.0689 0.1318595,-0.11877 h 4.367e-4 c 0.039653,-0.0448 0.081222,-0.10134 0.127493,-0.17028 0.050686,-0.0738 0.1027861,-0.16602 0.1584937,-0.27855 0.072501,-0.14647 0.1212168,-0.27418 0.1445211,-0.38859 0.024595,-0.11422 0.026024,-0.22195 -0.00397,-0.31963 l -4.368e-4,-4.3e-4 v -4.4e-4 c -0.030509,-0.0962 -0.090278,-0.18138 -0.1720281,-0.24888 -0.077021,-0.0646 -0.1717115,-0.12353 -0.2846769,-0.17942 -0.071488,-0.0354 -0.1371098,-0.0642 -0.197352,-0.0864 H 6.416951 c -0.060563,-0.0223 -0.1172654,-0.0383 -0.1711546,-0.0466 h -8.45e-4 c -0.055148,-0.009 -0.1093769,-0.0101 -0.1615495,-4.3e-4 H 6.082565 c -0.049326,0.008 -0.096728,0.0238 -0.1410284,0.0467 -0.044636,0.0221 -0.087017,0.0516 -0.1266193,0.0873 -4.25e-4,4.6e-4 -7.96e-4,8.5e-4 -0.00135,0.002 -4.021e-4,4.5e-4 -9.294e-4,4.3e-4 -0.00135,8.4e-4 -0.038342,0.0331 -0.076692,0.0712 -0.1165776,0.11484 l -0.2999579,0.32835 c -0.025357,0.027 -0.047112,0.0454 -0.060251,0.054 l -4.368e-4,4.4e-4 c -0.010247,0.006 -0.017717,0.009 -0.023142,0.0101 -0.00626,4.4e-4 -0.014423,-2e-4 -0.027071,-0.004 h -4.633e-4 c -0.019357,-0.007 -0.040903,-0.0159 -0.065928,-0.0285 -0.047222,-0.0234 -0.077639,-0.0464 -0.090816,-0.0603 -0.010426,-0.0112 -0.013392,-0.017 -0.014406,-0.0332 -0.00101,-0.0167 0.0038,-0.0512 0.021394,-0.0987 0.018968,-0.0512 0.048345,-0.11859 0.088634,-0.19997 0.025296,-0.0511 0.051903,-0.1 0.079025,-0.14583 l 8.449e-4,-8.4e-4 4.36e-4,-8.4e-4 c 0.027189,-0.048 0.052351,-0.09 0.075535,-0.12575 l 4.361e-4,-4.4e-4 4.368e-4,-8.5e-4 c 0.027417,-0.0438 0.05399,-0.0851 0.079903,-0.12358 l 0.071607,-0.10605 z m 16.3623398,0.0314 -0.102164,0.0446 -2.165201,0.94747 0.241013,0.55099 0.7261,-0.31697 0.155,0.35497 c 0.02096,0.0479 0.04665,0.0962 0.07423,0.14189 v 0.002 c 0.03128,0.0499 0.06867,0.0944 0.110897,0.13536 l 0.0013,0.002 c 0.04475,0.0417 0.09601,0.0771 0.151944,0.1056 0.06112,0.0312 0.130219,0.0499 0.203028,0.0576 0.07449,0.008 0.152817,0.002 0.23752,-0.0131 0.08834,-0.0165 0.18216,-0.047 0.282496,-0.0908 0.09924,-0.0434 0.185447,-0.09 0.257169,-0.14189 l 0.0018,-0.002 c 0.06974,-0.0494 0.127947,-0.1028 0.173338,-0.16154 0.04489,-0.0573 0.07951,-0.11768 0.100426,-0.18164 0.01925,-0.0587 0.02955,-0.11944 0.03012,-0.1799 v -0.002 c 0.0011,-0.0599 -0.0062,-0.12027 -0.02183,-0.17814 -0.01447,-0.0534 -0.0325,-0.10426 -0.05415,-0.15369 z m -10.882321,0.2218 c 0.02698,0.003 0.05378,0.0117 0.07902,0.0258 0.10101,0.0565 0.136903,0.18323 0.08033,0.28424 l -0.204338,0.36458 c -0.05657,0.10101 -0.183232,0.1369 -0.28424,0.0803 -0.101009,-0.0565 -0.136902,-0.18323 -0.08033,-0.28424 l 0.204338,-0.36458 c 0.04242,-0.0758 0.124269,-0.11516 0.205212,-0.10606 z m 10.596769,0.56062 0.138848,0.31524 c 0.01734,0.0391 0.0184,0.0643 0.01659,0.0773 v 0.003 0.002 c -0.002,0.0213 -0.0085,0.0358 -0.0214,0.0528 v 0.002 l -0.0018,0.002 c -0.01404,0.02 -0.03369,0.0388 -0.06287,0.0576 -0.03405,0.0217 -0.07335,0.0426 -0.115703,0.0612 -0.0434,0.0191 -0.08233,0.0331 -0.120071,0.0427 h -0.0018 c -0.03225,0.009 -0.05805,0.0101 -0.08077,0.007 h -0.0018 c -0.0189,-0.002 -0.0346,-0.008 -0.05153,-0.0217 v -0.002 c -0.01099,-0.009 -0.02982,-0.0305 -0.0476,-0.0712 L 20.672542,280.081 Z m -4.899313,0.34493 c -0.277447,-0.006 -0.575729,0.047 -0.843114,0.21438 -0.267386,0.16733 -0.481125,0.45165 -0.589438,0.80512 -2e-6,6.8e-4 -2e-6,8.5e-4 0,0.002 l -1.183239,3.92609 c -0.0041,0.0147 -0.0077,0.0295 -0.01054,0.0445 H 9.0389405 c -0.2170332,-10e-5 -0.4028048,0.15566 -0.4405496,0.36938 -0.078306,0.44672 -0.1190694,0.9035 -0.1205077,1.36139 0,6.7e-4 0,8.4e-4 0,0.002 0,1.50514 0.452309,2.59118 1.194156,3.63706 H 7.626507 c -0.5964222,0 -0.5964222,0.89463 0,0.89463 h 9.787278 c 0.596423,0 0.596423,-0.89463 0,-0.89463 h -0.596861 c 0.741631,-1.04586 1.19135,-2.13212 1.192412,-3.63706 0,-0.4605 -0.04204,-0.91779 -0.12051,-1.36313 -0.03774,-0.21373 -0.223515,-0.36947 -0.440548,-0.36938 h -0.16155 l 1.135214,-2.60923 c 3e-6,-8.5e-4 3e-6,-0.002 0,-0.003 0.233247,-0.54335 0.108475,-1.10866 -0.181634,-1.47053 -0.290117,-0.36188 -0.68998,-0.57425 -1.057496,-0.71476 -0.275609,-0.10527 -0.589615,-0.18841 -0.922577,-0.19429 z m -0.01659,0.8942 c 0.185914,0.003 0.415524,0.057 0.620436,0.13535 0.273132,0.10448 0.546009,0.27353 0.678509,0.4388 0.132484,0.16527 0.18004,0.27461 0.05762,0.55975 l -1.247425,2.86947 c -0.01335,0.0302 -0.02331,0.0619 -0.0297,0.0943 h -1.757833 l 1.119058,-3.71301 c 0.05682,-0.18355 0.125043,-0.25622 0.206084,-0.30695 0.08155,-0.051 0.198257,-0.0805 0.353227,-0.0778 z m -5.268697,0.0336 c -0.332319,0.0181 -0.640955,0.23304 -0.761028,0.56151 -0.1601,0.43791 0.06539,0.93932 0.505169,1.10245 0.439765,0.16313 0.935822,-0.0707 1.095917,-0.50865 0.160103,-0.43794 -0.06628,-0.94154 -0.506043,-1.10466 -0.109933,-0.0408 -0.223241,-0.0566 -0.334015,-0.0506 z m -1.959987,0.16244 c -0.1897389,0.0101 -0.3669507,0.13035 -0.4357471,0.31829 l -0.1536901,0.42003 c -0.091727,0.25056 0.040138,0.5356 0.2903525,0.62829 l 0.4099861,0.15194 c 0.2502133,0.0927 0.5343851,-0.0385 0.6261129,-0.28903 l 0.1536898,-0.42003 c 0.091727,-0.25057 -0.040135,-0.53562 -0.2903515,-0.62831 l -0.4099865,-0.15194 c -0.062552,-0.0231 -0.1271191,-0.0324 -0.1903661,-0.0293 z m -0.1052233,0.12923 c 0.016993,-0.002 0.034152,9e-5 0.05108,0.006 l 0.025767,0.008 c 0.067719,0.0205 0.1013511,0.0899 0.075529,0.15586 l -0.092999,0.23797 c -0.025822,0.0659 -0.1012525,0.10269 -0.1689718,0.082 l -0.025767,-0.008 c -0.067719,-0.0205 -0.1013511,-0.0904 -0.075529,-0.15631 l 0.092999,-0.23752 c 0.019361,-0.0494 0.066922,-0.0826 0.1178868,-0.0873 z m 1.8189593,0.0493 a 0.22421685,0.2335592 0 0 1 0.223986,0.23359 0.22421685,0.2335592 0 0 1 -0.223986,0.2336 0.22421685,0.2335592 0 0 1 -0.224423,-0.2336 0.22421685,0.2335592 0 0 1 0.224423,-0.23359 z m 2.142058,0.28817 c -0.05687,0.002 -0.113883,0.0148 -0.1681,0.0401 l -0.318293,0.1493 c -0.216864,0.10157 -0.314934,0.36762 -0.215692,0.58551 l 0.14714,0.32268 c 0.09925,0.21789 0.362982,0.3163 0.579833,0.21481 l 0.318733,-0.14889 c 0.216847,-0.10146 0.315368,-0.36979 0.216126,-0.58768 l -0.14714,-0.32311 c -0.07444,-0.16343 -0.241966,-0.25833 -0.412607,-0.2528 z m -1.915888,1.38409 c -0.05625,0.002 -0.113032,0.0145 -0.166789,0.0397 l -0.313494,0.14716 c -0.215029,0.10067 -0.311908,0.36288 -0.213507,0.57896 l 0.145831,0.3196 c 0.0984,0.21607 0.357815,0.31198 0.572845,0.21133 l 0.31393,-0.14714 c 0.21503,-0.10068 0.313221,-0.36376 0.214817,-0.57984 l -0.14583,-0.31959 c -0.0738,-0.16207 -0.239067,-0.25585 -0.407803,-0.2502 z m 1.756522,0.34624 c -0.208707,0.0112 -0.402423,0.1452 -0.478099,0.35236 -0.100897,0.27616 0.04148,0.59076 0.317859,0.69334 0.276382,0.10258 0.585477,-0.0443 0.686367,-0.32047 0.100897,-0.27619 -0.03973,-0.59034 -0.316113,-0.69293 -0.0691,-0.0256 -0.140445,-0.0359 -0.210014,-0.0323 z m -0.07598,0.17639 a 0.16701866,0.17397777 0 0 1 0.166792,0.17422 0.16701866,0.17397777 0 0 1 -0.166792,0.17377 0.16701866,0.17397777 0 0 1 -0.167223,-0.17377 0.16701866,0.17397777 0 0 1 0.167223,-0.17422 z m -3.1890723,2.42239 h 7.5945703 c 0.03446,0.27799 0.07591,0.55607 0.07598,0.83654 -0.0011,1.43933 -0.400286,2.29798 -1.181931,3.33535 -0.06535,0.0871 -0.0967,0.19494 -0.08819,0.30345 h -5.204518 c 0.0084,-0.10852 -0.02314,-0.21647 -0.08863,-0.30345 -0.7812556,-1.03716 -1.1811401,-1.89404 -1.181493,-3.33185 v -0.002 c 9.293e-4,-0.28237 0.040426,-0.56025 0.074224,-0.83831 z"
             id="path843"
             inkscape:connector-curvature="0" />
        </g>
      </g>
      <path
         style="color:#000000;font-style:normal;font-variant:normal;font-weight:normal;font-stretch:normal;font-size:medium;line-height:normal;font-family:sans-serif;font-variant-ligatures:normal;font-variant-position:normal;font-variant-caps:normal;font-variant-numeric:normal;font-variant-alternates:normal;font-feature-settings:normal;text-indent:0;text-align:start;text-decoration:none;text-decoration-line:none;text-decoration-style:solid;text-decoration-color:#000000;letter-spacing:normal;word-spacing:normal;text-transform:none;writing-mode:lr-tb;direction:ltr;text-orientation:mixed;dominant-baseline:auto;baseline-shift:baseline;text-anchor:start;white-space:normal;shape-padding:0;clip-rule:nonzero;display:inline;overflow:visible;visibility:visible;opacity:0.922;isolation:auto;mix-blend-mode:normal;color-interpolation:sRGB;color-interpolation-filters:linearRGB;solid-color:#000000;solid-opacity:1;vector-effect:none;fill:#000000;fill-opacity:1;fill-rule:nonzero;stroke:none;stroke-width:1.05833328;stroke-linecap:round;stroke-linejoin:round;stroke-miterlimit:4;stroke-dasharray:none;stroke-dashoffset:0;stroke-opacity:1;paint-order:stroke fill markers;color-rendering:auto;image-rendering:auto;shape-rendering:auto;text-rendering:auto;enable-background:accumulate"
         d="m 13.22833,270.82039 c -6.8755117,0 -12.43955926,5.81266 -12.43955579,12.94958 7.9e-7,7.13692 5.56404759,12.95125 12.43955579,12.95125 6.875508,0 12.441227,-5.81433 12.441228,-12.95125 3e-6,-7.13692 -5.565716,-12.94958 -12.441228,-12.94958 z m 0,0.90633 c 6.364965,0 11.534894,5.37604 11.534891,12.04325 -1e-6,6.66721 -5.16993,12.04491 -11.534891,12.04491 -6.3649618,0 -11.533218,-5.3777 -11.5332188,-12.04491 -3.5e-6,-6.66721 5.1682544,-12.04325 11.5332188,-12.04325 z"
         id="path849"
         inkscape:connector-curvature="0" />
    </g>
    <ellipse
       style="opacity:1;vector-effect:none;fill:#ffffff;fill-opacity:1;stroke:none;stroke-width:0.30032444;stroke-linecap:round;stroke-linejoin:round;stroke-miterlimit:4;stroke-dasharray:none;stroke-dashoffset:0;stroke-opacity:1;paint-order:stroke fill markers"
       id="path865"
       cx="132.62701"
       cy="247.32303"
       rx="0.8020128"
       ry="1.2349471"
       transform="matrix(0.88260856,0.47010864,-0.41112364,0.91157959,0,0)" />
    <text
       xml:space="preserve"
       style="font-style:normal;font-variant:normal;font-weight:300;font-stretch:normal;font-size:3.67150235px;line-height:167.69000292%;font-family:'Averia Serif Libre';-inkscape-font-specification:'Averia Serif Libre, Light';font-variant-ligatures:normal;font-variant-caps:normal;font-variant-numeric:normal;font-feature-settings:normal;text-align:start;letter-spacing:0.00983438px;word-spacing:0px;writing-mode:lr-tb;text-anchor:start;fill:#000000;fill-opacity:1;stroke:none;stroke-width:0.26458332"
       x="8.9112892"
       y="294.37039"
       id="text870"><tspan
         sodipodi:role="line"
         id="tspan868"
         x="8.9112892"
         y="294.37039"
         style="font-style:normal;font-variant:normal;font-weight:300;font-stretch:normal;font-size:3.67150235px;font-family:'Averia Serif Libre';-inkscape-font-specification:'Averia Serif Libre, Light';font-variant-ligatures:normal;font-variant-caps:normal;font-variant-numeric:normal;font-feature-settings:normal;text-align:start;writing-mode:lr-tb;text-anchor:start;stroke-width:0.26458332">2020</tspan></text>
  </g>
</svg>
