<?xml version="1.0" encoding="UTF-8" standalone="no"?>
<!-- Created with Inkscape (http://www.inkscape.org/) -->

<svg
   width="100"
   height="100"
   viewBox="0 0 26.458333 26.458334"
   version="1.1"
   id="svg8"
   inkscape:version="1.1 (c68e22c387, 2021-05-23)"
   sodipodi:docname="spiceUp-9.svg"
   xmlns:inkscape="http://www.inkscape.org/namespaces/inkscape"
   xmlns:sodipodi="http://sodipodi.sourceforge.net/DTD/sodipodi-0.dtd"
   xmlns="http://www.w3.org/2000/svg"
   xmlns:svg="http://www.w3.org/2000/svg"
   xmlns:rdf="http://www.w3.org/1999/02/22-rdf-syntax-ns#"
   xmlns:cc="http://creativecommons.org/ns#"
   xmlns:dc="http://purl.org/dc/elements/1.1/">
  <defs
     id="defs2" />
  <sodipodi:namedview
     id="base"
     pagecolor="#ffffff"
     bordercolor="#666666"
     borderopacity="1.0"
     inkscape:pageopacity="0.0"
     inkscape:pageshadow="2"
     inkscape:zoom="1.28"
     inkscape:cx="-7.421875"
     inkscape:cy="39.453125"
     inkscape:document-units="px"
     inkscape:current-layer="layer1"
     showgrid="false"
     inkscape:window-width="1366"
     inkscape:window-height="705"
     inkscape:window-x="-8"
     inkscape:window-y="-8"
     inkscape:window-maximized="1"
     inkscape:snap-global="false"
     showguides="false"
     units="px"
     inkscape:pagecheckerboard="0" />
  <metadata
     id="metadata5">
    <rdf:RDF>
      <cc:Work
         rdf:about="">
        <dc:format>image/svg+xml</dc:format>
        <dc:type
           rdf:resource="http://purl.org/dc/dcmitype/StillImage" />
      </cc:Work>
    </rdf:RDF>
  </metadata>
  <g
     inkscape:label="Layer 1"
     inkscape:groupmode="layer"
     id="layer1"
     transform="translate(0,-270.54165)">
    <g
       id="g21184">
      <path
         id="rect1229"
         style="opacity:1;vector-effect:none;fill:#ececec;fill-opacity:1;stroke:none;stroke-width:1.13386;stroke-linecap:round;stroke-linejoin:round;stroke-miterlimit:4;stroke-dasharray:none;stroke-dashoffset:0;stroke-opacity:1;paint-order:stroke fill markers"
         d="M 61.353516 37.689453 L 61.353516 37.691406 L 55.341797 54.220703 L 61.693359 53.763672 C 61.717548 53.641215 61.756184 53.52077 61.806641 53.40625 L 66.521484 42.560547 C 66.984133 41.482852 66.803484 41.069993 66.302734 40.445312 C 65.801951 39.820746 64.770587 39.183683 63.738281 38.789062 C 63.263467 38.607267 61.838932 37.778499 61.353516 37.689453 z M 41.115234 57.142578 C 38.897287 69.208493 64.561128 68.143645 38.142578 74.056641 L 59.894531 74.056641 C 59.862405 73.646486 59.979533 73.241117 60.226562 72.912109 C 63.180811 68.991303 64.68913 65.746628 64.693359 60.306641 C 64.693102 59.246559 64.536493 58.193287 64.40625 57.142578 L 41.115234 57.142578 z M 58.429688 58.777344 A 3.0199623 4.6748144 21.561811 0 1 59.435547 59.009766 A 3.0199623 4.6748144 21.561811 0 1 60.191406 64.689453 A 3.0199623 4.6748144 21.561811 0 1 55.597656 67.519531 A 3.0199623 4.6748144 21.561811 0 1 54.841797 61.839844 A 3.0199623 4.6748144 21.561811 0 1 58.429688 58.777344 z "
         transform="matrix(0.26458333,0,0,0.26458333,0,270.54165)" />
      <path
         id="path1080"
         style="color:#000000;font-style:normal;font-variant:normal;font-weight:normal;font-stretch:normal;font-size:medium;line-height:normal;font-family:sans-serif;font-variant-ligatures:normal;font-variant-position:normal;font-variant-caps:normal;font-variant-numeric:normal;font-variant-alternates:normal;font-feature-settings:normal;text-indent:0;text-align:start;text-decoration:none;text-decoration-line:none;text-decoration-style:solid;text-decoration-color:#000000;letter-spacing:normal;word-spacing:normal;text-transform:none;writing-mode:lr-tb;direction:ltr;text-orientation:mixed;dominant-baseline:auto;baseline-shift:baseline;text-anchor:start;white-space:normal;shape-padding:0;clip-rule:nonzero;display:inline;overflow:visible;visibility:visible;opacity:1;isolation:auto;mix-blend-mode:normal;color-interpolation:sRGB;color-interpolation-filters:linearRGB;solid-color:#000000;solid-opacity:1;vector-effect:none;fill:#4d4d4d;fill-opacity:1;fill-rule:nonzero;stroke:none;stroke-width:4;stroke-linecap:round;stroke-linejoin:round;stroke-miterlimit:4;stroke-dasharray:none;stroke-dashoffset:0;stroke-opacity:1;paint-order:stroke fill markers;color-rendering:auto;image-rendering:auto;shape-rendering:auto;text-rendering:auto;enable-background:accumulate"
         d="M 53.097656 12.242188 L 53.029297 12.662109 L 51.595703 21.474609 L 57.582031 22.447266 L 57.933594 20.302734 L 54.197266 19.697266 L 54.425781 18.25 L 57.476562 18.748047 L 57.820312 16.623047 L 54.769531 16.128906 L 54.994141 14.757812 L 58.630859 15.34375 L 58.980469 13.197266 L 53.097656 12.242188 z M 45.484375 12.546875 L 45.484375 12.552734 L 45.484375 12.554688 C 45.25904 12.547128 44.997427 12.558749 44.691406 12.582031 C 44.370071 12.604708 44.008457 12.65866 43.605469 12.742188 C 43.345437 12.795852 43.082181 12.879936 42.820312 12.992188 C 42.544677 13.105946 42.290186 13.260936 42.046875 13.453125 C 41.794969 13.652306 41.569129 13.896122 41.373047 14.177734 C 41.165853 14.470648 41.00664 14.813669 40.898438 15.199219 C 40.788264 15.591987 40.737725 16.032854 40.730469 16.517578 C 40.722154 17.010013 40.779875 17.551184 40.904297 18.150391 C 41.032801 18.769439 41.192856 19.311541 41.384766 19.773438 C 41.573742 20.228223 41.789661 20.615214 42.035156 20.945312 L 42.035156 20.951172 C 42.276668 21.27281 42.542203 21.536379 42.837891 21.738281 L 42.837891 21.744141 C 43.120524 21.933495 43.421515 22.073895 43.730469 22.162109 C 44.035703 22.246771 44.350743 22.285785 44.666016 22.28125 C 44.970721 22.273691 45.269911 22.242491 45.564453 22.181641 L 45.900391 22.113281 L 45.900391 22.085938 C 46.154677 22.023953 46.420944 21.966279 46.630859 21.892578 C 46.925663 21.793932 47.174216 21.696743 47.384766 21.599609 L 47.384766 21.607422 C 47.625068 21.500083 47.832756 21.386884 48.015625 21.263672 L 48.251953 21.101562 L 47.890625 19.375 L 47.453125 19.505859 C 47.318082 19.54819 47.16318 19.589097 46.992188 19.636719 L 46.998047 19.628906 C 46.8545 19.667079 46.681796 19.713845 46.474609 19.765625 C 46.272102 19.815137 46.041845 19.86348 45.789062 19.916016 C 45.601527 19.954189 45.411445 19.991436 45.220703 20.015625 L 45.234375 20.007812 C 45.069701 20.03049 44.905593 20.022677 44.748047 20 C 44.598945 19.973543 44.45426 19.928224 44.310547 19.849609 C 44.187637 19.782712 44.047663 19.671969 43.910156 19.5 C 43.778553 19.335591 43.651608 19.097435 43.525391 18.794922 C 43.402329 18.500119 43.283802 18.123829 43.1875 17.660156 C 43.09664 17.222033 43.055543 16.846844 43.050781 16.548828 L 43.050781 16.542969 C 43.05049 16.238717 43.079526 15.991044 43.132812 15.806641 C 43.19166 15.607082 43.2714 15.459368 43.357422 15.355469 C 43.458713 15.233012 43.563872 15.144769 43.6875 15.070312 L 43.693359 15.0625 C 43.830821 14.978217 43.975052 14.914873 44.130859 14.869141 C 44.315716 14.815849 44.503602 14.770154 44.691406 14.730469 C 44.902077 14.686248 45.102873 14.645151 45.294922 14.617188 L 45.302734 14.617188 C 45.503163 14.583172 45.680116 14.555439 45.833984 14.53125 C 46.018312 14.504793 46.188968 14.484434 46.349609 14.462891 L 46.798828 14.400391 L 46.445312 12.685547 L 46.169922 12.628906 C 45.965071 12.586198 45.73904 12.55519 45.484375 12.546875 z M 34.380859 16.017578 L 32.378906 17.095703 L 32.578125 17.470703 L 36.820312 25.328125 L 38.822266 24.244141 L 34.380859 16.017578 z M 71.904297 19.583984 L 71.609375 19.890625 L 67.568359 24.042969 C 67.201821 24.420166 66.917397 24.800263 66.720703 25.191406 C 66.523601 25.586291 66.423163 26.005914 66.439453 26.425781 C 66.459107 26.849882 66.594846 27.273124 66.826172 27.679688 C 67.054758 28.089005 67.385834 28.49529 67.810547 28.908203 C 68.236564 29.322175 68.649408 29.635083 69.064453 29.849609 C 69.479396 30.064664 69.902526 30.18769 70.324219 30.193359 L 70.332031 30.193359 C 70.755406 30.194153 71.171361 30.077958 71.560547 29.863281 C 71.943882 29.656163 72.316719 29.361723 72.683594 28.984375 L 77 24.542969 L 75.376953 22.964844 L 71.119141 27.34375 C 70.904426 27.564474 70.7151 27.708432 70.568359 27.785156 L 70.5625 27.792969 C 70.417555 27.871583 70.304126 27.896358 70.201172 27.892578 C 70.0896 27.885019 69.965977 27.850791 69.826172 27.769531 L 69.818359 27.769531 C 69.669975 27.678445 69.501404 27.537226 69.314453 27.355469 C 69.104236 27.151374 68.951663 26.970171 68.851562 26.820312 L 68.847656 26.8125 C 68.761937 26.675681 68.723272 26.559078 68.714844 26.457031 C 68.714723 26.455368 68.714961 26.453603 68.714844 26.449219 C 68.712315 26.355864 68.738813 26.25388 68.816406 26.113281 C 68.899291 25.963234 69.047467 25.763415 69.265625 25.539062 L 73.523438 21.162109 L 71.904297 19.583984 z M 27.314453 21.339844 L 27.314453 21.341797 L 27.314453 21.34375 C 27.07677 21.355089 26.846087 21.404754 26.628906 21.488281 C 26.415813 21.565384 26.21819 21.670136 26.035156 21.804688 C 25.866578 21.927895 25.70772 22.059465 25.5625 22.203125 L 22.867188 24.873047 L 23.160156 25.171875 L 29.441406 31.523438 L 31.0625 29.925781 L 28.955078 27.798828 L 29.996094 26.763672 C 30.136666 26.624585 30.2724 26.474176 30.396484 26.314453 L 30.402344 26.306641 C 30.535731 26.129003 30.645281 25.937083 30.732422 25.732422 L 30.732422 25.724609 C 30.819102 25.51031 30.875884 25.281256 30.900391 25.044922 C 30.927187 24.787158 30.905795 24.521043 30.833984 24.253906 C 30.760389 23.980646 30.634442 23.709474 30.464844 23.431641 L 30.458984 23.431641 C 30.281067 23.142129 30.04504 22.850952 29.753906 22.556641 C 29.465063 22.264861 29.187458 22.030396 28.90625 21.847656 L 28.898438 21.847656 C 28.628375 21.668507 28.363132 21.527392 28.09375 21.447266 L 28.085938 21.447266 C 27.824526 21.36714 27.567189 21.326237 27.314453 21.339844 z M 27.310547 23.714844 C 27.345522 23.714844 27.381027 23.721083 27.419922 23.732422 L 27.427734 23.738281 L 27.433594 23.738281 C 27.52301 23.760958 27.620873 23.804959 27.726562 23.882812 C 27.849824 23.973521 27.972827 24.084638 28.095703 24.208984 C 28.221554 24.335977 28.326787 24.456361 28.412109 24.576172 C 28.485205 24.678975 28.525797 24.770807 28.544922 24.855469 L 28.544922 24.863281 L 28.550781 24.863281 C 28.568318 24.93358 28.561676 24.989367 28.537109 25.068359 L 28.537109 25.076172 C 28.522105 25.12644 28.470773 25.221545 28.351562 25.339844 L 27.427734 26.257812 L 26.011719 24.822266 L 26.935547 23.910156 C 27.051083 23.796015 27.141524 23.753899 27.191406 23.742188 L 27.195312 23.732422 L 27.203125 23.732422 C 27.242149 23.721083 27.275572 23.714844 27.310547 23.714844 z M 40.558594 30.447266 C 40.493588 30.446753 40.430006 30.448982 40.365234 30.453125 C 39.501627 30.507928 38.672167 30.970714 38.210938 31.759766 L 37.357422 33.21875 C 36.619438 34.481112 37.060779 36.169937 38.318359 36.916016 L 39.738281 37.757812 C 40.9959 38.503778 42.676081 38.074824 43.414062 36.8125 L 44.267578 35.351562 C 45.00555 34.089205 44.562324 32.404282 43.304688 31.658203 L 41.884766 30.814453 C 41.472107 30.569729 41.013634 30.450854 40.558594 30.447266 z M 19.210938 30.517578 L 18.996094 30.736328 C 18.84173 30.893934 18.683752 31.072669 18.523438 31.273438 L 18.523438 31.275391 C 18.384683 31.450005 18.236651 31.654859 18.076172 31.896484 L 18.074219 31.898438 C 18.073455 31.899302 18.075065 31.901626 18.074219 31.902344 C 17.902832 32.152926 17.740333 32.434145 17.583984 32.75 C 17.389414 33.143184 17.252667 33.532469 17.183594 33.916016 C 17.113597 34.304551 17.121143 34.686157 17.210938 35.046875 L 17.210938 35.048828 L 17.210938 35.050781 C 17.303984 35.412482 17.486795 35.747901 17.746094 36.042969 C 18.010188 36.345709 18.356931 36.591647 18.771484 36.796875 C 19.109775 36.964686 19.424081 37.090237 19.720703 37.171875 L 19.724609 37.171875 L 19.726562 37.173828 C 20.024404 37.25093 20.313984 37.28345 20.591797 37.255859 L 20.59375 37.255859 L 20.595703 37.255859 C 20.877036 37.221844 21.14564 37.13184 21.388672 36.986328 L 21.392578 36.984375 L 21.392578 36.982422 C 21.629297 36.836532 21.848989 36.64155 22.056641 36.402344 L 23.232422 35.048828 C 23.322189 34.945269 23.396581 34.891945 23.433594 34.873047 L 23.4375 34.869141 L 23.443359 34.867188 C 23.492985 34.840731 23.533796 34.828125 23.576172 34.828125 C 23.624172 34.826462 23.675364 34.83176 23.746094 34.863281 L 23.753906 34.865234 L 23.761719 34.867188 C 23.856596 34.901198 23.96371 34.946079 24.080078 35.003906 L 24.080078 35.001953 C 24.223269 35.073008 24.332528 35.145993 24.412109 35.212891 L 24.416016 35.214844 L 24.419922 35.21875 C 24.462298 35.252766 24.481315 35.283914 24.498047 35.351562 C 24.509877 35.409011 24.509883 35.532293 24.466797 35.714844 C 24.46641 35.716469 24.467193 35.717163 24.466797 35.71875 C 24.420524 35.896388 24.320167 36.157144 24.158203 36.484375 C 24.032477 36.738737 23.905419 36.97663 23.78125 37.201172 C 23.658022 37.423786 23.547178 37.619701 23.445312 37.783203 L 23.443359 37.785156 L 23.441406 37.787109 C 23.323572 37.982133 23.206647 38.160565 23.095703 38.324219 L 22.826172 38.724609 L 24.414062 39.513672 L 24.617188 39.382812 C 24.788316 39.271321 24.947905 39.122079 25.115234 38.933594 L 25.117188 38.933594 C 25.267052 38.764271 25.422774 38.551576 25.597656 38.291016 C 25.789225 38.012086 25.986717 37.663591 26.197266 37.238281 C 26.471285 36.684694 26.656061 36.201947 26.744141 35.769531 C 26.837098 35.337834 26.841879 34.929731 26.728516 34.560547 L 26.726562 34.560547 L 26.726562 34.558594 C 26.611258 34.195003 26.385149 33.872301 26.076172 33.617188 C 25.785069 33.37303 25.426956 33.150691 25 32.939453 C 24.729809 32.805658 24.481593 32.697187 24.253906 32.613281 C 24.025007 32.528998 23.809144 32.46887 23.605469 32.4375 L 23.603516 32.4375 C 23.395082 32.403484 23.18937 32.398999 22.992188 32.435547 L 22.988281 32.435547 C 22.801852 32.465783 22.624466 32.524777 22.457031 32.611328 C 22.288328 32.694856 22.128194 32.806477 21.978516 32.941406 C 21.976909 32.943145 21.97475 32.944872 21.972656 32.949219 C 21.971137 32.95092 21.968387 32.951575 21.966797 32.953125 C 21.821882 33.078227 21.678092 33.22178 21.527344 33.386719 L 20.392578 34.626953 C 20.296741 34.729 20.215675 34.799527 20.166016 34.832031 L 20.164062 34.832031 C 20.125339 34.854708 20.096676 34.866936 20.076172 34.871094 C 20.052512 34.872757 20.022413 34.869831 19.974609 34.855469 L 19.972656 34.855469 C 19.899496 34.829012 19.817239 34.795669 19.722656 34.748047 C 19.544179 34.659606 19.428709 34.572067 19.378906 34.519531 C 19.339501 34.477201 19.330004 34.45576 19.326172 34.394531 C 19.322355 34.331413 19.339753 34.201012 19.40625 34.021484 C 19.47794 33.827973 19.589914 33.573203 19.742188 33.265625 C 19.837789 33.072491 19.936559 32.888059 20.039062 32.714844 L 20.042969 32.710938 L 20.044922 32.708984 C 20.147683 32.527567 20.242454 32.36754 20.330078 32.232422 L 20.332031 32.232422 L 20.333984 32.228516 C 20.437608 32.062972 20.536827 31.907155 20.634766 31.761719 L 20.90625 31.361328 L 19.210938 30.517578 z M 81.052734 30.636719 L 80.666016 30.804688 L 72.482422 34.384766 L 73.394531 36.46875 L 76.138672 35.269531 L 76.724609 36.611328 C 76.803828 36.792367 76.899667 36.975751 77.003906 37.148438 L 77.003906 37.15625 C 77.12213 37.344848 77.26423 37.513159 77.423828 37.667969 L 77.427734 37.673828 C 77.596868 37.831434 77.790549 37.966502 78.001953 38.074219 C 78.232958 38.19214 78.494348 38.261913 78.769531 38.291016 C 79.051068 38.321252 79.347831 38.299253 79.667969 38.242188 C 80.001852 38.179825 80.357105 38.063976 80.736328 37.898438 C 81.111408 37.734406 81.435956 37.559401 81.707031 37.363281 L 81.714844 37.355469 C 81.978428 37.16876 82.197584 36.96615 82.369141 36.744141 C 82.538804 36.527574 82.668994 36.300332 82.748047 36.058594 C 82.820803 35.836735 82.861127 35.605463 82.863281 35.376953 L 82.863281 35.371094 C 82.867439 35.1447 82.840324 34.915987 82.78125 34.697266 C 82.72656 34.495439 82.657999 34.302056 82.576172 34.115234 L 81.052734 30.636719 z M 39.808594 31.470703 C 39.846644 31.469367 39.883634 31.47031 39.921875 31.474609 C 40.023847 31.485948 40.125308 31.518974 40.220703 31.572266 C 40.602473 31.785809 40.73921 32.264714 40.525391 32.646484 L 39.751953 34.023438 C 39.538145 34.405203 39.059497 34.542046 38.677734 34.328125 C 38.295968 34.114582 38.161185 33.635676 38.375 33.253906 L 39.146484 31.875 C 39.286771 31.624323 39.542243 31.480053 39.808594 31.470703 z M 79.972656 33.59375 L 80.498047 34.785156 C 80.563584 34.932936 80.567388 35.027038 80.560547 35.076172 L 80.560547 35.087891 L 80.560547 35.095703 C 80.552988 35.176207 80.529225 35.23067 80.480469 35.294922 L 80.480469 35.302734 L 80.472656 35.310547 C 80.419592 35.386137 80.344662 35.456289 80.234375 35.527344 C 80.105682 35.609359 79.958902 35.689466 79.798828 35.759766 C 79.634797 35.831955 79.486393 35.883638 79.34375 35.919922 L 79.337891 35.919922 C 79.216001 35.953938 79.117121 35.958982 79.03125 35.947266 L 79.025391 35.947266 C 78.953958 35.939707 78.894066 35.917014 78.830078 35.865234 L 78.830078 35.857422 C 78.788541 35.823406 78.717591 35.741717 78.650391 35.587891 L 78.132812 34.396484 L 79.972656 33.59375 z M 61.455078 34.896484 C 60.40646 34.873807 59.28012 35.074414 58.269531 35.707031 C 57.258939 36.33946 56.450388 37.41405 56.041016 38.75 C 56.041008 38.75257 56.041008 38.753471 56.041016 38.757812 L 51.570312 53.595703 C 51.554821 53.651262 51.540031 53.706979 51.529297 53.763672 L 34.162109 53.763672 C 33.341826 53.763294 32.640704 54.352396 32.498047 55.160156 C 32.202087 56.848547 32.048405 58.576033 32.042969 60.306641 L 32.042969 60.314453 C 32.042969 66.003171 33.752809 70.107615 36.556641 74.060547 L 28.824219 74.060547 C 26.570025 74.060547 26.570025 77.441406 28.824219 77.441406 L 65.816406 77.441406 C 68.070603 77.441406 68.070603 74.060547 65.816406 74.060547 L 63.560547 74.060547 C 66.363562 70.10769 68.062392 66.002415 68.066406 60.314453 C 68.066406 58.573981 67.907908 56.845284 67.611328 55.162109 C 67.468689 54.354311 66.765595 53.765285 65.945312 53.765625 L 65.335938 53.765625 L 69.626953 43.904297 C 69.626964 43.901084 69.626964 43.896358 69.626953 43.892578 C 70.508517 41.838972 70.035928 39.701682 68.939453 38.333984 C 67.842948 36.966249 66.332396 36.163874 64.943359 35.632812 C 63.901688 35.234947 62.713517 34.920656 61.455078 34.898438 L 61.455078 34.896484 z M 61.392578 38.275391 L 61.392578 38.277344 C 62.095245 38.288682 62.963811 38.490983 63.738281 38.787109 C 64.770591 39.181994 65.801947 39.822623 66.302734 40.447266 C 66.803461 41.071908 66.982221 41.484806 66.519531 42.5625 L 61.806641 53.408203 C 61.756184 53.522345 61.717511 53.641215 61.693359 53.763672 L 55.048828 53.763672 L 59.279297 39.730469 C 59.49405 39.036736 59.752297 38.762048 60.058594 38.570312 C 60.366814 38.377562 60.806865 38.265186 61.392578 38.275391 z M 41.794922 38.402344 C 41.689405 38.397525 41.585137 38.398628 41.480469 38.404297 C 40.22446 38.472706 39.057335 39.283929 38.603516 40.525391 C 37.998413 42.180484 38.851515 44.076805 40.513672 44.693359 C 42.175776 45.309914 44.049213 44.424775 44.654297 42.769531 C 45.259411 41.114325 44.404279 39.21222 42.742188 38.595703 C 42.430566 38.48005 42.111472 38.4168 41.794922 38.402344 z M 34.072266 39.017578 C 33.355142 39.055751 32.685799 39.510379 32.425781 40.220703 L 31.84375 41.808594 C 31.497065 42.755592 31.995714 43.831316 32.941406 44.181641 L 34.492188 44.755859 C 35.437871 45.106222 36.510734 44.610948 36.857422 43.664062 L 37.439453 42.076172 C 37.786138 41.129136 37.287497 40.051496 36.341797 39.701172 L 34.791016 39.126953 C 34.554599 39.039646 34.311309 39.005862 34.072266 39.017578 z M 33.673828 39.505859 C 33.738054 39.4983 33.803208 39.50696 33.867188 39.529297 L 33.964844 39.558594 C 34.22079 39.636074 34.347595 39.89914 34.25 40.148438 L 33.898438 41.046875 C 33.800843 41.295946 33.515713 41.43562 33.259766 41.357422 L 33.162109 41.326172 C 32.906164 41.248692 32.779358 40.985437 32.876953 40.736328 L 33.228516 39.837891 C 33.301691 39.651182 33.481205 39.525576 33.673828 39.507812 L 33.673828 39.505859 z M 40.548828 39.691406 A 0.84743366 0.88274333 0 0 1 41.396484 40.574219 A 0.84743366 0.88274333 0 0 1 40.548828 41.457031 A 0.84743366 0.88274333 0 0 1 39.701172 40.574219 A 0.84743366 0.88274333 0 0 1 40.548828 39.691406 z M 19.148438 40.605469 A 0.56698593 0.56698593 0 0 0 18.617188 41.019531 C 17.717511 44.043682 17.259768 47.179062 17.259766 50.333984 C 17.259763 58.28475 20.159921 65.963528 25.416016 71.933594 A 0.56770344 0.56770344 0 1 0 26.271484 71.189453 C 21.197372 65.426127 18.396481 58.009147 18.396484 50.333984 C 18.396486 47.288554 18.834662 44.262981 19.703125 41.34375 A 0.56698593 0.56698593 0 0 0 19.148438 40.605469 z M 80.773438 40.605469 A 0.56698593 0.56698593 0 0 0 80.292969 41.335938 C 81.162147 44.256261 81.607418 47.287269 81.607422 50.333984 C 81.607422 58.005102 78.80761 65.419449 73.738281 71.181641 A 0.56698593 0.56698593 0 1 0 74.585938 71.925781 C 79.837073 65.956925 82.736328 58.280592 82.736328 50.333984 C 82.736324 47.177739 82.279322 44.037004 81.378906 41.011719 A 0.56698593 0.56698593 0 0 0 80.773438 40.605469 z M 48.644531 40.78125 C 48.42959 40.788809 48.21468 40.837972 48.009766 40.933594 L 46.806641 41.498047 C 45.986997 41.881933 45.6171 42.887416 45.992188 43.710938 L 46.548828 44.929688 C 46.923946 45.753204 47.92064 46.125767 48.740234 45.742188 L 49.943359 45.179688 C 50.762939 44.796217 51.136807 43.780553 50.761719 42.957031 L 50.205078 41.736328 C 49.92373 41.11864 49.289474 40.760349 48.644531 40.78125 z M 41.404297 46.011719 C 41.191698 46.019278 40.976609 46.066865 40.773438 46.162109 L 39.589844 46.71875 C 38.777136 47.099235 38.409341 48.08957 38.78125 48.90625 L 39.333984 50.115234 C 39.70589 50.931877 40.685335 51.294472 41.498047 50.914062 L 42.685547 50.357422 C 43.498259 49.976899 43.868014 48.982696 43.496094 48.166016 L 42.945312 46.958984 C 42.666388 46.346436 42.042039 45.990364 41.404297 46.011719 z M 48.042969 47.320312 C 47.254155 47.362643 46.522348 47.869377 46.236328 48.652344 C 45.854985 49.696098 46.392918 50.885734 47.4375 51.273438 C 48.482093 51.661136 49.649933 51.106292 50.03125 50.0625 C 50.412593 49.018632 49.88053 47.831101 48.835938 47.443359 C 48.574772 47.346603 48.305907 47.306711 48.042969 47.320312 z M 47.755859 47.988281 A 0.63125157 0.65755372 0 0 1 48.386719 48.646484 A 0.63125157 0.65755372 0 0 1 47.755859 49.302734 A 0.63125157 0.65755372 0 0 1 47.123047 48.646484 A 0.63125157 0.65755372 0 0 1 47.755859 47.988281 z M 35.703125 57.142578 L 64.40625 57.142578 C 64.536493 58.193249 64.693095 59.244643 64.693359 60.304688 C 64.689202 65.74467 63.180811 68.989388 60.226562 72.910156 C 59.979575 73.239353 59.860414 73.648477 59.892578 74.058594 L 40.222656 74.058594 C 40.254404 73.648439 40.13424 73.2389 39.886719 72.910156 C 36.93394 68.990181 35.423209 65.752602 35.421875 60.318359 L 35.421875 60.310547 C 35.425387 59.243322 35.575385 58.193514 35.703125 57.142578 z M 61.207031 80.724609 L 61.105469 80.740234 L 59.714844 80.955078 L 59.714844 81.253906 L 59.818359 81.234375 C 59.964766 81.208181 60.049759 81.227261 60.107422 81.287109 C 60.165088 81.346473 60.201172 81.46878 60.201172 81.654297 L 60.201172 85.166016 C 60.201172 85.39562 60.166573 85.560719 60.099609 85.660156 C 60.032819 85.759677 59.942604 85.801632 59.800781 85.804688 L 59.714844 85.804688 L 59.714844 86.105469 L 61.701172 86.105469 L 61.701172 85.804688 L 61.615234 85.804688 C 61.47219 85.802147 61.386107 85.759677 61.318359 85.660156 C 61.250611 85.560635 61.208117 85.396407 61.207031 85.166016 L 61.207031 84.671875 L 61.556641 84.337891 L 62.189453 85.302734 C 62.259685 85.413608 62.296419 85.507432 62.314453 85.574219 C 62.332355 85.641009 62.325771 85.667657 62.314453 85.685547 L 62.314453 85.695312 C 62.273857 85.762969 62.2174 85.793346 62.111328 85.804688 L 62.025391 85.814453 L 62.025391 86.105469 L 64.072266 86.105469 L 64.072266 85.798828 L 63.96875 85.806641 C 63.859713 85.815418 63.76421 85.783439 63.654297 85.703125 C 63.544428 85.622811 63.423854 85.495628 63.3125 85.310547 L 62.28125 83.623047 L 62.65625 83.25 C 62.965082 82.923926 63.346558 82.761719 63.824219 82.761719 L 63.910156 82.761719 L 63.910156 82.472656 L 62.195312 82.472656 L 62.195312 82.771484 L 62.291016 82.761719 C 62.360242 82.759062 62.405599 82.765865 62.435547 82.779297 C 62.465668 82.792394 62.477516 82.81152 62.486328 82.832031 C 62.489677 82.840809 62.489983 82.869257 62.458984 82.923828 C 62.427997 82.979265 62.370338 83.050933 62.28125 83.138672 L 61.207031 84.195312 L 61.207031 80.724609 z M 40.583984 80.841797 L 40.583984 80.845703 C 40.430857 80.845703 40.293944 80.905854 40.183594 81.013672 C 40.075388 81.119741 40.011719 81.265168 40.011719 81.421875 C 40.011719 81.581202 40.072111 81.723777 40.183594 81.832031 C 40.293948 81.939856 40.4309 81.996094 40.583984 81.996094 C 40.739033 81.996094 40.877953 81.941156 40.984375 81.832031 C 41.093332 81.722901 41.154297 81.580329 41.154297 81.421875 C 41.154297 81.285683 41.092829 81.169172 41.009766 81.072266 L 41.009766 81.039062 L 40.994141 81.021484 C 40.993321 81.020698 40.985183 81.022226 40.984375 81.021484 C 40.880535 80.907123 40.739994 80.841797 40.583984 80.841797 z M 33.34375 80.867188 L 33.251953 80.869141 C 32.747198 80.869141 32.325776 81.010317 31.998047 81.294922 C 31.712533 81.563376 31.5625 81.914238 31.5625 82.318359 C 31.567351 82.894729 31.953894 83.374602 32.664062 83.734375 C 32.788312 83.798982 32.965406 83.870557 33.208984 83.964844 C 33.447947 84.055206 33.648189 84.153117 33.814453 84.246094 C 33.979625 84.341688 34.096648 84.435721 34.164062 84.519531 C 34.242483 84.626917 34.288607 84.735843 34.300781 84.859375 C 34.313705 85.025249 34.294257 85.164725 34.25 85.277344 C 34.203248 85.411353 34.123343 85.513181 34.001953 85.599609 L 34.001953 85.609375 C 33.808504 85.748622 33.558364 85.811924 33.234375 85.798828 C 32.830633 85.785731 32.503609 85.648352 32.246094 85.396484 C 32.027188 85.177793 31.865291 84.871051 31.767578 84.466797 L 31.751953 84.400391 L 31.470703 84.400391 L 31.470703 86.105469 L 31.759766 86.105469 L 31.767578 86.019531 C 31.776009 85.882467 31.806827 85.79903 31.84375 85.763672 C 31.888492 85.720015 31.909273 85.713675 31.955078 85.728516 L 31.964844 85.728516 C 32.029254 85.750344 32.125857 85.79475 32.246094 85.863281 C 32.577908 86.051853 32.903662 86.155516 33.234375 86.169922 C 33.797597 86.196116 34.26692 86.047093 34.623047 85.71875 C 34.961736 85.401406 35.153813 85.00532 35.177734 84.550781 C 35.192136 84.22558 35.134119 83.948191 35 83.724609 C 34.868034 83.516831 34.671228 83.337004 34.419922 83.1875 C 34.244536 83.084919 33.939358 82.961439 33.492188 82.796875 C 33.037444 82.6314 32.750342 82.476684 32.654297 82.378906 C 32.566834 82.293349 32.51372 82.201339 32.492188 82.095703 C 32.463118 81.962568 32.465295 81.832931 32.501953 81.712891 C 32.532293 81.587175 32.59226 81.491716 32.681641 81.421875 L 32.6875 81.421875 C 32.841828 81.290048 33.041004 81.223116 33.294922 81.21875 C 33.654196 81.205653 33.931086 81.323388 34.148438 81.583984 C 34.314407 81.78216 34.439731 82.06372 34.53125 82.445312 L 34.546875 82.523438 L 34.837891 82.496094 L 34.71875 80.943359 L 34.419922 80.943359 L 34.419922 81.029297 C 34.419034 81.068588 34.410001 81.086742 34.402344 81.097656 C 34.394721 81.106434 34.382508 81.120634 34.359375 81.125 C 34.313131 81.133778 34.205312 81.115028 34.052734 81.046875 C 33.818053 80.944294 33.579322 80.896552 33.34375 80.884766 L 33.34375 80.867188 z M 45.408203 80.9375 L 45.408203 81.03125 L 45.408203 81.253906 L 45.503906 81.253906 C 45.695796 81.253906 45.821534 81.297047 45.904297 81.380859 C 45.98706 81.464673 46.03125 81.59482 46.03125 81.789062 L 46.03125 85.251953 C 46.03125 85.44751 45.986626 85.585675 45.904297 85.669922 C 45.821973 85.754174 45.694487 85.796875 45.503906 85.796875 L 45.417969 85.796875 L 45.408203 86.095703 L 49.886719 86.095703 L 49.988281 84.501953 L 49.689453 84.482422 L 49.671875 84.568359 C 49.628045 84.873044 49.524211 85.116213 49.365234 85.302734 C 49.202328 85.491743 49.026545 85.608558 48.828125 85.675781 C 48.624406 85.745181 48.390035 85.787109 48.119141 85.787109 C 47.756662 85.787109 47.492328 85.715537 47.328125 85.59375 C 47.163909 85.471963 47.080078 85.296822 47.080078 85.039062 L 47.080078 81.789062 C 47.080078 81.594384 47.134033 81.464232 47.216797 81.380859 C 47.29956 81.297046 47.425297 81.253906 47.617188 81.253906 L 47.703125 81.253906 L 47.703125 80.9375 L 45.408203 80.9375 z M 37.011719 82.207031 L 37.019531 82.412109 L 35.84375 82.599609 L 35.84375 82.900391 L 35.9375 82.880859 C 36.073647 82.859031 36.153984 82.877803 36.208984 82.939453 C 36.263982 83.001 36.304687 83.123513 36.304688 83.308594 L 36.304688 85.158203 C 36.304688 85.387371 36.266589 85.551117 36.203125 85.652344 C 36.139661 85.753181 36.051486 85.799012 35.919922 85.804688 L 35.84375 85.814453 L 35.84375 86.095703 L 37.769531 86.095703 L 37.769531 85.804688 L 37.685547 85.804688 C 37.5518 85.802147 37.468421 85.760994 37.404297 85.660156 C 37.340175 85.559319 37.300781 85.391475 37.300781 85.158203 L 37.300781 83.777344 C 37.300781 83.510636 37.362695 83.28603 37.488281 83.085938 C 37.620849 82.88165 37.739458 82.790646 37.837891 82.779297 L 37.847656 82.779297 C 37.925095 82.7662 37.979543 82.782414 38.042969 82.830078 L 38.052734 82.830078 C 38.09333 82.856272 38.149384 82.929247 38.205078 83.044922 C 38.254486 83.153613 38.310738 83.239026 38.384766 83.298828 L 38.392578 83.298828 C 38.470883 83.356887 38.569839 83.384766 38.675781 83.384766 C 38.787925 83.384766 38.891555 83.345506 38.957031 83.265625 C 39.018624 83.190104 39.048828 83.098859 39.048828 83.001953 C 39.048828 82.825603 38.936817 82.667677 38.759766 82.566406 C 38.561284 82.453789 38.341563 82.397149 38.095703 82.394531 C 37.745796 82.394531 37.489917 82.590464 37.277344 82.847656 C 37.270761 82.731107 37.248962 82.632593 37.216797 82.556641 L 37.216797 82.546875 L 37.208984 82.480469 L 37.199219 82.480469 C 37.191827 82.467372 37.199969 82.439515 37.191406 82.427734 L 37.011719 82.207031 z M 52.195312 82.376953 L 52.128906 82.378906 C 51.688646 82.383295 51.33373 82.488586 51.070312 82.701172 C 50.909333 82.832561 50.817409 82.982924 50.832031 83.146484 L 50.832031 83.154297 C 50.848616 83.261244 50.901967 83.356421 50.984375 83.417969 C 51.075037 83.478649 51.18537 83.500574 51.285156 83.476562 C 51.373728 83.459105 51.444485 83.420091 51.505859 83.351562 C 51.570501 83.284339 51.626019 83.19764 51.667969 83.09375 C 51.705077 83.001205 51.73602 82.930184 51.759766 82.880859 C 51.771546 82.854665 51.779683 82.832971 51.787109 82.820312 C 51.789304 82.816506 51.793074 82.818842 51.794922 82.814453 L 51.794922 82.804688 C 51.850266 82.752311 51.955874 82.71875 52.128906 82.71875 C 52.34655 82.71875 52.505064 82.755528 52.597656 82.814453 C 52.690236 82.874256 52.730501 82.952409 52.732422 83.078125 C 52.735309 83.24007 52.65 83.397369 52.443359 83.5625 C 52.236715 83.727502 51.916911 83.893528 51.480469 84.046875 L 51.480469 84.041016 C 51.20455 84.136171 50.985214 84.278706 50.839844 84.458984 C 50.694485 84.639263 50.619141 84.861666 50.619141 85.115234 C 50.619141 85.429086 50.730909 85.69089 50.943359 85.880859 C 51.157511 86.065503 51.425555 86.167466 51.736328 86.179688 L 51.744141 86.179688 C 52.020758 86.181992 52.256133 86.123693 52.458984 86.009766 C 52.620493 85.918537 52.73183 85.804714 52.828125 85.685547 C 52.86566 85.809516 52.891856 85.937305 52.996094 86.009766 C 53.139488 86.109725 53.334729 86.154297 53.576172 86.154297 C 53.841003 86.154297 54.112456 86.059399 54.378906 85.880859 L 54.4375 85.837891 L 54.302734 85.574219 L 54.226562 85.625 C 54.054452 85.736752 53.921299 85.774423 53.824219 85.753906 C 53.791049 85.745129 53.776371 85.731814 53.755859 85.685547 C 53.735348 85.641463 53.722656 85.568918 53.722656 85.470703 L 53.722656 83.75 C 53.724966 83.434839 53.675207 83.179376 53.570312 82.974609 C 53.468614 82.771195 53.290486 82.620818 53.048828 82.523438 C 52.825029 82.433075 52.528567 82.390876 52.195312 82.384766 L 52.195312 82.376953 z M 66.289062 82.376953 L 66.21875 82.378906 C 65.778493 82.383295 65.427479 82.488586 65.164062 82.701172 C 65.003082 82.832561 64.911159 82.982924 64.925781 83.146484 L 64.925781 83.154297 C 64.942366 83.261244 64.985989 83.356421 65.068359 83.417969 L 65.078125 83.417969 C 65.168787 83.478649 65.277167 83.500574 65.376953 83.476562 C 65.462511 83.459105 65.538028 83.418347 65.597656 83.351562 C 65.662298 83.284339 65.70805 83.19764 65.75 83.09375 C 65.787108 83.001205 65.822004 82.930184 65.845703 82.880859 C 65.857483 82.854665 65.87148 82.832971 65.878906 82.820312 C 65.880408 82.817777 65.877636 82.814453 65.878906 82.814453 L 65.888672 82.804688 C 65.944016 82.752311 66.045718 82.71875 66.21875 82.71875 C 66.436394 82.71875 66.596861 82.755528 66.689453 82.814453 C 66.782033 82.874256 66.824251 82.952409 66.826172 83.078125 C 66.829059 83.24007 66.741801 83.397369 66.535156 83.5625 C 66.328512 83.727502 65.998941 83.893528 65.5625 84.046875 L 65.5625 84.041016 C 65.286581 84.136171 65.078961 84.278706 64.933594 84.458984 C 64.788235 84.639263 64.710936 84.861666 64.710938 85.115234 C 64.710938 85.429086 64.822706 85.69089 65.035156 85.880859 C 65.249309 86.065503 65.519305 86.167466 65.830078 86.179688 C 66.106696 86.181992 66.349884 86.123693 66.552734 86.009766 C 66.713807 85.918537 66.815903 85.804278 66.912109 85.685547 C 66.949217 85.809953 66.985256 85.936868 67.089844 86.009766 C 67.233238 86.109725 67.428518 86.154297 67.669922 86.154297 C 67.934753 86.154297 68.194487 86.059399 68.460938 85.880859 L 68.53125 85.837891 L 68.394531 85.574219 L 68.318359 85.625 C 68.149517 85.734569 68.014613 85.771803 67.917969 85.753906 C 67.884799 85.745129 67.862274 85.731814 67.841797 85.685547 C 67.821285 85.641463 67.804688 85.568918 67.804688 85.470703 L 67.804688 83.75 C 67.806992 83.434839 67.76492 83.179376 67.660156 82.974609 C 67.558453 82.771195 67.384192 82.620818 67.142578 82.523438 C 66.918735 82.433075 66.622317 82.390876 66.289062 82.384766 L 66.289062 82.376953 z M 41.113281 82.386719 L 39.619141 82.599609 L 39.619141 82.896484 L 39.720703 82.880859 C 39.86414 82.854665 39.948994 82.876354 40.003906 82.931641 C 40.058823 82.987078 40.098707 83.09557 40.097656 83.271484 L 40.097656 85.191406 C 40.098744 85.405732 40.058482 85.557752 39.994141 85.652344 C 39.929707 85.747072 39.844456 85.798139 39.705078 85.804688 L 39.619141 85.804688 L 39.619141 86.103516 L 41.580078 86.103516 L 41.580078 85.804688 L 41.503906 85.804688 C 41.36706 85.79591 41.279579 85.747063 41.214844 85.652344 C 41.15011 85.557189 41.114367 85.405165 41.113281 85.191406 L 41.113281 82.386719 z M 56.279297 82.386719 L 54.957031 82.599609 L 54.957031 82.896484 L 55.060547 82.880859 C 55.204507 82.854665 55.284964 82.880088 55.341797 82.939453 C 55.398631 82.998817 55.435547 83.114621 55.435547 83.298828 L 55.435547 85.166016 C 55.435547 85.396057 55.399631 85.560719 55.333984 85.660156 C 55.268153 85.759677 55.182216 85.801632 55.042969 85.804688 L 54.957031 85.804688 L 54.957031 86.103516 L 56.919922 86.103516 L 56.919922 85.804688 L 56.833984 85.804688 C 56.696091 85.802147 56.616127 85.759677 56.550781 85.660156 C 56.485435 85.560635 56.441406 85.396407 56.441406 85.166016 L 56.441406 83.537109 C 56.441406 83.349409 56.500227 83.196171 56.613281 83.060547 C 56.730135 82.923046 56.850908 82.863281 57.011719 82.863281 L 57.021484 82.863281 C 57.20757 82.861318 57.339186 82.926539 57.447266 83.060547 C 57.560022 83.195866 57.61147 83.347358 57.609375 83.537109 L 57.609375 85.166016 C 57.609375 85.396057 57.572154 85.560719 57.507812 85.660156 C 57.443349 85.759677 57.36188 85.801632 57.226562 85.804688 L 57.140625 85.804688 L 57.140625 86.095703 L 59.066406 86.095703 L 59.066406 85.804688 L 58.982422 85.804688 C 58.847147 85.802147 58.765601 85.759677 58.701172 85.660156 C 58.636738 85.560635 58.597656 85.396843 58.597656 85.166016 L 58.597656 83.648438 C 58.597656 83.253832 58.495483 82.941371 58.275391 82.71875 L 58.265625 82.71875 C 58.037723 82.495693 57.738059 82.384928 57.371094 82.394531 L 57.292969 82.394531 L 57.292969 82.429688 C 56.956201 82.447145 56.67238 82.597463 56.431641 82.822266 C 56.425057 82.752866 56.420422 82.679772 56.408203 82.626953 C 56.388558 82.541834 56.363086 82.472511 56.3125 82.421875 L 56.279297 82.386719 z M 52.732422 83.861328 L 52.732422 84.587891 C 52.732422 84.924441 52.671062 85.196857 52.554688 85.40625 C 52.444645 85.609664 52.309044 85.695312 52.109375 85.695312 C 51.944767 85.697276 51.835371 85.645656 51.751953 85.523438 C 51.667319 85.393357 51.621563 85.245648 51.615234 85.072266 C 51.613155 84.895479 51.644602 84.745644 51.716797 84.611328 L 51.726562 84.611328 C 51.797499 84.477756 51.905978 84.370209 52.060547 84.296875 C 52.394304 84.130128 52.575557 83.997519 52.732422 83.861328 z M 66.826172 83.861328 L 66.826172 84.587891 C 66.826172 84.924441 66.762856 85.196857 66.646484 85.40625 C 66.536442 85.609664 66.394998 85.695312 66.195312 85.695312 C 66.030709 85.697276 65.929121 85.645656 65.845703 85.523438 C 65.761069 85.393357 65.71336 85.245648 65.707031 85.072266 C 65.704952 84.895479 65.738352 84.745644 65.810547 84.611328 C 65.881483 84.477756 65.98801 84.370209 66.142578 84.296875 C 66.476902 84.129691 66.669333 83.997519 66.826172 83.861328 z "
         transform="matrix(0.26458333,0,0,0.26458333,0,270.54165)" />
      <path
         style="color:#000000;font-style:normal;font-variant:normal;font-weight:normal;font-stretch:normal;font-size:medium;line-height:normal;font-family:sans-serif;font-variant-ligatures:normal;font-variant-position:normal;font-variant-caps:normal;font-variant-numeric:normal;font-variant-alternates:normal;font-feature-settings:normal;text-indent:0;text-align:start;text-decoration:none;text-decoration-line:none;text-decoration-style:solid;text-decoration-color:#000000;letter-spacing:normal;word-spacing:normal;text-transform:none;writing-mode:lr-tb;direction:ltr;text-orientation:mixed;dominant-baseline:auto;baseline-shift:baseline;text-anchor:start;white-space:normal;shape-padding:0;clip-rule:nonzero;display:inline;overflow:visible;visibility:visible;opacity:0.922;isolation:auto;mix-blend-mode:normal;color-interpolation:sRGB;color-interpolation-filters:linearRGB;solid-color:#000000;solid-opacity:1;vector-effect:none;fill:#000000;fill-opacity:1;fill-rule:nonzero;stroke:none;stroke-width:1.05833328;stroke-linecap:round;stroke-linejoin:round;stroke-miterlimit:4;stroke-dasharray:none;stroke-dashoffset:0;stroke-opacity:1;paint-order:stroke fill markers;color-rendering:auto;image-rendering:auto;shape-rendering:auto;text-rendering:auto;enable-background:accumulate"
         d="m 13.228331,270.8204 c -6.8755121,0 -12.43955961,5.81266 -12.43955614,12.94958 7.9e-7,7.13692 5.56404754,12.95125 12.43955614,12.95125 6.875508,0 12.441227,-5.81433 12.441228,-12.95125 3e-6,-7.13692 -5.565716,-12.94958 -12.441228,-12.94958 z m 0,0.90633 c 6.364965,0 11.534894,5.37604 11.534891,12.04325 -10e-7,6.66721 -5.16993,12.04491 -11.534891,12.04491 -6.3649622,0 -11.5332184,-5.3777 -11.5332192,-12.04491 -3.5e-6,-6.66721 5.1682544,-12.04325 11.5332192,-12.04325 z"
         id="ellipse1098"
         inkscape:connector-curvature="0" />
    </g>
    <g
       aria-label="Sri Lanka"
       id="text7890"
       style="font-size:1.60694px;font-family:Chapaza;-inkscape-font-specification:Chapaza;letter-spacing:0.140657px;fill:#4d4d4d;stroke:#4d4d4d;stroke-width:0.0401735;fill-opacity:1"
       transform="matrix(1.1549353,0,0,1.1549353,-2.2845564,-47.549532)">
      <g
         id="path18191"
         style="fill:#4d4d4d;fill-opacity:1" />
      <g
         id="path18193"
         style="fill:#4d4d4d;fill-opacity:1" />
      <g
         id="path18195"
         style="fill:#4d4d4d;fill-opacity:1" />
      <g
         id="path18197"
         style="fill:#4d4d4d;fill-opacity:1" />
      <g
         id="path18199"
         style="fill:#4d4d4d;fill-opacity:1" />
      <g
         id="path18201"
         style="fill:#4d4d4d;fill-opacity:1" />
      <g
         id="path18203"
         style="fill:#4d4d4d;fill-opacity:1" />
      <g
         id="path18205"
         style="fill:#4d4d4d;fill-opacity:1" />
    </g>
  </g>
</svg>
