<?xml version="1.0" encoding="UTF-8" standalone="no"?>
<!-- Created with Inkscape (http://www.inkscape.org/) -->

<svg
   xmlns:dc="http://purl.org/dc/elements/1.1/"
   xmlns:cc="http://creativecommons.org/ns#"
   xmlns:rdf="http://www.w3.org/1999/02/22-rdf-syntax-ns#"
   xmlns:svg="http://www.w3.org/2000/svg"
   xmlns="http://www.w3.org/2000/svg"
   xmlns:sodipodi="http://sodipodi.sourceforge.net/DTD/sodipodi-0.dtd"
   xmlns:inkscape="http://www.inkscape.org/namespaces/inkscape"
   width="100"
   height="100"
   viewBox="0 0 26.458333 26.458334"
   version="1.1"
   id="svg8"
   inkscape:version="0.92.4 (5da689c313, 2019-01-14)"
   sodipodi:docname="spiceUp-3.svg">
  <defs
     id="defs2" />
  <sodipodi:namedview
     id="base"
     pagecolor="#ffffff"
     bordercolor="#666666"
     borderopacity="1.0"
     inkscape:pageopacity="0.0"
     inkscape:pageshadow="2"
     inkscape:zoom="2.93125"
     inkscape:cx="52.144514"
     inkscape:cy="41.718748"
     inkscape:document-units="px"
     inkscape:current-layer="layer1"
     showgrid="false"
     units="px"
     inkscape:window-width="1366"
     inkscape:window-height="745"
     inkscape:window-x="-8"
     inkscape:window-y="-8"
     inkscape:window-maximized="1"
     inkscape:snap-global="false" />
  <metadata
     id="metadata5">
    <rdf:RDF>
      <cc:Work
         rdf:about="">
        <dc:format>image/svg+xml</dc:format>
        <dc:type
           rdf:resource="http://purl.org/dc/dcmitype/StillImage" />
        <dc:title></dc:title>
      </cc:Work>
    </rdf:RDF>
  </metadata>
  <g
     inkscape:label="Layer 1"
     inkscape:groupmode="layer"
     id="layer1"
     transform="translate(0,-270.54165)">
    <g
       id="g859"
       transform="matrix(1.1428254,0,0,1.1428254,-1.88945,-38.584546)"
       style="stroke-width:0.87502432">
      <path
         sodipodi:nodetypes="ccccccccccccccc"
         inkscape:connector-curvature="0"
         id="rect1229"
         d="m 17.15964,279.59295 -2.081611,5.72226 2.19924,-0.15867 c 0.0079,-0.0424 0.02146,-0.0839 0.03886,-0.12351 l 1.632079,-3.75409 c 0.160149,-0.37305 0.09773,-0.51603 -0.07549,-0.73227 -0.17335,-0.21619 -0.530503,-0.43707 -0.887852,-0.57367 -0.164349,-0.0629 -0.657186,-0.34931 -0.825211,-0.38013 z m -7.005714,6.73342 c -0.7677502,4.17667 8.115637,3.80833 -1.0292533,5.85514 h 7.5295313 c -0.01047,-0.14198 0.0297,-0.28253 0.115262,-0.39642 1.02262,-1.3572 1.544592,-2.48061 1.546058,-4.36369 -9.2e-5,-0.36695 -0.05443,-0.73133 -0.09943,-1.09503 z"
         style="opacity:1;vector-effect:none;fill:#ececec;fill-opacity:1;stroke:none;stroke-width:0.26250729;stroke-linecap:round;stroke-linejoin:round;stroke-miterlimit:4;stroke-dasharray:none;stroke-dashoffset:0;stroke-opacity:1;paint-order:stroke fill markers" />
      <path
         inkscape:connector-curvature="0"
         id="path1080"
         d="m 14.30154,270.78406 -0.02342,0.14505 -0.496408,3.05035 2.072426,0.33703 0.121149,-0.74259 -1.293268,-0.20963 0.07941,-0.50096 1.056205,0.1725 0.118793,-0.73575 -1.056204,-0.17081 0.07771,-0.47468 1.258991,0.20278 0.121149,-0.74258 z m -2.635664,0.10741 v 5.7e-4 c -0.07797,-0.003 -0.16826,10e-4 -0.274193,0.009 -0.111206,0.008 -0.236371,0.0271 -0.375862,0.056 -0.09001,0.0186 -0.181265,0.0474 -0.271917,0.0862 -0.09538,0.0394 -0.183685,0.0934 -0.267901,0.15994 -0.08713,0.0689 -0.165186,0.15271 -0.23306,0.25019 -0.0717,0.10139 -0.126513,0.22071 -0.163944,0.35417 -0.0382,0.13596 -0.05573,0.28805 -0.05822,0.45584 -0.0026,0.17046 0.01688,0.35809 0.06005,0.56551 0.04448,0.21429 0.09982,0.40165 0.16622,0.56154 0.06541,0.15742 0.140092,0.29129 0.225067,0.40556 v 0.003 c 0.0836,0.11134 0.175835,0.20202 0.278197,0.27191 v 0.003 c 0.09786,0.0656 0.20208,0.11409 0.309033,0.14462 0.105711,0.0293 0.214758,0.0426 0.323883,0.0411 0.105449,-0.003 0.208792,-0.0132 0.310748,-0.0343 l 0.116569,-0.0241 v -0.009 c 0.08805,-0.0215 0.179826,-0.0413 0.252489,-0.0669 0.102048,-0.0342 0.18816,-0.0682 0.261046,-0.10178 v 0.003 c 0.08321,-0.0371 0.154915,-0.0761 0.218211,-0.11879 l 0.08229,-0.0559 -0.125073,-0.59807 -0.151371,0.0457 c -0.04671,0.0147 -0.100739,0.0287 -0.159953,0.0451 l 0.0026,-0.003 c -0.04972,0.0132 -0.109374,0.0296 -0.181069,0.0475 -0.07012,0.0171 -0.15014,0.0337 -0.23764,0.0519 -0.06489,0.0132 -0.130437,0.0259 -0.196506,0.0343 l 0.0039,-0.003 c -0.05704,0.008 -0.113953,0.005 -0.16851,-0.003 -0.05168,-0.009 -0.101654,-0.0247 -0.15137,-0.0519 -0.04252,-0.0231 -0.09066,-0.0616 -0.138248,-0.12115 -0.04553,-0.0569 -0.09001,-0.13919 -0.133669,-0.2439 -0.04265,-0.10205 -0.08321,-0.23251 -0.11657,-0.39302 -0.0314,-0.15165 -0.04579,-0.28127 -0.04736,-0.38443 v -0.003 c -1.05e-4,-0.10532 0.0092,-0.19095 0.028,-0.25478 0.02041,-0.0691 0.04788,-0.11997 0.07771,-0.15594 0.03506,-0.0424 0.07143,-0.0731 0.114214,-0.0989 l 0.0026,-0.003 c 0.04762,-0.0292 0.09747,-0.051 0.15137,-0.0669 0.06398,-0.0184 0.12926,-0.0344 0.194217,-0.0481 0.07287,-0.0153 0.142592,-0.0292 0.20908,-0.0389 h 0.0026 c 0.06934,-0.0118 0.1307,-0.0218 0.183934,-0.0302 0.06385,-0.009 0.123242,-0.016 0.178793,-0.0234 l 0.155374,-0.0217 -0.12285,-0.59349 -0.09485,-0.0194 c -0.07091,-0.0148 -0.149473,-0.0255 -0.237626,-0.0284 z m -3.8432372,1.19902 -0.6929021,0.37357 0.069078,0.12965 1.4680572,2.72022 0.6929022,-0.37588 z m 12.9886382,1.23499 -0.101655,0.10558 -1.39894,1.43778 c -0.126905,0.13057 -0.225524,0.26218 -0.293621,0.39757 -0.06816,0.13669 -0.102702,0.28194 -0.09708,0.42728 0.0065,0.1468 0.05364,0.29341 0.133682,0.43415 0.07915,0.14168 0.194008,0.28205 0.341021,0.42498 0.147472,0.1433 0.290469,0.25192 0.434134,0.32618 0.143638,0.0744 0.28988,0.11683 0.435847,0.11879 h 0.0026 c 0.146556,2.7e-4 0.290848,-0.0399 0.425564,-0.11421 0.132701,-0.0717 0.261451,-0.17384 0.388447,-0.30446 l 1.494328,-1.53719 -0.561509,-0.54666 -1.474351,1.51605 c -0.07431,0.0764 -0.139425,0.12651 -0.190226,0.15307 l -0.0026,0.003 c -0.05024,0.0272 -0.08949,0.0356 -0.125074,0.0343 -0.03859,-0.003 -0.08125,-0.0147 -0.129652,-0.0428 h -0.0026 c -0.05142,-0.0315 -0.110028,-0.0799 -0.174789,-0.14285 -0.07274,-0.0707 -0.125335,-0.13376 -0.159939,-0.18564 l -0.0013,-0.003 c -0.0297,-0.0474 -0.04278,-0.0875 -0.04566,-0.12285 -5.3e-5,-5.8e-4 3.9e-5,-10e-4 0,-0.003 -8.77e-4,-0.0323 0.0078,-0.0678 0.0348,-0.11644 0.02865,-0.0519 0.07981,-0.12115 0.155374,-0.19881 l 1.47435,-1.51545 z m -15.4346501,0.60835 v 5.7e-4 c -0.082292,0.004 -0.1624516,0.0209 -0.2376266,0.0498 -0.073788,0.0267 -0.1417151,0.0632 -0.2050761,0.10977 -0.05835,0.0426 -0.1136913,0.0884 -0.1639432,0.13817 l -0.9328183,0.92423 0.101655,0.10336 2.1741077,2.1981 0.560947,-0.55295 -0.7294561,-0.7363 0.3604368,-0.35819 c 0.048669,-0.0481 0.095244,-0.10008 0.1382482,-0.15537 l 0.00262,-0.003 c 0.046183,-0.0615 0.084124,-0.12795 0.1142146,-0.19879 v -0.003 c 0.02996,-0.0742 0.049846,-0.15353 0.058219,-0.23534 0.00916,-0.0892 0.00131,-0.18173 -0.023419,-0.27421 -0.025512,-0.0946 -0.068686,-0.1883 -0.1274285,-0.28447 h -0.00262 c -0.061621,-0.10022 -0.1431412,-0.20087 -0.2439196,-0.30274 -0.099954,-0.101 -0.1962712,-0.18237 -0.2936088,-0.24562 h -0.00262 c -0.093544,-0.062 -0.185517,-0.11042 -0.2787596,-0.13816 h -0.00262 c -0.090534,-0.0277 -0.1798521,-0.042 -0.2673381,-0.0373 z m -0.041081,0.82715 h 0.00262 c 0.027082,-0.008 0.048407,-0.008 0.075358,0 l 0.00262,0.003 h 0.00262 c 0.031007,0.008 0.065023,0.0229 0.101655,0.0498 0.042651,0.0314 0.084778,0.0695 0.1274285,0.11251 0.043566,0.044 0.080199,0.0858 0.1096355,0.1273 0.02525,0.0356 0.039118,0.0678 0.04566,0.0971 v 0.003 h 0.00262 c 0.00654,0.0243 0.00392,0.0437 -0.00392,0.071 v 0.003 c -0.00523,0.0174 -0.023288,0.05 -0.064499,0.0909 l -0.3198926,0.3176 -0.4901155,-0.49696 0.3198925,-0.31531 c 0.040034,-0.0395 0.071302,-0.0542 0.088572,-0.0582 z m 4.5584202,2.32662 c -0.2989467,0.019 -0.5857916,0.17929 -0.7454566,0.45243 l -0.2953227,0.50495 c -0.2554588,0.43697 -0.1028324,1.0213 0.3324523,1.27956 l 0.4918294,0.29191 c 0.4353375,0.25821 1.0166805,0.10963 1.2721395,-0.32733 l 0.295323,-0.50554 c 0.255445,-0.43697 0.102309,-1.02072 -0.333028,-1.27898 l -0.49183,-0.29191 c -0.163249,-0.0968 -0.346738,-0.13655 -0.5261069,-0.12507 z m -7.3225977,0.0222 -0.074312,0.076 c -0.053379,0.0546 -0.1079348,0.11618 -0.1633675,0.18567 v 5.6e-4 c -0.048015,0.0605 -0.0993,0.13172 -0.1548112,0.21536 l -5.756e-4,5.7e-4 c -2.617e-4,3e-4 -2.748e-4,8.5e-4 -5.626e-4,10e-4 -0.059266,0.0867 -0.115523,0.18427 -0.1696604,0.2936 -0.067378,0.13611 -0.1143455,0.27111 -0.1382351,0.40388 -0.024203,0.13449 -0.021849,0.26642 0.00916,0.39128 v 5.8e-4 5.6e-4 c 0.032184,0.12521 0.095899,0.24117 0.1856479,0.34331 0.09145,0.1048 0.2112382,0.19002 0.3547326,0.26106 0.1170929,0.0581 0.2257865,0.10205 0.328462,0.13031 h 0.0011 l 0.00111,5.7e-4 c 0.1030941,0.0267 0.2031529,0.0374 0.2993261,0.0279 h 5.625e-4 0.00111 c 0.097338,-0.0118 0.1900699,-0.0428 0.2741936,-0.0931 l 0.0011,-5.8e-4 5.757e-4,-5.7e-4 c 0.0819,-0.0505 0.1577549,-0.11827 0.2296329,-0.20107 l 0.4072871,-0.4684 c 0.031007,-0.0358 0.056257,-0.0542 0.069078,-0.0607 l 0.00131,-0.001 0.00131,-10e-4 c 0.017139,-0.009 0.031661,-0.0132 0.046314,-0.0132 0.016615,-5.8e-4 0.034408,8.6e-4 0.058873,0.0118 l 0.00262,10e-4 0.00262,5.8e-4 c 0.032838,0.0118 0.069994,0.0269 0.1102897,0.047 v -5.8e-4 c 0.049585,0.0246 0.087264,0.0498 0.1148688,0.073 l 0.00131,0.001 0.0011,10e-4 c 0.014653,0.0118 0.021587,0.0222 0.027474,0.0457 0.00392,0.0199 0.00392,0.0631 -0.010466,0.12625 -1.308e-4,5.7e-4 1.439e-4,5.5e-4 0,0.001 -0.015961,0.0615 -0.051285,0.15178 -0.1074115,0.26505 -0.043566,0.0881 -0.087264,0.17075 -0.1301759,0.24847 -0.042651,0.0771 -0.081245,0.14448 -0.1165696,0.20108 l -5.756e-4,5.7e-4 -5.626e-4,10e-4 c -0.040819,0.0675 -0.080984,0.129 -0.1194478,0.18565 l -0.093674,0.13876 0.5500881,0.27305 0.069732,-0.0451 c 0.059266,-0.0386 0.1146072,-0.0901 0.1725126,-0.15539 h 5.756e-4 c 0.051809,-0.0586 0.106234,-0.13258 0.1667953,-0.22278 0.066331,-0.0965 0.1344802,-0.2172 0.2073656,-0.36442 0.094852,-0.19163 0.1585791,-0.35871 0.1890756,-0.5084 0.032184,-0.14943 0.034016,-0.29037 -0.00523,-0.41817 l -5.757e-4,-5.6e-4 v -5.8e-4 c -0.039903,-0.12586 -0.1181395,-0.2373 -0.2250669,-0.32561 -0.1007392,-0.0845 -0.2246483,-0.16161 -0.3724339,-0.23473 -0.093544,-0.0463 -0.1793811,-0.084 -0.2582062,-0.11304 h -5.888e-4 c -0.079283,-0.0292 -0.1534113,-0.0501 -0.2239156,-0.061 H 4.09113 c -0.072087,-0.0118 -0.1430888,-0.0132 -0.2113559,-5.6e-4 h -0.00109 c -0.064499,0.0105 -0.1265127,0.0311 -0.1845097,0.0611 -0.05835,0.0289 -0.1138221,0.0675 -0.165657,0.11421 -5.626e-4,6e-4 -0.00105,0.001 -0.00131,0.003 -5.233e-4,5.9e-4 -0.00122,5.6e-4 -0.00131,0.001 -0.050108,0.0433 -0.1003466,0.0931 -0.1525217,0.15024 l -0.3924378,0.42958 c -0.033231,0.0353 -0.061621,0.0594 -0.078891,0.0707 l -5.756e-4,5.8e-4 c -0.013345,0.008 -0.023157,0.0118 -0.030222,0.0132 -0.00785,5.8e-4 -0.01884,-2.6e-4 -0.035455,-0.005 h -6.018e-4 c -0.025381,-0.009 -0.05351,-0.0208 -0.086217,-0.0373 -0.061752,-0.0306 -0.1015241,-0.0607 -0.1187937,-0.0789 -0.013606,-0.0146 -0.017531,-0.0222 -0.018839,-0.0434 -0.00131,-0.0218 0.00523,-0.067 0.027998,-0.12913 0.024858,-0.067 0.063191,-0.15515 0.1159154,-0.26162 0.0331,-0.0669 0.067901,-0.13083 0.1033558,-0.19079 l 0.00111,-0.001 5.626e-4,-10e-4 c 0.035586,-0.0628 0.068424,-0.11775 0.098777,-0.16452 l 5.626e-4,-5.8e-4 5.756e-4,-10e-4 c 0.035847,-0.0573 0.070648,-0.11133 0.1045332,-0.16168 l 0.093674,-0.13874 z m 21.4068596,0.0411 -0.133669,0.0583 -2.832733,1.23957 0.315327,0.72086 0.949957,-0.41469 0.202787,0.46441 c 0.02747,0.0627 0.06097,0.12586 0.09708,0.18563 v 0.003 c 0.04095,0.0653 0.08988,0.1235 0.145077,0.17709 l 0.0013,0.003 c 0.05848,0.0545 0.125597,0.10087 0.198797,0.13815 0.07994,0.0408 0.170367,0.0653 0.265611,0.0754 0.09747,0.0105 0.199934,0.003 0.310747,-0.0171 0.115523,-0.0216 0.238334,-0.0615 0.369595,-0.11879 0.129784,-0.0568 0.242625,-0.11775 0.336456,-0.18563 l 0.0026,-0.003 c 0.09119,-0.0646 0.167397,-0.13449 0.22678,-0.21134 0.05874,-0.075 0.10401,-0.15397 0.13138,-0.23764 0.02512,-0.0768 0.03873,-0.15627 0.03938,-0.23537 v -0.003 c 0.0013,-0.0784 -0.0079,-0.15735 -0.02852,-0.23306 -0.01897,-0.0699 -0.04252,-0.13641 -0.07078,-0.20108 z m -14.2373462,0.29018 c 0.035324,0.004 0.070387,0.0153 0.1033558,0.0337 0.1321514,0.0739 0.1791064,0.23972 0.1050565,0.37187 l -0.2673381,0.47698 c -0.07405,0.13215 -0.2397199,0.17911 -0.3718714,0.10506 -0.1321514,-0.0739 -0.1791063,-0.23972 -0.1050565,-0.37187 l 0.2673381,-0.47698 c 0.055472,-0.0992 0.1625825,-0.15067 0.2684764,-0.13876 z m 13.8637612,0.73346 0.181644,0.41243 c 0.02263,0.0512 0.02407,0.0841 0.02172,0.10113 v 0.004 0.003 c -0.0026,0.0279 -0.01047,0.0468 -0.028,0.0691 v 0.003 l -0.0026,0.003 c -0.01832,0.0262 -0.04409,0.0508 -0.08229,0.0754 -0.04448,0.0284 -0.09603,0.0557 -0.151371,0.0801 -0.05678,0.025 -0.107673,0.0433 -0.157087,0.0559 h -0.0026 c -0.04213,0.0118 -0.07588,0.0132 -0.105711,0.009 h -0.0026 c -0.02473,-0.003 -0.04527,-0.0105 -0.06738,-0.0284 v -0.003 c -0.01439,-0.0118 -0.03899,-0.0399 -0.06227,-0.0931 l -0.179368,-0.41243 z m -6.409784,0.45127 c -0.362974,-0.008 -0.753227,0.0615 -1.103041,0.28047 -0.349826,0.21892 -0.629462,0.5909 -0.771165,1.05334 0,8.9e-4 0,0.001 0,0.003 l -1.548033,5.1365 c -0.0052,0.0192 -0.01047,0.0386 -0.01374,0.0582 H 7.7472938 c -0.2839405,-1.3e-4 -0.5269835,0.20365 -0.5763718,0.48326 -0.10244,0.58445 -0.1557794,1.18205 -0.1576633,1.78111 0,8.8e-4 0,10e-4 0,0.003 0,1.96917 0.5917574,3.39004 1.5623202,4.75837 H 5.8994108 c -0.7802967,0 -0.7802967,1.17044 0,1.17044 H 18.704115 c 0.780297,0 0.780297,-1.17044 0,-1.17044 H 17.92323 c 0.970288,-1.3683 1.558644,-2.78946 1.560043,-4.75837 0,-0.60247 -0.05495,-1.20075 -0.157663,-1.78339 -0.04932,-0.27962 -0.292431,-0.48337 -0.576372,-0.48326 h -0.211356 l 1.485196,-3.41365 c 1.3e-5,-0.001 1.3e-5,-0.003 0,-0.004 0.305161,-0.71086 0.141925,-1.45046 -0.237626,-1.92389 -0.379564,-0.47345 -0.902702,-0.7513 -1.383528,-0.93512 -0.360581,-0.13773 -0.771387,-0.2465 -1.206999,-0.25419 z m -0.02172,1.16988 c 0.243239,0.004 0.543638,0.0746 0.811722,0.17708 0.357336,0.13669 0.714345,0.35786 0.887695,0.57408 0.173323,0.21623 0.235546,0.35927 0.07536,0.73232 l -1.632014,3.75413 c -0.01753,0.0395 -0.03048,0.081 -0.03886,0.12338 h -2.29977 l 1.464067,-4.85774 c 0.07431,-0.24014 0.16359,-0.33521 0.269614,-0.40158 0.106627,-0.0667 0.259384,-0.10532 0.462131,-0.10179 z m -6.893031,0.044 c -0.4347744,0.0237 -0.8385683,0.30489 -0.995656,0.73462 -0.2094589,0.57292 0.085563,1.22892 0.6609142,1.44234 0.5753388,0.21342 1.2243338,-0.0925 1.4337798,-0.66547 0.209472,-0.57295 -0.08674,-1.23181 -0.662052,-1.44522 -0.143822,-0.0534 -0.292065,-0.074 -0.436986,-0.0662 z m -2.5642561,0.21252 c -0.2482369,0.0132 -0.4800809,0.17054 -0.570092,0.41642 l -0.2010727,0.54953 c -0.1199711,0.3278 0.052463,0.70072 0.3798651,0.82199 l 0.5363902,0.19878 c 0.3273499,0.12128 0.6991427,-0.0504 0.8191401,-0.37814 l 0.2010727,-0.54952 c 0.1199711,-0.32782 -0.052463,-0.70075 -0.3798651,-0.82202 L 7.9649,280.09047 c -0.081769,-0.0302 -0.1662981,-0.0424 -0.2490481,-0.0383 z m -0.1376594,0.16907 c 0.022241,-0.003 0.044613,1.2e-4 0.066854,0.008 l 0.033754,0.0105 c 0.088572,0.0268 0.1325962,0.11761 0.098777,0.20391 l -0.1216719,0.31134 c -0.033754,0.0862 -0.1324654,0.13435 -0.2210636,0.10728 l -0.033754,-0.0105 c -0.088572,-0.0268 -0.1325963,-0.11827 -0.098777,-0.2045 l 0.1216719,-0.31075 c 0.025381,-0.0646 0.087525,-0.10806 0.1542356,-0.11421 z m 2.3797465,0.0645 a 0.29334304,0.30556564 0 0 1 0.293034,0.30561 0.29334304,0.30556564 0 0 1 -0.293034,0.30562 0.29334304,0.30556564 0 0 1 -0.2936219,-0.30562 0.29334304,0.30556564 0 0 1 0.2936219,-0.30561 z m 2.802446,0.37701 c -0.07444,0.003 -0.14899,0.0194 -0.219926,0.0525 l -0.416419,0.19533 c -0.283718,0.13288 -0.412023,0.48095 -0.282187,0.76602 l 0.192503,0.42216 c 0.129784,0.28507 0.474887,0.41382 0.758592,0.28104 l 0.416995,-0.19479 c 0.283705,-0.13274 0.412599,-0.4838 0.282763,-0.76887 l -0.192503,-0.42272 c -0.09734,-0.21382 -0.31657,-0.33797 -0.539818,-0.33074 z m -2.506547,1.81081 c -0.07366,0.003 -0.147891,0.019 -0.218212,0.0519 l -0.4101524,0.19253 c -0.2813238,0.13171 -0.408072,0.47476 -0.2793221,0.75745 l 0.1907894,0.41814 c 0.1287368,0.28268 0.4681231,0.40816 0.7494471,0.27648 l 0.410715,-0.1925 c 0.281324,-0.13172 0.409786,-0.47591 0.281049,-0.75861 l -0.190789,-0.41812 c -0.09655,-0.21204 -0.312776,-0.33473 -0.533525,-0.32734 z m 2.298056,0.45299 c -0.273056,0.0147 -0.526499,0.18996 -0.625499,0.46099 -0.132007,0.3613 0.05429,0.77289 0.415857,0.9071 0.361588,0.1342 0.765971,-0.058 0.897965,-0.41927 0.132008,-0.36134 -0.05194,-0.77235 -0.413567,-0.90657 -0.0904,-0.0335 -0.183738,-0.047 -0.274756,-0.0423 z m -0.09943,0.23077 a 0.21851061,0.22761522 0 0 1 0.218212,0.22793 0.21851061,0.22761522 0 0 1 -0.218212,0.22734 0.21851061,0.22761522 0 0 1 -0.218787,-0.22734 0.21851061,0.22761522 0 0 1 0.218787,-0.22793 z m -4.1722756,3.16921 h 9.9359936 c 0.04501,0.3637 0.0993,0.72751 0.09943,1.09445 -0.0013,1.88307 -0.523686,3.00645 -1.54632,4.36364 -0.08543,0.11395 -0.126512,0.25504 -0.115392,0.397 H 9.8448398 c 0.010466,-0.14197 -0.030222,-0.28321 -0.1159154,-0.397 -1.022123,-1.35692 -1.5452862,-2.47798 -1.5457572,-4.35906 v -0.003 c 0.00122,-0.36942 0.052855,-0.73298 0.097076,-1.09676 z"
         style="color:#000000;font-style:normal;font-variant:normal;font-weight:normal;font-stretch:normal;font-size:medium;line-height:normal;font-family:sans-serif;font-variant-ligatures:normal;font-variant-position:normal;font-variant-caps:normal;font-variant-numeric:normal;font-variant-alternates:normal;font-feature-settings:normal;text-indent:0;text-align:start;text-decoration:none;text-decoration-line:none;text-decoration-style:solid;text-decoration-color:#000000;letter-spacing:normal;word-spacing:normal;text-transform:none;writing-mode:lr-tb;direction:ltr;text-orientation:mixed;dominant-baseline:auto;baseline-shift:baseline;text-anchor:start;white-space:normal;shape-padding:0;clip-rule:nonzero;display:inline;overflow:visible;visibility:visible;opacity:1;isolation:auto;mix-blend-mode:normal;color-interpolation:sRGB;color-interpolation-filters:linearRGB;solid-color:#000000;solid-opacity:1;vector-effect:none;fill:#4d4d4d;fill-opacity:1;fill-rule:nonzero;stroke:none;stroke-width:0.92606735;stroke-linecap:round;stroke-linejoin:round;stroke-miterlimit:4;stroke-dasharray:none;stroke-dashoffset:0;stroke-opacity:1;paint-order:stroke fill markers;color-rendering:auto;image-rendering:auto;shape-rendering:auto;text-rendering:auto;enable-background:accumulate" />
      <ellipse
         transform="matrix(0.88260856,0.47010864,-0.41112364,0.91157959,0,0)"
         ry="1.615682"
         rx="1.0492738"
         cy="247.67679"
         cx="133.30592"
         id="path865"
         style="opacity:1;vector-effect:none;fill:#ffffff;fill-opacity:1;stroke:none;stroke-width:0.26279119;stroke-linecap:round;stroke-linejoin:round;stroke-miterlimit:4;stroke-dasharray:none;stroke-dashoffset:0;stroke-opacity:1;paint-order:stroke fill markers" />
    </g>
  </g>
</svg>
