<?xml version="1.0" encoding="UTF-8" standalone="no"?>
<!-- Created with Inkscape (http://www.inkscape.org/) -->

<svg
   xmlns:dc="http://purl.org/dc/elements/1.1/"
   xmlns:cc="http://creativecommons.org/ns#"
   xmlns:rdf="http://www.w3.org/1999/02/22-rdf-syntax-ns#"
   xmlns:svg="http://www.w3.org/2000/svg"
   xmlns="http://www.w3.org/2000/svg"
   xmlns:sodipodi="http://sodipodi.sourceforge.net/DTD/sodipodi-0.dtd"
   xmlns:inkscape="http://www.inkscape.org/namespaces/inkscape"
   width="100"
   height="100"
   viewBox="0 0 26.458333 26.458334"
   version="1.1"
   id="svg8"
   sodipodi:docname="spiceUp-7.svg"
   inkscape:version="0.92.4 (5da689c313, 2019-01-14)">
  <defs
     id="defs2" />
  <sodipodi:namedview
     id="base"
     pagecolor="#ffffff"
     bordercolor="#666666"
     borderopacity="1.0"
     inkscape:pageopacity="0.0"
     inkscape:pageshadow="2"
     inkscape:zoom="2.93125"
     inkscape:cx="54.119139"
     inkscape:cy="62.711738"
     inkscape:document-units="px"
     inkscape:current-layer="layer1"
     showgrid="false"
     units="px"
     inkscape:window-width="1366"
     inkscape:window-height="745"
     inkscape:window-x="-8"
     inkscape:window-y="-8"
     inkscape:window-maximized="1"
     inkscape:snap-global="false" />
  <metadata
     id="metadata5">
    <rdf:RDF>
      <cc:Work
         rdf:about="">
        <dc:format>image/svg+xml</dc:format>
        <dc:type
           rdf:resource="http://purl.org/dc/dcmitype/StillImage" />
        <dc:title></dc:title>
      </cc:Work>
    </rdf:RDF>
  </metadata>
  <g
     inkscape:label="Layer 1"
     inkscape:groupmode="layer"
     id="layer1"
     transform="translate(0,-270.54165)">
    <g
       id="g898"
       transform="matrix(1.2526582,0,0,1.2526582,-2.6808905,-76.031354)"
       style="stroke-width:0.79830235">
      <path
         sodipodi:nodetypes="ccccccccccccccc"
         inkscape:connector-curvature="0"
         id="rect1229"
         d="m 17.545593,281.05303 -2.286008,6.28414 2.415188,-0.17426 c 0.0087,-0.0466 0.02355,-0.092 0.04267,-0.13563 l 1.792336,-4.12271 c 0.175872,-0.40967 0.107329,-0.5667 -0.08289,-0.80416 -0.190371,-0.23743 -0.582593,-0.47999 -0.975031,-0.63002 -0.180486,-0.0691 -0.721717,-0.3836 -0.906238,-0.41745 z m -7.6936163,7.39458 c -0.8431362,4.58678 8.9125243,4.18228 -1.1303167,6.43006 h 8.268867 c -0.01146,-0.15591 0.03262,-0.31025 0.12658,-0.43533 1.123033,-1.49047 1.696259,-2.72419 1.697867,-4.79217 -1.01e-4,-0.40298 -0.05977,-0.80313 -0.109189,-1.20256 z"
         style="opacity:1;vector-effect:none;fill:#ececec;fill-opacity:1;stroke:none;stroke-width:0.23949069;stroke-linecap:round;stroke-linejoin:round;stroke-miterlimit:4;stroke-dasharray:none;stroke-dashoffset:0;stroke-opacity:1;paint-order:stroke fill markers" />
      <g
         id="g892"
         style="stroke-width:0.79830235">
        <path
           style="color:#000000;font-style:normal;font-variant:normal;font-weight:normal;font-stretch:normal;font-size:medium;line-height:normal;font-family:sans-serif;font-variant-ligatures:normal;font-variant-position:normal;font-variant-caps:normal;font-variant-numeric:normal;font-variant-alternates:normal;font-feature-settings:normal;text-indent:0;text-align:start;text-decoration:none;text-decoration-line:none;text-decoration-style:solid;text-decoration-color:#000000;letter-spacing:normal;word-spacing:normal;text-transform:none;writing-mode:lr-tb;direction:ltr;text-orientation:mixed;dominant-baseline:auto;baseline-shift:baseline;text-anchor:start;white-space:normal;shape-padding:0;clip-rule:nonzero;display:inline;overflow:visible;visibility:visible;opacity:1;isolation:auto;mix-blend-mode:normal;color-interpolation:sRGB;color-interpolation-filters:linearRGB;solid-color:#000000;solid-opacity:1;vector-effect:none;fill:#4d4d4d;fill-opacity:1;fill-rule:nonzero;stroke:none;stroke-width:0.84486997;stroke-linecap:round;stroke-linejoin:round;stroke-miterlimit:4;stroke-dasharray:none;stroke-dashoffset:0;stroke-opacity:1;paint-order:stroke fill markers;color-rendering:auto;image-rendering:auto;shape-rendering:auto;text-rendering:auto;enable-background:accumulate"
           d="m 9.566492,278.30166 c -0.3283005,0.0209 -0.643311,0.19688 -0.8186538,0.49683 l -0.324321,0.55454 c -0.2805425,0.47988 -0.1129295,1.12158 0.3650964,1.4052 l 0.540122,0.32057 c 0.4780832,0.28357 1.1165104,0.12038 1.3970534,-0.35947 l 0.324321,-0.55517 c 0.280528,-0.47989 0.112356,-1.12096 -0.365729,-1.40457 l -0.540123,-0.32054 C 9.9649789,278.33268 9.763473,278.28909 9.5664925,278.3017 Z m -0.168116,0.38817 c 0.038787,0.003 0.077303,0.0168 0.1135024,0.0371 0.1451271,0.0812 0.1966924,0.26326 0.1153752,0.40838 l -0.2935883,0.52382 c -0.081319,0.14513 -0.263258,0.19669 -0.4083854,0.11533 -0.1451276,-0.0812 -0.1966932,-0.26327 -0.1153728,-0.4084 l 0.2935885,-0.5238 c 0.060918,-0.10892 0.1785466,-0.16547 0.2948385,-0.15239 z m 8.185893,1.30105 c -0.398614,-0.009 -0.827188,0.0675 -1.211349,0.30803 -0.384178,0.24042 -0.691271,0.64891 -0.846887,1.15676 v 0.002 l -1.700038,5.64088 c -0.0058,0.0211 -0.01146,0.0424 -0.01508,0.064 H 7.2090342 c -0.3118211,-1.3e-4 -0.5787288,0.22366 -0.6329666,0.53072 -0.1124983,0.64183 -0.1710755,1.29812 -0.1731446,1.95601 v 0.002 c 0,2.16253 0.649863,3.7229 1.7157269,5.22559 H 5.1797048 c -0.8569151,0 -0.8569151,1.28538 0,1.28538 H 19.241723 c 0.856914,0 0.856914,-1.28538 0,-1.28538 h -0.857562 c 1.065562,-1.50265 1.711689,-3.06335 1.713227,-5.22559 0,-0.66164 -0.06035,-1.31865 -0.173146,-1.9585 -0.05416,-0.30708 -0.321145,-0.53084 -0.632966,-0.53071 h -0.232109 l 1.631029,-3.74886 c 1.5e-5,-10e-4 1.5e-5,-0.002 0,-0.003 0.335126,-0.78066 0.155861,-1.59288 -0.260959,-2.11281 -0.416834,-0.51992 -0.991339,-0.82506 -1.519379,-1.02693 -0.395987,-0.15125 -0.847131,-0.27071 -1.325515,-0.27916 z m -0.02385,1.28477 c 0.267124,0.003 0.597019,0.082 0.891427,0.19447 0.392423,0.1501 0.784487,0.39299 0.974859,0.63044 0.190342,0.23746 0.258676,0.39456 0.08276,0.80423 l -1.792263,4.12275 c -0.01926,0.0433 -0.03347,0.0889 -0.04267,0.13551 H 15.14894 l 1.607827,-5.33474 c 0.0816,-0.26372 0.179653,-0.36812 0.296088,-0.44101 0.1171,-0.0733 0.284854,-0.11569 0.507508,-0.11175 z m -7.5698663,0.0483 c -0.4774653,0.026 -0.9209077,0.33483 -1.09342,0.80674 -0.2300261,0.62919 0.093965,1.34959 0.7258101,1.58398 0.6318302,0.23437 1.3445512,-0.10156 1.5745632,-0.73081 0.23004,-0.62923 -0.09525,-1.35277 -0.72706,-1.58714 -0.157943,-0.0587 -0.320743,-0.0813 -0.4798933,-0.0727 z m -2.8160433,0.23339 c -0.2726117,0.0146 -0.5272208,0.18727 -0.6260702,0.45731 l -0.2208163,0.60348 c -0.1317513,0.35999 0.057615,0.76953 0.4171646,0.9027 l 0.5890591,0.21831 c 0.3594928,0.13318 0.7677926,-0.0553 0.8995725,-0.41527 l 0.2208166,-0.6035 c 0.1317512,-0.36001 -0.057614,-0.76955 -0.4171647,-0.90273 l -0.5890591,-0.21829 c -0.089798,-0.0332 -0.1826271,-0.0465 -0.2735025,-0.0422 z M 7.023333,281.743 c 0.024425,-0.002 0.048994,1.4e-4 0.073419,0.009 l 0.037068,0.0111 c 0.097269,0.0294 0.1456159,0.12916 0.1084754,0.22393 l -0.1336191,0.3419 c -0.037068,0.0946 -0.1454725,0.14755 -0.2427701,0.1178 l -0.037068,-0.0111 c -0.097269,-0.0294 -0.1456162,-0.12988 -0.1084754,-0.22458 l 0.1336192,-0.34126 c 0.027873,-0.0709 0.096119,-0.11865 0.1693801,-0.12542 z m 2.6134168,0.0708 c 0.1777989,2e-4 0.3218278,0.1504 0.3218063,0.33561 3.21e-5,0.18522 -0.1439999,0.33543 -0.3218063,0.33563 -0.178059,1.8e-4 -0.3224851,-0.15015 -0.322453,-0.33563 -2.15e-5,-0.18547 0.1444015,-0.33579 0.322453,-0.33561 z m 3.0776212,0.41403 c -0.08175,0.002 -0.163619,0.0212 -0.24152,0.0577 l -0.457308,0.2145 c -0.311577,0.14594 -0.452481,0.52819 -0.309896,0.84124 l 0.211405,0.46361 c 0.142528,0.31305 0.521518,0.45445 0.83308,0.30863 l 0.45794,-0.21392 c 0.311563,-0.14577 0.453111,-0.5313 0.310528,-0.84435 L 13.307199,282.591 c -0.106898,-0.2348 -0.347656,-0.37116 -0.592824,-0.36322 z m -2.7526686,1.98861 c -0.080893,0.002 -0.1624124,0.0209 -0.2396372,0.057 l -0.4504254,0.21144 c -0.3089476,0.14465 -0.4481413,0.52137 -0.3067494,0.83183 l 0.2095235,0.45919 c 0.1413774,0.31044 0.5140885,0.44824 0.8230349,0.30363 l 0.4510432,-0.21141 c 0.308948,-0.14465 0.450024,-0.52263 0.308646,-0.83308 l -0.209523,-0.45919 c -0.106031,-0.23286 -0.343488,-0.36759 -0.5859126,-0.35947 z m 2.5237046,0.49748 c -0.299866,0.0162 -0.578197,0.20861 -0.686917,0.50625 -0.144968,0.39678 0.05962,0.84879 0.45669,0.99616 0.397093,0.14738 0.841184,-0.0637 0.986138,-0.46043 0.14497,-0.39683 -0.05704,-0.84819 -0.454176,-0.99558 -0.09928,-0.0368 -0.201778,-0.0516 -0.301735,-0.0465 z m -0.10919,0.25343 c 0.132527,1.9e-4 0.239816,0.11225 0.239638,0.2503 -1.51e-4,0.13781 -0.107343,0.24949 -0.239638,0.24968 -0.132542,1.7e-4 -0.240119,-0.11162 -0.24027,-0.24968 -1.78e-4,-0.13831 0.107496,-0.25048 0.24027,-0.2503 z m -4.5819556,3.4804 H 18.70588 c 0.04942,0.3994 0.109055,0.79894 0.10919,1.2019 -0.0015,2.06798 -0.575107,3.30166 -1.698155,4.79212 -0.09382,0.12515 -0.138935,0.28008 -0.126722,0.43598 H 9.5125365 c 0.011458,-0.15591 -0.033193,-0.311 -0.1272972,-0.43598 -1.1224864,-1.49016 -1.6970198,-2.72129 -1.6975371,-4.78709 v -0.002 c 0.00133,-0.4057 0.058045,-0.80494 0.106608,-1.20446 z"
           id="path1080"
           inkscape:connector-curvature="0"
           sodipodi:nodetypes="cccccccccccccccccccccccccccccscssssccccccccccccccccccccccccccccccccccccccccccccccccccccccccccccccccccccccccccccccccccccccccccccccccccccc" />
      </g>
      <ellipse
         transform="matrix(0.88260857,0.47010862,-0.41112364,0.91157959,0,0)"
         ry="1.7743284"
         rx="1.1523036"
         cy="249.61673"
         cx="134.49905"
         id="path865"
         style="opacity:1;vector-effect:none;fill:#ffffff;fill-opacity:1;stroke:none;stroke-width:0.2397497;stroke-linecap:round;stroke-linejoin:round;stroke-miterlimit:4;stroke-dasharray:none;stroke-dashoffset:0;stroke-opacity:1;paint-order:stroke fill markers" />
    </g>
  </g>
</svg>
