<?xml version="1.0" encoding="UTF-8" standalone="no"?>
<!-- Created with Inkscape (http://www.inkscape.org/) -->

<svg
   xmlns:dc="http://purl.org/dc/elements/1.1/"
   xmlns:cc="http://creativecommons.org/ns#"
   xmlns:rdf="http://www.w3.org/1999/02/22-rdf-syntax-ns#"
   xmlns:svg="http://www.w3.org/2000/svg"
   xmlns="http://www.w3.org/2000/svg"
   xmlns:sodipodi="http://sodipodi.sourceforge.net/DTD/sodipodi-0.dtd"
   xmlns:inkscape="http://www.inkscape.org/namespaces/inkscape"
   width="100"
   height="100"
   viewBox="0 0 26.458333 26.458334"
   version="1.1"
   id="svg8"
   sodipodi:docname="spiceUp-6.svg"
   inkscape:version="0.92.4 (5da689c313, 2019-01-14)">
  <defs
     id="defs2" />
  <sodipodi:namedview
     id="base"
     pagecolor="#ffffff"
     bordercolor="#666666"
     borderopacity="1.0"
     inkscape:pageopacity="0.0"
     inkscape:pageshadow="2"
     inkscape:zoom="2.93125"
     inkscape:cx="54.119139"
     inkscape:cy="62.711738"
     inkscape:document-units="px"
     inkscape:current-layer="layer1"
     showgrid="false"
     units="px"
     inkscape:window-width="1366"
     inkscape:window-height="745"
     inkscape:window-x="-8"
     inkscape:window-y="-8"
     inkscape:window-maximized="1"
     inkscape:snap-global="false" />
  <metadata
     id="metadata5">
    <rdf:RDF>
      <cc:Work
         rdf:about="">
        <dc:format>image/svg+xml</dc:format>
        <dc:type
           rdf:resource="http://purl.org/dc/dcmitype/StillImage" />
        <dc:title></dc:title>
      </cc:Work>
    </rdf:RDF>
  </metadata>
  <g
     inkscape:label="Layer 1"
     inkscape:groupmode="layer"
     id="layer1"
     transform="translate(0,-270.54165)">
    <g
       id="g886"
       transform="matrix(1.070157,0,0,1.070157,-0.92809998,-18.284009)"
       style="stroke-width:0.93444234">
      <path
         sodipodi:nodetypes="ccccccccccccccc"
         inkscape:connector-curvature="0"
         id="rect1229"
         d="m 17.262601,279.7132 -2.136143,5.87217 2.256854,-0.16284 c 0.0081,-0.0435 0.02201,-0.086 0.03987,-0.12674 l 1.674834,-3.85243 c 0.164343,-0.38282 0.100293,-0.52955 -0.07746,-0.75144 -0.177891,-0.22187 -0.5444,-0.44853 -0.91111,-0.58872 -0.168654,-0.0646 -0.674403,-0.35845 -0.846828,-0.39008 z m -7.189241,6.90981 c -0.7878622,4.28608 8.32824,3.9081 -1.0562158,6.00852 h 7.7267798 c -0.01071,-0.14569 0.03048,-0.28991 0.118281,-0.40679 1.04941,-1.39276 1.585056,-2.5456 1.586559,-4.47801 -9.4e-5,-0.37656 -0.05585,-0.75048 -0.102031,-1.12372 z"
         style="opacity:1;vector-effect:none;fill:#ececec;fill-opacity:1;stroke:none;stroke-width:0.28033268;stroke-linecap:round;stroke-linejoin:round;stroke-miterlimit:4;stroke-dasharray:none;stroke-dashoffset:0;stroke-opacity:1;paint-order:stroke fill markers" />
      <path
         inkscape:connector-curvature="0"
         id="path1080"
         d="m 14.329628,270.67355 -0.02403,0.14885 -0.509412,3.13026 2.126716,0.34586 0.124323,-0.76205 -1.327147,-0.21511 0.08149,-0.51409 1.083873,0.17702 0.121907,-0.75502 -1.083875,-0.17528 0.07975,-0.48712 1.291972,0.20809 0.124321,-0.76204 z m -2.704709,0.11019 v 5.8e-4 c -0.08002,-0.002 -0.172669,0.001 -0.281376,0.009 -0.114121,0.008 -0.242563,0.0278 -0.385708,0.0575 -0.09237,0.019 -0.186014,0.0486 -0.279041,0.0884 -0.09788,0.0404 -0.188498,0.0959 -0.274919,0.16413 -0.08941,0.0707 -0.169514,0.1567 -0.239166,0.25674 -0.07357,0.10408 -0.129827,0.22649 -0.1682377,0.36344 -0.039203,0.13952 -0.057199,0.2956 -0.059743,0.46779 -0.00265,0.17493 0.017316,0.36748 0.06162,0.58032 0.045651,0.21991 0.1024347,0.41217 0.1705737,0.57625 0.06712,0.16156 0.143764,0.29892 0.230963,0.41619 v 0.002 c 0.08579,0.11421 0.180442,0.20731 0.285485,0.27903 v 0.002 c 0.10042,0.0672 0.207374,0.11708 0.31713,0.14841 0.108479,0.0301 0.220384,0.0438 0.332368,0.0421 0.108214,-0.002 0.21426,-0.0136 0.318887,-0.0352 l 0.119623,-0.0248 v -0.009 c 0.09036,-0.022 0.184537,-0.0425 0.259104,-0.0686 0.104726,-0.035 0.193089,-0.0699 0.267883,-0.10443 v 0.002 c 0.08538,-0.0381 0.158975,-0.0782 0.223928,-0.12191 l 0.08445,-0.0573 -0.12835,-0.61375 -0.155336,0.0469 c -0.04793,0.0151 -0.103379,0.0294 -0.164143,0.0463 l 0.0026,-0.002 c -0.05102,0.0136 -0.112244,0.0304 -0.185812,0.0487 -0.07196,0.0176 -0.154074,0.0347 -0.243866,0.0533 -0.06659,0.0136 -0.133853,0.0266 -0.201654,0.0352 l 0.004,-0.002 c -0.05853,0.008 -0.116938,0.006 -0.172923,-0.002 -0.05303,-0.009 -0.104323,-0.0253 -0.155337,-0.0533 -0.04364,-0.0237 -0.09304,-0.0632 -0.141869,-0.12432 -0.04672,-0.0584 -0.09237,-0.14284 -0.137171,-0.2503 -0.04376,-0.10466 -0.08538,-0.23861 -0.119623,-0.40331 -0.03223,-0.15563 -0.04699,-0.28864 -0.0486,-0.3945 v -0.002 c -1.07e-4,-0.10811 0.0094,-0.19594 0.02874,-0.26145 0.02094,-0.0709 0.04914,-0.12312 0.07975,-0.16002 0.03598,-0.0435 0.07331,-0.0751 0.117206,-0.10154 l 0.0026,-0.002 c 0.04888,-0.0299 0.100017,-0.0524 0.155336,-0.0686 0.06565,-0.0189 0.132647,-0.0353 0.199305,-0.0494 0.07478,-0.0157 0.146327,-0.0299 0.214557,-0.0398 h 0.0026 c 0.07115,-0.0121 0.134123,-0.0224 0.188752,-0.031 0.06552,-0.009 0.12647,-0.0163 0.183476,-0.0241 l 0.159444,-0.0223 -0.126068,-0.60904 -0.09733,-0.0199 c -0.07277,-0.0152 -0.15339,-0.0261 -0.243851,-0.0291 z m -3.9439176,1.23042 -0.7110538,0.38336 0.070888,0.13305 1.5065153,2.79148 0.7110539,-0.38572 z m 13.3288966,1.26735 -0.104323,0.10834 -1.435588,1.47544 c -0.130229,0.134 -0.231432,0.26905 -0.301314,0.40799 -0.06994,0.14027 -0.105393,0.28932 -0.09961,0.43847 0.0067,0.15065 0.05505,0.3011 0.137185,0.44552 0.08123,0.1454 0.19909,0.28945 0.349954,0.43612 0.151336,0.14706 0.298079,0.25852 0.445507,0.33471 0.147401,0.0763 0.297474,0.1199 0.447264,0.12191 h 0.0026 c 0.150394,2.9e-4 0.298466,-0.041 0.436711,-0.11721 0.136177,-0.0736 0.2683,-0.17838 0.398624,-0.31243 l 1.533475,-1.57745 -0.57622,-0.56098 -1.512974,1.55576 c -0.07625,0.0784 -0.143077,0.12983 -0.195209,0.15708 l -0.0026,0.002 c -0.05156,0.028 -0.09183,0.0365 -0.12835,0.0352 -0.03961,-0.002 -0.08337,-0.0151 -0.133049,-0.0439 h -0.0026 c -0.05277,-0.0324 -0.112912,-0.082 -0.179368,-0.14659 -0.07465,-0.0725 -0.128619,-0.13727 -0.16413,-0.1905 l -0.0014,-0.002 c -0.03048,-0.0486 -0.0439,-0.0898 -0.04686,-0.12608 -5.4e-5,-5.8e-4 4.1e-5,-0.001 0,-0.002 -8.99e-4,-0.0332 0.0081,-0.0695 0.03571,-0.11948 0.02941,-0.0533 0.08189,-0.12434 0.159444,-0.20402 l 1.512973,-1.55516 z M 5.1709123,273.9058 v 5.9e-4 c -0.084449,0.005 -0.1667074,0.0215 -0.2438517,0.0511 -0.075721,0.0274 -0.1454275,0.0648 -0.2104484,0.1126 -0.059879,0.0437 -0.1166696,0.0907 -0.1682379,0.1418 l -0.9572551,0.94844 0.1043184,0.10604 2.231062,2.25569 0.575642,-0.56745 -0.7485654,-0.75558 0.369879,-0.36757 c 0.049944,-0.0494 0.097739,-0.1027 0.1418697,-0.15944 l 0.00268,-0.002 c 0.047393,-0.0631 0.086327,-0.13131 0.1172066,-0.20401 v -0.002 c 0.030745,-0.0761 0.051152,-0.15756 0.059744,-0.24151 0.00939,-0.0915 0.00135,-0.18649 -0.024032,-0.28139 -0.02618,-0.0971 -0.070485,-0.19324 -0.1307667,-0.29193 h -0.00268 c -0.063235,-0.10281 -0.146891,-0.20612 -0.2503095,-0.31067 -0.1025729,-0.10362 -0.2014128,-0.18715 -0.3013003,-0.25206 H 5.733187 C 5.6371906,274.0222 5.5428079,273.97258 5.4471226,273.9441 H 5.44444 C 5.351534,273.9157 5.2598764,273.901 5.1700985,273.9059 Z m -0.042156,0.84882 h 0.00268 c 0.027791,-0.008 0.049675,-0.008 0.077332,0 l 0.00268,0.002 h 0.00268 c 0.031818,0.008 0.066726,0.0235 0.1043184,0.0511 0.043768,0.0322 0.086999,0.0713 0.1307665,0.11545 0.044708,0.0451 0.0823,0.0881 0.1125079,0.13064 0.025912,0.0365 0.040143,0.0695 0.046856,0.0996 v 0.002 h 0.00268 c 0.00671,0.025 0.00403,0.0448 -0.00403,0.0729 v 0.002 c -0.00537,0.0179 -0.023898,0.0514 -0.066189,0.0934 l -0.3282727,0.32592 -0.5029549,-0.50998 0.3282726,-0.32358 c 0.041083,-0.0405 0.07317,-0.0556 0.090893,-0.0598 z m 4.6778351,2.38758 c -0.3067778,0.0195 -0.601137,0.18398 -0.7649847,0.46426 l -0.3030593,0.51819 c -0.2621508,0.44842 -0.1055261,1.04805 0.3411615,1.31308 l 0.5047129,0.29955 c 0.4467412,0.26498 1.0433142,0.11249 1.3054652,-0.3359 l 0.303059,-0.51878 c 0.262138,-0.44843 0.104991,-1.04747 -0.341752,-1.31249 l -0.504714,-0.29952 c -0.167526,-0.0994 -0.3558216,-0.14013 -0.5398886,-0.12835 z m -7.5144248,0.0228 -0.076258,0.0779 c -0.054777,0.0559 -0.1107624,0.11922 -0.1676471,0.19053 v 5.8e-4 c -0.049273,0.0621 -0.1019017,0.13518 -0.1588668,0.22101 l -5.907e-4,5.8e-4 c -2.685e-4,3.1e-4 -2.82e-4,8.7e-4 -5.773e-4,0.001 -0.060818,0.089 -0.1185493,0.1891 -0.174105,0.3013 -0.069143,0.13967 -0.1173409,0.27821 -0.1418563,0.41446 -0.024838,0.13801 -0.022421,0.2734 0.0094,0.40153 v 6e-4 5.7e-4 c 0.033027,0.12848 0.098411,0.24748 0.1905111,0.3523 0.093846,0.10754 0.2167719,0.195 0.3640255,0.2679 0.1201603,0.0596 0.2317013,0.10477 0.3370665,0.13372 h 0.00113 l 0.00114,5.9e-4 c 0.1057944,0.0274 0.2084749,0.0383 0.3071675,0.0286 h 5.773e-4 0.00114 c 0.099888,-0.0121 0.1950491,-0.0439 0.2813766,-0.0956 l 0.00113,-5.8e-4 5.908e-4,-5.9e-4 c 0.084046,-0.0518 0.1618875,-0.12138 0.2356485,-0.20635 l 0.4179565,-0.48067 c 0.03182,-0.0367 0.057731,-0.0556 0.070888,-0.0623 l 0.00135,-0.001 0.00135,-10e-4 c 0.017588,-0.009 0.032491,-0.0136 0.047527,-0.0136 0.01705,-5.9e-4 0.035309,8.9e-4 0.060415,0.0121 l 0.00268,0.001 0.00268,6e-4 c 0.033699,0.0121 0.071827,0.0276 0.1131791,0.0482 v -6.1e-4 c 0.050883,0.0252 0.08955,0.0511 0.1178779,0.075 l 0.00135,0.001 0.00113,10e-4 c 0.015036,0.0121 0.022153,0.0228 0.028194,0.0469 0.00403,0.0204 0.00403,0.0647 -0.010742,0.12956 -1.343e-4,5.7e-4 1.477e-4,5.6e-4 0,10e-4 -0.016379,0.0631 -0.052629,0.15575 -0.1102247,0.27199 -0.044708,0.0904 -0.08955,0.17522 -0.1335861,0.25498 -0.043768,0.0791 -0.083374,0.14827 -0.1196234,0.20634 l -5.907e-4,5.9e-4 -5.773e-4,0.001 c -0.041888,0.0693 -0.083105,0.13239 -0.122577,0.19052 l -0.096129,0.14239 0.5644985,0.28021 0.071559,-0.0463 c 0.060818,-0.0396 0.1176094,-0.0924 0.1770318,-0.15945 h 5.906e-4 c 0.053165,-0.0601 0.109017,-0.13606 0.1711649,-0.22862 0.068068,-0.0991 0.1380031,-0.22289 0.2127978,-0.37397 0.097337,-0.19664 0.1627334,-0.3681 0.1940288,-0.52171 0.033027,-0.15335 0.034906,-0.29798 -0.00537,-0.42912 l -5.979e-4,-7e-5 v -5.8e-4 c -0.040948,-0.12916 -0.1212344,-0.24352 -0.230963,-0.33415 -0.1033777,-0.0867 -0.2305332,-0.16585 -0.3821904,-0.24088 -0.095994,-0.0476 -0.1840802,-0.0862 -0.2649702,-0.116 h -6.043e-4 c -0.081359,-0.0299 -0.1574301,-0.0515 -0.2297815,-0.0625 h -0.00114 c -0.073976,-0.0121 -0.1468372,-0.0136 -0.2168927,-5.8e-4 h -0.00111 c -0.066188,0.0104 -0.1298268,0.0319 -0.1893431,0.0627 -0.059879,0.0297 -0.1168039,0.0693 -0.1699966,0.1172 -5.774e-4,6.1e-4 -0.00107,10e-4 -0.00135,0.002 -5.371e-4,6e-4 -0.00124,5.7e-4 -0.00135,0.001 -0.051421,0.0444 -0.1029758,0.0956 -0.1565172,0.15417 l -0.4027193,0.44115 c -0.034102,0.0363 -0.063235,0.0609 -0.080958,0.0725 l -5.908e-4,5.9e-4 c -0.013694,0.008 -0.023764,0.0121 -0.031014,0.0136 -0.00806,5.8e-4 -0.019333,-2.7e-4 -0.036383,-0.006 h -6.176e-4 c -0.026046,-0.009 -0.054911,-0.0214 -0.088476,-0.0382 -0.06337,-0.0314 -0.1041836,-0.0623 -0.1219056,-0.0809 -0.013962,-0.0151 -0.017991,-0.0228 -0.019333,-0.0446 -0.00135,-0.0225 0.00537,-0.0687 0.028732,-0.13251 0.025509,-0.0687 0.064846,-0.15922 0.118952,-0.26848 0.033967,-0.0686 0.069679,-0.13426 0.1060637,-0.19579 l 0.00114,-10e-4 5.773e-4,-0.001 c 0.036518,-0.0645 0.070217,-0.12084 0.101364,-0.16882 l 5.773e-4,-6e-4 5.907e-4,-10e-4 c 0.036786,-0.0588 0.072499,-0.11421 0.1072716,-0.16591 l 0.096128,-0.14239 z m 21.9676464,0.0421 -0.137171,0.0599 -2.906941,1.27206 0.323588,0.73974 0.974842,-0.42555 0.208099,0.47656 c 0.0282,0.0644 0.06256,0.12916 0.09961,0.1905 v 0.002 c 0.04202,0.067 0.09223,0.12673 0.148877,0.18173 l 0.0014,0.002 c 0.06002,0.0559 0.128887,0.1035 0.204004,0.14177 0.08203,0.0419 0.174829,0.067 0.272569,0.0774 0.100017,0.0104 0.205172,0.002 0.318889,-0.0176 0.118549,-0.0221 0.244576,-0.0631 0.379277,-0.12191 0.133182,-0.0582 0.24898,-0.12083 0.34527,-0.1905 l 0.0026,-0.002 c 0.09358,-0.0663 0.171782,-0.13802 0.232721,-0.21688 0.06028,-0.0769 0.106741,-0.158 0.134821,-0.24386 0.02578,-0.0788 0.03974,-0.16036 0.04041,-0.24153 v -0.002 c 0.0014,-0.0804 -0.0081,-0.16147 -0.02927,-0.23916 -0.01947,-0.0717 -0.04364,-0.13998 -0.07264,-0.20634 z m -14.6103163,0.29778 c 0.036244,0.003 0.072235,0.0157 0.1060615,0.0347 0.1356129,0.0759 0.1837977,0.24601 0.1078115,0.38161 l -0.2743414,0.48948 c -0.075988,0.13562 -0.2459994,0.1838 -0.3816126,0.10777 -0.1356134,-0.0759 -0.1837984,-0.24601 -0.1078092,-0.38163 l 0.2743415,-0.48946 c 0.056924,-0.10178 0.1668415,-0.15462 0.2755096,-0.1424 z m 14.2269433,0.75267 0.186404,0.42323 c 0.02322,0.0525 0.02471,0.0863 0.02229,0.10374 v 0.003 0.002 c -0.0026,0.0285 -0.01071,0.048 -0.02873,0.0709 v 0.002 l -0.0026,0.002 c -0.0188,0.0268 -0.04525,0.052 -0.08445,0.0774 -0.04565,0.0291 -0.09854,0.0572 -0.155336,0.0822 -0.05827,0.0257 -0.110494,0.0444 -0.161202,0.0573 h -0.0026 c -0.04323,0.0121 -0.07787,0.0136 -0.10848,0.009 h -0.0026 c -0.02538,-0.002 -0.04646,-0.0104 -0.06914,-0.0291 v -0.002 c -0.01477,-0.0121 -0.04001,-0.041 -0.06391,-0.0956 l -0.184066,-0.42323 z m -6.577698,0.46309 c -0.372482,-0.008 -0.772959,0.0631 -1.131936,0.28783 -0.358992,0.22466 -0.645953,0.60637 -0.791367,1.08093 0,9.1e-4 0,10e-4 0,0.002 l -1.588587,5.27107 c -0.0054,0.0197 -0.01071,0.0396 -0.01409,0.0598 H 7.6036826 c -0.2913788,-1.2e-4 -0.5407887,0.209 -0.5914708,0.49593 -0.1051231,0.59975 -0.1598602,1.21301 -0.1617936,1.82777 0,9e-4 0,10e-4 0,0.002 0,2.02076 0.6072595,3.47884 1.6032478,4.88302 H 5.7073913 c -0.8007377,0 -0.8007377,1.20111 0,1.20111 H 18.847536 c 0.800737,0 0.800737,-1.20111 0,-1.20111 h -0.801342 c 0.995706,-1.40414 1.599475,-2.86253 1.600912,-4.88302 0,-0.61826 -0.05639,-1.2322 -0.161795,-1.8301 -0.05061,-0.28695 -0.300091,-0.49604 -0.59147,-0.49592 h -0.216893 l 1.524103,-3.50309 c 1.4e-5,-10e-4 1.4e-5,-0.002 0,-0.003 0.313156,-0.72948 0.145643,-1.48846 -0.243851,-1.9743 -0.389508,-0.48584 -0.926349,-0.77097 -1.419772,-0.95961 -0.370027,-0.14133 -0.791595,-0.25296 -1.238618,-0.26086 z m -0.02229,1.20054 c 0.249612,0.003 0.55788,0.0766 0.832987,0.18172 0.366697,0.14026 0.733058,0.36723 0.91095,0.58911 0.177863,0.22189 0.241717,0.36869 0.07733,0.75151 l -1.674766,3.85247 c -0.018,0.0405 -0.03128,0.0831 -0.03987,0.12662 h -2.360016 l 1.502421,-4.985 c 0.07625,-0.24643 0.167876,-0.34399 0.276677,-0.4121 0.109424,-0.0685 0.26618,-0.10811 0.474237,-0.10442 z m -7.073604,0.0451 c -0.4461638,0.0243 -0.8605352,0.31288 -1.021738,0.75386 -0.2149461,0.58794 0.087805,1.26111 0.6782277,1.48013 0.5904093,0.21901 1.2564063,-0.0949 1.4713393,-0.6829 0.214959,-0.58797 -0.08901,-1.26408 -0.679396,-1.48309 -0.147589,-0.0548 -0.299716,-0.076 -0.448433,-0.0679 z m -2.6314301,0.21809 c -0.2547399,0.0136 -0.4926574,0.175 -0.5850265,0.42733 l -0.2063401,0.56392 c -0.123114,0.33639 0.053838,0.71908 0.3898163,0.84352 l 0.5504417,0.204 c 0.3359253,0.12445 0.7174579,-0.0517 0.8405987,-0.38805 l 0.2063403,-0.56393 c 0.1231139,-0.33641 -0.053837,-0.7191 -0.3898163,-0.84355 l -0.5504418,-0.20398 c -0.083911,-0.031 -0.1706545,-0.0435 -0.2555723,-0.0394 z m -0.1412656,0.17349 c 0.022824,-0.002 0.045782,1.3e-4 0.068606,0.008 l 0.034638,0.0104 c 0.090892,0.0275 0.1360697,0.12069 0.101364,0.20925 L 7.509901,280.905 c -0.034638,0.0884 -0.1359357,0.13787 -0.2268547,0.11007 l -0.034638,-0.0104 c -0.090892,-0.0275 -0.1360699,-0.12136 -0.101364,-0.20985 l 0.1248594,-0.31889 c 0.026046,-0.0663 0.089818,-0.11087 0.158276,-0.1172 z m 2.4420873,0.0662 a 0.30102764,0.31357043 0 0 1 0.3007094,0.31361 0.30102764,0.31357043 0 0 1 -0.3007094,0.31362 0.30102764,0.31357043 0 0 1 -0.3013138,-0.31362 0.30102764,0.31357043 0 0 1 0.3013138,-0.31361 z m 2.8758604,0.38689 c -0.07639,0.002 -0.152893,0.0198 -0.225687,0.0539 l -0.427328,0.20044 c -0.291151,0.13637 -0.422817,0.49356 -0.28958,0.78609 l 0.197546,0.43322 c 0.133184,0.29253 0.487328,0.42466 0.778465,0.2884 l 0.427919,-0.1999 c 0.291137,-0.13621 0.423406,-0.49647 0.29017,-0.789 l -0.197542,-0.4338 c -0.09989,-0.21941 -0.324864,-0.34683 -0.55396,-0.33941 z m -2.572211,1.85824 c -0.07559,0.002 -0.151765,0.0195 -0.2239271,0.0533 l -0.4208966,0.19758 c -0.2886937,0.13516 -0.4187622,0.48719 -0.2866396,0.77729 l 0.1957876,0.42909 c 0.1321091,0.29009 0.4803861,0.41885 0.7690787,0.28372 l 0.421474,-0.19755 c 0.288694,-0.13516 0.420522,-0.48836 0.288412,-0.77846 l -0.195787,-0.42909 c -0.09908,-0.21759 -0.32097,-0.34349 -0.547502,-0.3359 z m 2.358257,0.46486 c -0.280208,0.0151 -0.540292,0.19494 -0.641884,0.47306 -0.135465,0.37077 0.05571,0.79315 0.42675,0.93086 0.371061,0.13772 0.786038,-0.0595 0.921489,-0.43025 0.135466,-0.37081 -0.0533,-0.79258 -0.424401,-0.93031 -0.09277,-0.0344 -0.18855,-0.0482 -0.281954,-0.0434 z m -0.102032,0.23682 a 0.22423485,0.23357797 0 0 1 0.223928,0.23389 0.22423485,0.23357797 0 0 1 -0.223928,0.23331 0.22423485,0.23357797 0 0 1 -0.224518,-0.23331 0.22423485,0.23357797 0 0 1 0.224518,-0.23389 z M 8.1505404,286.6231 H 18.346822 c 0.04618,0.37322 0.101906,0.74657 0.102032,1.12311 -0.0014,1.93241 -0.537405,3.08521 -1.586828,4.47796 -0.08767,0.11694 -0.129827,0.26172 -0.118415,0.4074 H 9.7561727 c 0.010707,-0.14569 -0.031017,-0.29062 -0.1189519,-0.4074 -1.0488988,-1.39247 -1.5857672,-2.54289 -1.5862505,-4.47326 v -0.002 c 0.00124,-0.3791 0.05424,-0.75217 0.099619,-1.1255 z"
         style="color:#000000;font-style:normal;font-variant:normal;font-weight:normal;font-stretch:normal;font-size:medium;line-height:normal;font-family:sans-serif;font-variant-ligatures:normal;font-variant-position:normal;font-variant-caps:normal;font-variant-numeric:normal;font-variant-alternates:normal;font-feature-settings:normal;text-indent:0;text-align:start;text-decoration:none;text-decoration-line:none;text-decoration-style:solid;text-decoration-color:#000000;letter-spacing:normal;word-spacing:normal;text-transform:none;writing-mode:lr-tb;direction:ltr;text-orientation:mixed;dominant-baseline:auto;baseline-shift:baseline;text-anchor:start;white-space:normal;shape-padding:0;clip-rule:nonzero;display:inline;overflow:visible;visibility:visible;opacity:1;isolation:auto;mix-blend-mode:normal;color-interpolation:sRGB;color-interpolation-filters:linearRGB;solid-color:#000000;solid-opacity:1;vector-effect:none;fill:#4d4d4d;fill-opacity:1;fill-rule:nonzero;stroke:none;stroke-width:0.98895144;stroke-linecap:round;stroke-linejoin:round;stroke-miterlimit:4;stroke-dasharray:none;stroke-dashoffset:0;stroke-opacity:1;paint-order:stroke fill markers;color-rendering:auto;image-rendering:auto;shape-rendering:auto;text-rendering:auto;enable-background:accumulate" />
      <ellipse
         transform="matrix(0.88260857,0.47010862,-0.41112364,0.91157959,0,0)"
         ry="1.6580075"
         rx="1.0767612"
         cy="247.95616"
         cx="133.51329"
         id="path865"
         style="opacity:1;vector-effect:none;fill:#ffffff;fill-opacity:1;stroke:none;stroke-width:0.28063586;stroke-linecap:round;stroke-linejoin:round;stroke-miterlimit:4;stroke-dasharray:none;stroke-dashoffset:0;stroke-opacity:1;paint-order:stroke fill markers" />
    </g>
  </g>
</svg>
